<svg width="20" height="20" viewBox="0 0 20 20" fill="none" xmlns="http://www.w3.org/2000/svg">
<path d="M3.90445 12.1235C3.48965 12.052 3.06309 12.0473 2.63656 12.1114C1.78895 12.2387 1.02062 12.6266 0.414414 13.2329L0 13.6473L1.41867 15.0661L3.90445 12.1235Z" fill="#FFAC49"/>
<path d="M4.93372 18.5812L6.35239 19.9999L6.7668 19.5855C7.37301 18.9796 7.7609 18.2109 7.88821 17.3632C7.95227 16.937 7.94758 16.5105 7.8761 16.0952L4.93372 18.5812Z" fill="#FFAC49"/>
<path d="M11.0365 15.5266C10.7509 15.8122 10.608 16.1872 10.608 16.5622C10.608 16.9375 10.751 17.3125 11.0365 17.5981C11.6075 18.1692 12.5368 18.1692 13.1078 17.5981L13.541 17.1645L11.4696 15.093L11.0365 15.5266Z" fill="#FFAC49"/>
<path d="M20 13.6665L19.1714 12.8379L18.0884 13.9209L17.1446 11.8885L18.4952 10.5378L17.6666 9.70915L16.6191 10.7568L15.9362 9.28638L11.2657 13.2317L18.0337 20L19.9988 18.0348L18.614 15.0526L20 13.6665Z" fill="#FFAC49"/>
<path d="M2.40181 8.96294C2.68735 9.24849 3.06231 9.39146 3.43767 9.39146C3.81263 9.39146 4.18763 9.24849 4.47314 8.96294L4.90669 8.52974L2.83532 6.45825L2.40177 6.89146C1.83075 7.46255 1.83075 8.39185 2.40181 8.96294Z" fill="#FFAC49"/>
<path d="M10.713 4.06289L9.2427 3.38L10.2903 2.33234L9.46172 1.50371L8.11109 2.85441L6.07875 1.91055L7.1575 0.831758L6.32891 0.00316406L4.94715 1.38496L1.96512 0L0 1.96523L6.76797 8.73359L10.713 4.06289Z" fill="#FFAC49"/>
<path d="M19.0396 4.11496C19.6634 2.84969 19.9988 1.44418 19.9988 0C18.5534 0 17.1468 0.336094 15.8808 0.960976C16.5678 1.28219 17.1977 1.72262 17.7401 2.265C18.2799 2.80492 18.7188 3.4316 19.0396 4.11496Z" fill="#FFAC49"/>
<path d="M18.2743 5.39665C18.0232 4.52978 17.5547 3.73696 16.9115 3.09368C16.2657 2.44786 15.4692 1.97813 14.5983 1.72778C13.9717 2.17435 13.3972 2.7011 12.8909 3.30048L1.28633 17.0386L2.96133 18.7137L16.6986 7.10856C17.2993 6.60103 17.8271 6.02493 18.2743 5.39665Z" fill="#FFAC49"/>
</svg>
