<svg width="22" height="22" viewBox="0 0 22 22" fill="none" xmlns="http://www.w3.org/2000/svg">
<path d="M14.2083 5.27087C15.2167 5.27087 16.0417 4.44587 16.0417 3.43752C16.0417 2.42917 15.2167 1.60417 14.2083 1.60417C13.2 1.60417 12.375 2.42917 12.375 3.43752C12.375 4.44587 13.2 5.27087 14.2083 5.27087Z" fill="#737CCE"/>
<path d="M4.58335 11.2292C2.0625 11.2292 0 13.2917 0 15.8125C0 18.3334 2.0625 20.3959 4.58335 20.3959C7.1042 20.3959 9.1667 18.3334 9.1667 15.8125C9.1667 13.2917 7.10415 11.2292 4.58335 11.2292ZM4.58335 19.0209C2.79585 19.0209 1.375 17.6 1.375 15.8125C1.375 14.025 2.79585 12.6042 4.58335 12.6042C6.37085 12.6042 7.7917 14.025 7.7917 15.8125C7.7917 17.6 6.37085 19.0209 4.58335 19.0209Z" fill="#737CCE"/>
<path d="M17.3708 10.2667V8.43335C15.9958 8.43335 14.8499 7.9292 14.0249 7.1042L12.2374 5.36255C11.9624 5.0417 11.5041 4.81255 10.9999 4.81255C10.4958 4.81255 10.0374 4.99589 9.7166 5.36255L7.19575 7.88339C6.8749 8.20424 6.64575 8.66255 6.64575 9.16674C6.64575 9.67094 6.8749 10.1292 7.19575 10.4959L10.0832 13.0625V17.6459H11.9166V11.9167L9.89994 9.90005L12.0541 7.70005L12.7416 8.38755C13.8874 9.5792 15.4916 10.2667 17.3708 10.2667Z" fill="#737CCE"/>
<path d="M17.4166 11.2292C14.8958 11.2292 12.8333 13.2917 12.8333 15.8125C12.8333 18.3334 14.8958 20.3959 17.4166 20.3959C19.9374 20.3959 21.9999 18.3334 21.9999 15.8125C21.9999 13.2917 19.9374 11.2292 17.4166 11.2292ZM17.4166 19.0209C15.6291 19.0209 14.2083 17.6 14.2083 15.8125C14.2083 14.025 15.6291 12.6042 17.4166 12.6042C19.2041 12.6042 20.6249 14.025 20.6249 15.8125C20.6249 17.6 19.2041 19.0209 17.4166 19.0209Z" fill="#737CCE"/>
</svg>
