<svg width="22" height="22" viewBox="0 0 22 22" fill="none" xmlns="http://www.w3.org/2000/svg">
<path d="M0.687662 6.18665H1.37532V10.3115H0.687662C0.307517 10.3115 0 10.0054 0 9.6241V6.87402C0 6.4959 0.307517 6.18665 0.687662 6.18665ZM21.3123 6.18665H20.6241V10.3115H21.3123C21.6919 10.3115 22 10.0054 22 9.6241V6.87402C22 6.4959 21.6928 6.18665 21.3123 6.18665ZM19.2499 4.81219V17.1869C19.2499 17.9472 18.6352 18.562 17.8749 18.562V19.937C17.8749 20.6976 17.2601 21.312 16.4999 21.312H15.1245C14.3645 21.312 13.7495 20.6961 13.7495 19.937V18.562H8.25022V19.937C8.25022 20.6976 7.63518 21.312 6.87518 21.312H5.50072C4.74043 21.312 4.12568 20.6961 4.12568 19.937V18.562C3.36568 18.562 2.75065 17.9461 2.75065 17.1869V4.81219C2.75007 2.53478 4.59806 0.68737 6.87518 0.68737H15.1251C17.4025 0.68737 19.2499 2.5342 19.2499 4.81219ZM8.25022 3.43744H13.7501V2.06241H8.25022V3.43744ZM6.87518 15.8125C6.87518 15.0513 6.26015 14.4374 5.50072 14.4374C4.74072 14.4374 4.12568 15.0522 4.12568 15.8125C4.12568 16.5719 4.74072 17.1875 5.50072 17.1875C6.25986 17.1872 6.87518 16.5713 6.87518 15.8125ZM17.8749 15.8125C17.8749 15.0513 17.2601 14.4374 16.4999 14.4374C15.7396 14.4374 15.1248 15.0522 15.1248 15.8125C15.1248 16.5719 15.7404 17.1875 16.4999 17.1875C17.2604 17.1872 17.8749 16.5713 17.8749 15.8125ZM17.8749 4.81219H4.12511V13.0621H17.8749V4.81219Z" fill="#F4C300"/>
</svg>
