<svg width="14" height="14" viewBox="0 0 14 14" fill="none" xmlns="http://www.w3.org/2000/svg">
<path fill-rule="evenodd" clip-rule="evenodd" d="M9.21286 0.583374C9.45436 0.583374 9.65036 0.779374 9.65036 1.02087L9.65063 1.51543C10.5024 1.57382 11.2097 1.86557 11.7104 2.36727C12.257 2.91618 12.5446 3.70543 12.5417 4.65218V9.97393C12.5417 11.9176 11.3073 13.1251 9.32107 13.1251H4.38724C2.40099 13.1251 1.16666 11.9007 1.16666 9.9296V4.65102C1.16666 2.81771 2.26744 1.64092 4.06272 1.51563L4.06308 1.02087C4.06308 0.779374 4.25908 0.583374 4.50058 0.583374C4.74208 0.583374 4.93808 0.779374 4.93808 1.02087L4.93791 1.50446H8.77507L8.77536 1.02087C8.77536 0.779374 8.97136 0.583374 9.21286 0.583374ZM11.6667 5.77737H2.04166V9.9296C2.04166 11.4264 2.87466 12.2501 4.38724 12.2501H9.32107C10.8337 12.2501 11.6667 11.4416 11.6667 9.97393L11.6667 5.77737ZM9.45069 9.44788C9.69219 9.44788 9.88819 9.64388 9.88819 9.88538C9.88819 10.1269 9.69219 10.3229 9.45069 10.3229C9.20919 10.3229 9.01086 10.1269 9.01086 9.88538C9.01086 9.64388 9.20394 9.44788 9.44544 9.44788H9.45069ZM6.86215 9.44788C7.10365 9.44788 7.29965 9.64388 7.29965 9.88538C7.29965 10.1269 7.10365 10.3229 6.86215 10.3229C6.62065 10.3229 6.42231 10.1269 6.42231 9.88538C6.42231 9.64388 6.6154 9.44788 6.8569 9.44788H6.86215ZM4.26818 9.44788C4.50968 9.44788 4.70568 9.64388 4.70568 9.88538C4.70568 10.1269 4.50968 10.3229 4.26818 10.3229C4.02668 10.3229 3.82776 10.1269 3.82776 9.88538C3.82776 9.64388 4.02143 9.44788 4.26293 9.44788H4.26818ZM9.45069 7.18064C9.69219 7.18064 9.88819 7.37664 9.88819 7.61814C9.88819 7.85964 9.69219 8.05564 9.45069 8.05564C9.20919 8.05564 9.01086 7.85964 9.01086 7.61814C9.01086 7.37664 9.20394 7.18064 9.44544 7.18064H9.45069ZM6.86215 7.18064C7.10365 7.18064 7.29965 7.37664 7.29965 7.61814C7.29965 7.85964 7.10365 8.05564 6.86215 8.05564C6.62065 8.05564 6.42231 7.85964 6.42231 7.61814C6.42231 7.37664 6.6154 7.18064 6.8569 7.18064H6.86215ZM4.26818 7.18064C4.50968 7.18064 4.70568 7.37664 4.70568 7.61814C4.70568 7.85964 4.50968 8.05564 4.26818 8.05564C4.02668 8.05564 3.82776 7.85964 3.82776 7.61814C3.82776 7.37664 4.02143 7.18064 4.26293 7.18064H4.26818ZM8.77507 2.37946H4.93791L4.93808 2.94062C4.93808 3.18212 4.74208 3.37812 4.50058 3.37812C4.25908 3.37812 4.06308 3.18212 4.06308 2.94062L4.06277 2.3927C2.75597 2.50248 2.04166 3.29462 2.04166 4.65102V4.90237H11.6667L11.6667 4.65102C11.669 3.9306 11.4753 3.3706 11.0909 2.9856C10.7535 2.64715 10.2602 2.44502 9.65086 2.39298L9.65036 2.94062C9.65036 3.18212 9.45436 3.37812 9.21286 3.37812C8.97136 3.37812 8.77536 3.18212 8.77536 2.94062L8.77507 2.37946Z" fill="#07AEAF"/>
</svg>
