<svg width="22" height="20" viewBox="0 0 22 20" fill="none" xmlns="http://www.w3.org/2000/svg">
<path d="M20.3418 7.47857L18.7988 2.33549C18.447 1.16258 17.3883 0.375046 16.1643 0.375046H5.83569C4.61175 0.375046 3.55297 1.16258 3.20117 2.33549L1.65824 7.47857C0.68397 7.90196 0 8.87153 0 10V15.5C0 16.2594 0.615662 16.875 1.375 16.875H1.37508L1.375 18.25C1.375 19.0094 1.99058 19.625 2.75 19.625H4.12508C4.88442 19.625 5.50008 19.0094 5.50008 18.25L5.4995 16.875H16.5L16.4999 18.25C16.4999 19.0094 17.1155 19.625 17.8749 19.625H19.25C20.0094 19.625 20.625 19.0094 20.625 18.25V16.8751L20.6245 16.875H20.625C21.3843 16.875 22 16.2594 22 15.5V10C22 8.87153 21.316 7.90196 20.3418 7.47857L20.3418 7.47857ZM5.83565 3.12505H16.1643L17.4018 7.25005H4.59812L5.83565 3.12505H5.83565ZM5.49996 13.4375C4.74054 13.4375 4.12496 12.8219 4.12496 12.0625C4.12496 11.3031 4.74054 10.6875 5.49996 10.6875C6.25938 10.6875 6.87496 11.3031 6.87496 12.0625C6.87496 12.8219 6.25938 13.4375 5.49996 13.4375ZM16.5 13.4375C15.7405 13.4375 15.125 12.8219 15.125 12.0625C15.125 11.3031 15.7405 10.6875 16.5 10.6875C17.2594 10.6875 17.875 11.3031 17.875 12.0625C17.875 12.8219 17.2594 13.4375 16.5 13.4375Z" fill="#FF724C"/>
</svg>
