<svg width="298" height="187" viewBox="0 0 298 187" fill="none" xmlns="http://www.w3.org/2000/svg">
<mask id="mask0_441:9819" style="mask-type:alpha" maskUnits="userSpaceOnUse" x="0" y="0" width="298" height="187">
<rect width="297.143" height="186.912" rx="15" fill="#07AEAF"/>
</mask>
<g mask="url(#mask0_441:9819)">
<path d="M0 15C0 6.71571 6.71573 0 15 0H282.143C290.427 0 297.143 6.71573 297.143 15V171.912C297.143 180.197 290.427 186.912 282.143 186.912H15C6.71575 186.912 0 180.197 0 171.912V15Z" fill="#07AEAF"/>
<g opacity="0.5">
<path opacity="0.1" d="M501.567 52.3268C503.752 53.0914 504.75 57.8454 503.359 59.6951C500.442 63.56 497.778 67.2128 493.786 69.9278C479.716 79.493 463.135 78.3993 448.61 71.4465C430.109 62.5835 418.054 44.2506 397.905 38.7776C391.387 37.0071 384.311 36.6782 377.841 39.0611C370.169 41.8848 364.555 48.7935 362.497 56.9388C360.153 66.2142 365.033 75.7547 365.457 85.0357C365.925 95.281 362.416 105.917 355.55 113.482C347.744 122.089 334.499 124.945 323.231 123.388C311.154 121.718 298.851 114.351 292.805 103.553C283.503 86.9521 296.237 71.4433 294.226 54.3836C292.516 39.8863 279.489 30.5568 265.944 27.9031C251.293 25.0323 237.374 28.0749 223.926 34.9886C211.53 41.3624 199.983 49.7475 186.852 54.3658C175.209 58.4622 162.905 60.2994 150.793 59.6385C123.982 58.1668 95.9874 43.8355 80.6142 20.8542C66.3719 -0.438131 62.0022 -28.2121 64.5501 -54.2525C64.8751 -57.5864 71.9532 -96.4734 74.2749 -95.7073C74.4785 -95.6401 73.8855 -97.2713 74.0891 -97.2042L501.567 52.3268Z" fill="white"/>
<path opacity="0.05" d="M408.826 5.23957C404.949 6.65577 392.862 2.71679 388.543 2.81866C380.293 3.0172 372.08 5.21209 364.938 9.34358C348.185 19.0298 334.022 41.2379 311.898 36.4361C292.136 32.1464 284.337 11.4955 268.278 1.50328C234.99 -19.2121 197.212 -7.42756 161.988 1.40662C119.065 12.1763 73.5525 11.5853 42.4514 -25.1705C22.9635 -48.2073 23.4052 -74.1765 30.2994 -100.779C32.3751 -108.789 40.9163 -113.047 48.7777 -110.47L380.666 -1.66604C383.688 -0.669133 388.499 -0.658062 391.608 -0.251419C395.007 0.194663 398.207 0.455153 401.449 1.53187C403.999 2.37951 406.616 2.8406 408.82 4.11343C409.306 4.39409 409.353 5.05004 408.826 5.23957Z" fill="white"/>
</g>
<g opacity="0.5">
<path opacity="0.1" d="M-11.5245 179.742C-13.5059 178.547 -13.5108 173.689 -11.7733 172.164C-8.13052 168.979 -4.77846 165.949 -0.317559 164.11C15.4043 157.631 31.412 162.1 44.214 171.883C60.5196 184.352 68.5851 204.769 87.194 214.256C93.2136 217.325 100.073 219.098 106.892 218.091C114.977 216.9 121.88 211.288 125.554 203.736C129.738 195.137 126.906 184.798 128.381 175.625C130.01 165.5 135.612 155.808 143.874 149.81C153.269 142.985 166.816 142.904 177.53 146.738C189.012 150.848 199.554 160.581 203.272 172.39C208.996 190.548 193.371 203.12 191.865 220.232C190.585 234.773 201.436 246.576 214.154 251.95C227.912 257.764 242.157 257.639 256.729 253.627C270.162 249.929 283.174 244.087 296.969 242.258C309.2 240.635 321.619 241.358 333.341 244.488C359.287 251.425 383.77 271.192 394.137 296.839C403.741 320.602 402.36 348.685 394.56 373.654C393.563 376.851 378.712 413.466 376.595 412.24C376.409 412.133 376.657 413.851 376.472 413.744L-11.5245 179.742Z" fill="white"/>
<path opacity="0.05" d="M69.6707 244.848C73.7537 244.256 84.7836 250.59 89.0325 251.375C97.1481 252.872 105.635 252.407 113.468 249.827C131.841 243.779 150.23 224.942 170.909 234.178C189.38 242.428 192.806 264.241 206.491 277.315C234.856 304.416 274.238 300.624 310.519 299.196C354.729 297.452 399.161 307.36 422.118 349.715C436.5 376.258 430.779 401.587 418.612 426.213C414.947 433.632 405.72 436.053 398.553 431.921L95.8291 257.38C93.0745 255.785 88.3674 254.788 85.4066 253.752C82.1698 252.619 79.0909 251.708 76.1367 249.99C73.8128 248.637 71.3448 247.649 69.4462 245.951C69.0279 245.577 69.1159 244.925 69.6707 244.848Z" fill="white"/>
</g>
</g>
</svg>
