<svg width="22" height="22" viewBox="0 0 22 22" fill="none" xmlns="http://www.w3.org/2000/svg">
<g clip-path="url(#clip0_441:9982)">
<path d="M8.75054 4.40005C9.96556 4.40005 10.9505 3.41507 10.9505 2.20005C10.9505 0.985019 9.96556 4.57764e-05 8.75054 4.57764e-05C7.53551 4.57764e-05 6.55054 0.985019 6.55054 2.20005C6.55054 3.41507 7.53551 4.40005 8.75054 4.40005Z" fill="#4FDCCF"/>
<path d="M19.4669 19.685L17.7293 14.4723C17.33 13.2744 16.2091 12.4666 14.9467 12.4666H14.8922C15.5352 13.5397 15.9054 14.794 15.9054 16.1333C15.9054 17.0229 15.7417 17.8749 15.4437 18.6614L15.934 20.097C16.0231 20.3579 16.2682 20.5333 16.5439 20.5333H18.8554C19.2954 20.5333 19.606 20.1023 19.4669 19.685Z" fill="#4FDCCF"/>
<path d="M5.26064 9.62205C5.26064 9.62291 5.26077 9.62377 5.26077 9.62463L5.26128 6.95765C4.67957 6.49453 3.94403 6.21678 3.14443 6.21678H3.1437C2.78775 6.21678 2.49951 6.50536 2.49951 6.86131C2.49951 7.21727 2.78848 7.50584 3.14443 7.50584C4.31133 7.50584 5.26064 8.4552 5.26064 9.62205Z" fill="#4FDCCF"/>
<path d="M13.1498 13.0224H8.0164C6.85436 13.0224 5.85873 12.299 5.45426 11.2793C3.9024 12.3349 2.88306 14.115 2.88306 16.1334C2.8831 19.3734 5.50969 22 8.74975 22C11.9898 22 14.6164 19.3734 14.6164 16.1334C14.6164 14.9679 14.2765 13.8818 13.6906 12.9688C13.5156 13.0038 13.3348 13.0224 13.1498 13.0224Z" fill="#4FDCCF"/>
<path d="M8.01645 11.7334H13.1498C13.9597 11.7334 14.6164 11.0767 14.6164 10.2667C14.6164 9.45676 13.9597 8.80007 13.1498 8.80007H10.9498H9.56921C9.21326 8.80007 8.92468 8.51149 8.92468 8.15554C8.92468 7.79958 9.21326 7.51101 9.56921 7.51101H10.95H10.9502L10.9505 6.60007C10.9505 5.38603 9.96453 4.40007 8.75053 4.40007C7.53654 4.40007 6.55054 5.38603 6.55054 6.60007L6.5498 10.2667C6.54976 11.0767 7.2065 11.7334 8.01645 11.7334Z" fill="#4FDCCF"/>
</g>
<defs>
<clipPath id="clip0_441:9982">
<rect width="22" height="22" fill="white"/>
</clipPath>
</defs>
</svg>
