<svg width="20" height="20" viewBox="0 0 20 20" fill="none" xmlns="http://www.w3.org/2000/svg">
    <g clip-path="url(#clip0_383:4222)">
        <path
            d="M18.6701 10.2591C18.5897 10.0945 18.5897 9.90564 18.6701 9.74103L19.4161 8.21506C19.8314 7.36542 19.5023 6.35273 18.6669 5.90949L17.1666 5.1134C17.0047 5.02754 16.8937 4.87473 16.862 4.6943L16.5686 3.02131C16.4052 2.08983 15.5436 1.46389 14.6073 1.59635L12.9256 1.83424C12.7441 1.85987 12.5646 1.80151 12.4329 1.67413L11.2122 0.493195C10.5324 -0.164379 9.46761 -0.164418 8.78792 0.493195L7.56715 1.67424C7.43543 1.80166 7.25594 1.85991 7.07446 1.83436L5.39271 1.59647C4.45619 1.46393 3.59487 2.08994 3.43147 3.02142L3.13803 4.69434C3.10635 4.87481 2.99538 5.02758 2.83354 5.11348L1.33316 5.90957C0.497773 6.35277 0.168712 7.36554 0.584022 8.21518L1.32992 9.74111C1.41039 9.90576 1.41039 10.0946 1.32992 10.2592L0.583983 11.7851C0.168673 12.6348 0.497733 13.6475 1.33312 14.0907L2.8335 14.8868C2.99538 14.9726 3.10635 15.1255 3.13803 15.3059L3.43147 16.9789C3.58022 17.8268 4.30732 18.4215 5.14298 18.4214C5.22529 18.4214 5.3088 18.4157 5.39275 18.4038L7.0745 18.1659C7.25586 18.1402 7.43547 18.1986 7.56719 18.326L8.78792 19.507C9.12785 19.8358 9.56386 20.0002 10 20.0001C10.4361 20.0001 10.8724 19.8357 11.2121 19.507L12.4329 18.326C12.5646 18.1986 12.7442 18.1404 12.9256 18.1659L14.6073 18.4038C15.544 18.5363 16.4052 17.9103 16.5686 16.9788L16.8621 15.3059C16.8937 15.1255 17.0047 14.9727 17.1666 14.8868L18.6669 14.0907C19.5023 13.6475 19.8314 12.6347 19.4161 11.7851L18.6701 10.2591ZM7.69297 4.80926C8.85906 4.80926 9.80776 5.75797 9.80776 6.92406C9.80776 8.09014 8.85906 9.03885 7.69297 9.03885C6.52688 9.03885 5.57818 8.09014 5.57818 6.92406C5.57818 5.75797 6.52688 4.80926 7.69297 4.80926ZM6.60141 14.2143C6.4888 14.3269 6.34118 14.3832 6.1936 14.3832C6.04603 14.3832 5.89837 14.3269 5.78579 14.2143C5.56056 13.9891 5.56056 13.6239 5.78579 13.3986L13.3986 5.78582C13.6238 5.56059 13.989 5.56059 14.2143 5.78582C14.4395 6.01105 14.4395 6.37625 14.2143 6.60148L6.60141 14.2143ZM12.307 15.1909C11.1409 15.1909 10.1922 14.2422 10.1922 13.0761C10.1922 11.91 11.1409 10.9613 12.307 10.9613C13.4731 10.9613 14.4218 11.91 14.4218 13.0761C14.4218 14.2422 13.4731 15.1909 12.307 15.1909Z"
            fill="#01A1FB" />
        <path
            d="M12.307 12.1147C11.777 12.1147 11.3457 12.546 11.3457 13.076C11.3457 13.606 11.7769 14.0372 12.307 14.0372C12.837 14.0372 13.2682 13.606 13.2682 13.076C13.2682 12.546 12.837 12.1147 12.307 12.1147Z"
            fill="#01A1FB" />
        <path
            d="M7.69296 5.96265C7.16293 5.96265 6.73172 6.39385 6.73172 6.92389C6.73172 7.45393 7.16293 7.88517 7.69296 7.88517C8.223 7.88517 8.65425 7.45397 8.65425 6.92389C8.65421 6.39389 8.223 5.96265 7.69296 5.96265Z"
            fill="#01A1FB" />
    </g>
    <defs>
        <clipPath id="clip0_383:4222">
            <rect width="20" height="20" fill="white" />
        </clipPath>
    </defs>
</svg>
