<svg width="22" height="22" viewBox="0 0 22 22" fill="none" xmlns="http://www.w3.org/2000/svg">
<path d="M22 11.2445C22 10.34 21.9251 9.68004 21.7631 8.99561H11.2245V13.0778H17.4104C17.2857 14.0923 16.6123 15.62 15.1156 16.6466L15.0946 16.7833L18.4267 19.313L18.6576 19.3356C20.7778 17.4167 22 14.5933 22 11.2445Z" fill="#4285F4"/>
<path d="M11.2244 22C14.255 22 16.7992 21.0221 18.6575 19.3355L15.1155 16.6466C14.1677 17.2944 12.8956 17.7466 11.2244 17.7466C8.25617 17.7466 5.7369 15.8278 4.83886 13.1755L4.70722 13.1865L1.24245 15.8143L1.19714 15.9377C3.04293 19.531 6.83434 22 11.2244 22Z" fill="#34A853"/>
<path d="M4.83897 13.1757C4.60201 12.4912 4.46487 11.7579 4.46487 11.0001C4.46487 10.2423 4.60201 9.50899 4.8265 8.82455L4.82022 8.67878L1.31203 6.00879L1.19725 6.06229C0.436514 7.55342 0 9.2279 0 11.0001C0 12.7723 0.436514 14.4467 1.19725 15.9379L4.83897 13.1757Z" fill="#FBBC05"/>
<path d="M11.2244 4.2533C13.3321 4.2533 14.7538 5.14552 15.5645 5.89113L18.7323 2.86C16.7868 1.08778 14.255 0 11.2244 0C6.83434 0 3.04293 2.46887 1.19714 6.06217L4.82639 8.82443C5.7369 6.17221 8.25617 4.2533 11.2244 4.2533Z" fill="#EB4335"/>
</svg>
