<svg width="14" height="14" viewBox="0 0 14 14" fill="none" xmlns="http://www.w3.org/2000/svg">
<path fill-rule="evenodd" clip-rule="evenodd" d="M6.93389 8.40821L6.99976 8.40823L7.1471 8.40873C8.27328 8.41614 10.8469 8.52991 10.8469 10.2743C10.8469 12.0072 8.36299 12.1202 7.16465 12.1276L6.72067 12.1276C5.59443 12.1202 3.02031 12.0066 3.02031 10.2644C3.02031 8.52926 5.59443 8.4161 6.72067 8.40872L6.86802 8.40823C6.89088 8.40821 6.91285 8.40821 6.93389 8.40821ZM6.93389 9.28321C5.54789 9.28321 3.89531 9.45354 3.89531 10.2644C3.89531 11.0569 5.44925 11.2421 6.80721 11.2526L6.93389 11.2531C8.31989 11.2531 9.97189 11.0834 9.97189 10.2743C9.97189 9.45529 8.31989 9.28321 6.93389 9.28321ZM11.5735 8.17149C12.9869 8.38324 13.2838 9.04707 13.2838 9.56682C13.2838 9.88416 13.159 10.4634 12.3248 10.7813C12.2735 10.8006 12.221 10.8099 12.1691 10.8099C11.9929 10.8099 11.8267 10.7026 11.7602 10.5282C11.6738 10.3024 11.7876 10.0492 12.0133 9.96349C12.4088 9.81299 12.4088 9.64674 12.4088 9.56682C12.4088 9.31132 12.0839 9.13282 11.4434 9.03716C11.2048 9.00099 11.0397 8.77874 11.0753 8.53899C11.1109 8.29982 11.3326 8.14057 11.5735 8.17149ZM2.79187 8.53899C2.82746 8.77874 2.66237 9.00099 2.42379 9.03716C1.78329 9.13282 1.45837 9.31132 1.45837 9.56682C1.45837 9.64674 1.45837 9.81241 1.85446 9.96349C2.08021 10.0492 2.19396 10.3024 2.10762 10.5282C2.04112 10.7026 1.87487 10.8099 1.69871 10.8099C1.64679 10.8099 1.59429 10.8006 1.54296 10.7813C0.708207 10.4628 0.583374 9.88357 0.583374 9.56682C0.583374 9.04766 0.880291 8.38324 2.29429 8.17149C2.53521 8.14116 2.75571 8.29982 2.79187 8.53899ZM6.93389 2.33337C8.40389 2.33337 9.59914 3.52921 9.59914 4.99862C9.59914 6.46804 8.40389 7.66387 6.93389 7.66387H6.91814C6.20647 7.66154 5.53972 7.38271 5.04039 6.87871C4.53989 6.37529 4.26631 5.70679 4.2692 4.99687C4.2692 3.52921 5.46447 2.33337 6.93389 2.33337ZM6.93389 3.20837C5.94689 3.20837 5.14421 4.01162 5.14421 4.99862C5.14247 5.47696 5.32564 5.92437 5.66106 6.26212C5.99647 6.59987 6.44331 6.78712 6.91931 6.78887L6.93389 7.22637V6.78887C7.92089 6.78887 8.72414 5.98621 8.72414 4.99862C8.72414 4.01162 7.92089 3.20837 6.93389 3.20837ZM10.5441 2.90475C11.5696 3.07333 12.3146 3.95067 12.3146 4.99075C12.3122 6.03783 11.53 6.93617 10.4946 7.08142C10.4741 7.08433 10.4537 7.0855 10.4339 7.0855C10.2192 7.0855 10.032 6.92742 10.0011 6.70867C9.96781 6.46892 10.1341 6.24783 10.3738 6.21458C10.9805 6.12942 11.4384 5.60325 11.4396 4.98958C11.4396 4.38117 11.0032 3.86667 10.4018 3.76808C10.1638 3.729 10.0022 3.50383 10.0413 3.26525C10.081 3.02667 10.3044 2.86683 10.5441 2.90475ZM3.82647 3.26525C3.86556 3.50383 3.70397 3.729 3.46597 3.76808C2.86456 3.86667 2.42822 4.38117 2.42822 4.99075C2.42939 5.60325 2.88731 6.13 3.49339 6.21458C3.73314 6.24783 3.89939 6.46892 3.86614 6.70867C3.83522 6.92742 3.64797 7.0855 3.43331 7.0855C3.41347 7.0855 3.39306 7.08433 3.37264 7.08142C2.33722 6.93617 1.55556 6.03783 1.55322 4.99192C1.55322 3.95067 2.29814 3.07333 3.32364 2.90475C3.56922 2.86625 3.78681 3.02783 3.82647 3.26525Z" fill="#07AEAF"/>
</svg>
