<svg width="20" height="20" viewBox="0 0 20 20" fill="none" xmlns="http://www.w3.org/2000/svg">
<path d="M17.3999 1.23535V0H8.35602V1.24164H5.8484V8.70789C7.31594 9.50578 8.31426 11.0616 8.31426 12.8463C8.31426 13.9066 7.61868 15.6374 6.18766 18.1375C6.07391 18.3362 5.96044 18.5309 5.8484 18.7205V19.8474H12.3027V16.0654H13.5359V19.8474H19.8663V1.24371L17.3999 1.23535ZM11.0694 14.7394H9.83614V13.5062H11.0694V14.7394ZM11.0694 12.2729H9.83614V11.0397H11.0694V12.2729ZM11.0694 9.86305H9.83614V8.62984H11.0694V9.86305ZM13.5359 14.7394H12.3027V13.5062H13.5359V14.7394ZM13.5359 12.2729H12.3027V11.0397H13.5359V12.2729ZM13.5359 9.86305H12.3027V8.62984H13.5359V9.86305ZM14.7692 6.98547H13.536V5.54664H12.3026V6.98547H11.0694V2.87461H12.3026V4.31344H13.536V2.87461H14.7692V6.98547ZM16.0025 14.7394H14.7692V13.5062H16.0025V14.7394ZM16.0025 12.2729H14.7692V11.0397H16.0025V12.2729ZM16.0025 9.86305H14.7692V8.62984H16.0025V9.86305Z" fill="#FF69F0"/>
<path d="M3.60742 9.37256C1.69203 9.37256 0.133713 10.9309 0.133713 12.8462C0.133713 13.3118 0.388322 14.5378 2.09367 17.5183C2.65313 18.4961 3.21739 19.3953 3.60742 20C3.99742 19.3953 4.56172 18.4961 5.12117 17.5183C6.82649 14.5378 7.08113 13.3118 7.08113 12.8462C7.0811 10.9308 5.52281 9.37256 3.60742 9.37256ZM3.60742 15.136C2.34481 15.136 1.31758 14.1088 1.31758 12.8462C1.31758 11.5836 2.34477 10.5563 3.60742 10.5563C4.87004 10.5563 5.89727 11.5836 5.89727 12.8462C5.89727 14.1088 4.87004 15.136 3.60742 15.136Z" fill="#FF69F0"/>
<path d="M3.60744 11.7896C3.02482 11.7896 2.5508 12.2635 2.5508 12.8462C2.5508 13.4288 3.02478 13.9028 3.60744 13.9028C4.19009 13.9028 4.66408 13.4288 4.66408 12.8462C4.66408 12.2636 4.19002 11.7896 3.60744 11.7896Z" fill="#FF69F0"/>
</svg>
