<svg width="14" height="14" viewBox="0 0 14 14" fill="none" xmlns="http://www.w3.org/2000/svg">
<path fill-rule="evenodd" clip-rule="evenodd" d="M7.14551 1.16663C9.79909 1.16663 11.958 3.34188 11.958 6.01588C11.958 9.30296 8.19201 12.5416 7.14551 12.5416C6.09901 12.5416 2.33301 9.30296 2.33301 6.01588C2.33301 3.34188 4.49192 1.16663 7.14551 1.16663ZM7.14551 2.04163C4.97434 2.04163 3.20801 3.82488 3.20801 6.01588C3.20801 8.80363 6.48867 11.5196 7.14551 11.6643C7.80234 11.519 11.083 8.80304 11.083 6.01588C11.083 3.82488 9.31667 2.04163 7.14551 2.04163ZM7.14609 4.08329C8.19142 4.08329 9.04192 4.93379 9.04192 5.97971C9.04192 7.02504 8.19142 7.87496 7.14609 7.87496C6.10076 7.87496 5.25026 7.02504 5.25026 5.97971C5.25026 4.93379 6.10076 4.08329 7.14609 4.08329ZM7.14609 4.95829C6.58317 4.95829 6.12526 5.41621 6.12526 5.97971C6.12526 6.54263 6.58317 6.99996 7.14609 6.99996C7.70901 6.99996 8.16692 6.54263 8.16692 5.97971C8.16692 5.41621 7.70901 4.95829 7.14609 4.95829Z" fill="#07AEAF"/>
</svg>
