<svg width="55" height="14" viewBox="0 0 55 14" fill="none" xmlns="http://www.w3.org/2000/svg">
<path d="M13.5177 10.4971C13.5177 10.4971 11.9962 13.4932 8.61835 12.5144C7.4226 12.1675 6.38504 11.3693 5.77243 9.83955C5.62432 9.46995 5.33895 9.16837 4.97138 8.9968C4.71781 8.87814 4.42081 8.77686 4.14475 8.77686C3.47553 8.77686 2.9583 9.10337 2.83655 9.42913C2.71481 9.75565 3.32354 12.2763 5.24047 13.2257C5.8965 13.5499 7.3404 14.4713 10.4446 13.7003C11.3542 13.4743 12.9702 12.5734 13.5177 10.4971Z" fill="#07AEAF"/>
<path d="M7.99262 6.09121V4.993L6.43706 3.84263V3.1843C6.43706 3.01424 6.29592 2.87668 6.12145 2.87668H5.84694C5.69882 2.87668 5.57863 3.07093 5.57863 3.21529L4.69383 2.61441C4.69383 2.61441 4.69383 1.46253 4.69383 1.09671C4.69383 0.730886 4.39916 0.313668 4.02306 0C4.02306 0 3.37944 0.470882 3.37944 1.07176C3.37944 1.67265 3.37944 2.5615 3.37944 2.5615L2.60165 3.18883V3.1329C2.60165 2.97569 2.47138 2.84871 2.31008 2.84871H1.96656C1.79828 2.84871 1.66258 2.98174 1.66258 3.145V3.73757L0 5.01869V6.24767L3.37944 4.54857L3.46008 6.92716L2.49464 7.76386V8.5741L3.9967 7.87345V8.41765H4.13085V7.86892L5.55226 8.57486V7.79031L4.61319 7.00576L4.74734 4.54857L7.99262 6.09121Z" fill="#07AEAF"/>
<path d="M13.893 8.52197V10.4161H16.4892C16.1426 11.3223 15.295 11.8771 14.0047 11.8771C13.7434 11.8771 13.4968 11.8537 13.2641 11.8106C12.819 12.5755 12.2157 13.128 11.6062 13.4915C12.3057 13.809 13.1059 13.9881 13.9768 13.9881C16.6978 13.9881 18.766 12.2293 18.766 9.33373V8.52197H13.893Z" fill="#2B3D5F"/>
<path d="M10.9502 9.0901C10.9502 7.42576 12.1715 6.24894 13.81 6.24894C14.9065 6.24894 15.7812 6.73569 16.1837 7.3585L18.0719 6.30336C17.2531 5.0313 15.6843 4.13867 13.824 4.13867C10.9641 4.13867 8.72925 6.33057 8.72925 9.07725C8.72925 10.3826 9.23562 11.5654 10.0987 12.4437C11.0975 12.3999 11.8466 11.9675 12.3661 11.5087C11.4658 11.0394 10.9502 10.1603 10.9502 9.0901Z" fill="#07AEAF"/>
<path d="M19.599 10.4168C19.599 8.40097 21.2368 6.84473 23.2778 6.84473C25.3188 6.84473 26.9565 8.40097 26.9565 10.4168C26.9565 12.4333 25.3188 13.9888 23.2778 13.9888C21.2375 13.9888 19.599 12.4326 19.599 10.4168ZM24.8744 10.4168C24.8744 9.45611 24.1804 8.82046 23.2778 8.82046C22.3751 8.82046 21.6811 9.45611 21.6811 10.4168C21.6811 11.3774 22.3751 12.0131 23.2778 12.0131C24.1804 12.0131 24.8744 11.3774 24.8744 10.4168Z" fill="#2B3D5F"/>
<path d="M34.731 6.41145H32.2325V13.7997H30.0116V6.41145H27.5123V4.32764H34.731V6.41145Z" fill="#2B3D5F"/>
<path d="M34.0371 10.4168C34.0371 8.40097 35.6749 6.84473 37.7159 6.84473C39.7569 6.84473 41.3946 8.40097 41.3946 10.4168C41.3946 12.4333 39.7569 13.9888 37.7159 13.9888C35.6749 13.9888 34.0371 12.4326 34.0371 10.4168ZM39.3125 10.4168C39.3125 9.45611 38.6185 8.82046 37.7159 8.82046C36.8132 8.82046 36.1192 9.45611 36.1192 10.4168C36.1192 11.3774 36.8132 12.0131 37.7159 12.0131C38.6185 12.0131 39.3125 11.3774 39.3125 10.4168Z" fill="#2B3D5F"/>
<path d="M49.1414 7.03369V13.7991H47.0593V13.1634C46.6848 13.6638 45.9907 13.9888 45.0741 13.9888C43.6721 13.9888 42.4779 13.0145 42.4779 11.1877V7.03369H44.56V10.8899C44.56 11.7289 45.1013 12.1212 45.7674 12.1212C46.5312 12.1212 47.0585 11.6881 47.0585 10.7274V7.03369H49.1414Z" fill="#2B3D5F"/>
<path d="M54.8333 6.89844V9.19842C53.9725 9.06313 52.7512 9.40098 52.7512 10.7411V13.7991H50.6691V7.03373H52.7512V8.23776C53.0288 7.33153 53.9586 6.89844 54.8333 6.89844Z" fill="#2B3D5F"/>
</svg>
