<svg width="24" height="24" viewBox="0 0 24 24" fill="none" xmlns="http://www.w3.org/2000/svg">
<path d="M21.0356 12.2591C20.9517 12.0944 20.9517 11.9056 21.0356 11.741L21.813 10.215C22.2458 9.36538 21.9029 8.3527 21.0323 7.90946L19.4686 7.11337C19.2999 7.02751 19.1843 6.8747 19.1512 6.69428L18.8454 5.02129C18.6751 4.08981 17.7772 3.46388 16.8015 3.59634L15.0489 3.83423C14.8597 3.85986 14.6726 3.8015 14.5354 3.67412L13.2632 2.49319C12.5548 1.83562 11.4451 1.83558 10.7367 2.49319L9.46448 3.67423C9.32721 3.80165 9.14015 3.8599 8.95102 3.83435L7.19836 3.59646C6.22236 3.46392 5.32472 4.08993 5.15444 5.02141L4.84863 6.69432C4.81561 6.87478 4.69996 7.02755 4.5313 7.11345L2.96766 7.90954C2.09705 8.35273 1.75412 9.3655 2.18694 10.2151L2.96428 11.7411C3.04814 11.9057 3.04814 12.0945 2.96428 12.2591L2.1869 13.7851C1.75408 14.6347 2.09701 15.6474 2.96762 16.0906L4.53126 16.8867C4.69996 16.9726 4.81561 17.1254 4.84863 17.3058L5.15444 18.9788C5.30946 19.8267 6.06722 20.4214 6.93811 20.4213C7.02388 20.4213 7.11092 20.4156 7.1984 20.4037L8.95106 20.1658C9.14007 20.1401 9.32725 20.1985 9.46452 20.3259L10.7367 21.5068C11.091 21.8357 11.5454 22 11.9999 22C12.4544 22 12.9091 21.8356 13.2631 21.5068L14.5354 20.3259C14.6727 20.1985 14.8598 20.1403 15.0489 20.1658L16.8015 20.4037C17.7776 20.5362 18.6751 19.9102 18.8454 18.9787L19.1513 17.3058C19.1843 17.1254 19.3 16.9726 19.4686 16.8867L21.0323 16.0906C21.9029 15.6474 22.2458 14.6347 21.813 13.785L21.0356 12.2591ZM20.4688 15.0716L18.9052 15.8677C18.4066 16.1216 18.0647 16.573 17.9672 17.1065L17.6614 18.7794C17.6038 19.0946 17.3002 19.3062 16.9699 19.2615L15.2172 19.0236C14.6583 18.9477 14.1052 19.1203 13.6995 19.4968L12.4273 20.6777C12.1877 20.9001 11.8122 20.9001 11.5725 20.6777L10.3003 19.4967C9.95747 19.1785 9.50926 19.006 9.04135 19.006C8.95562 19.006 8.86919 19.0118 8.78264 19.0236L7.02999 19.2615C6.7 19.3062 6.39611 19.0945 6.33846 18.7794L6.03261 17.1064C5.93508 16.573 5.5932 16.1214 5.09463 15.8676L3.53099 15.0716C3.23642 14.9216 3.1204 14.579 3.26683 14.2915L4.04421 12.7656C4.29205 12.279 4.29205 11.721 4.04421 11.2344L3.26683 9.70846C3.1204 9.421 3.23642 9.07839 3.53099 8.92843L5.09463 8.13235C5.59316 7.87848 5.93508 7.427 6.03257 6.89357L6.33838 5.22062C6.39603 4.90547 6.69964 4.69375 7.02991 4.73852L8.78256 4.97641C9.3413 5.0523 9.89458 4.87977 10.3002 4.50325L11.5725 3.32232C11.8121 3.0999 12.1876 3.0999 12.4273 3.32232L13.6995 4.50325C14.1051 4.87981 14.6583 5.0523 15.2171 4.97641L16.9698 4.73852C17.2998 4.69371 17.6037 4.90547 17.6613 5.22062L17.9671 6.89361C18.0647 7.42704 18.4065 7.87856 18.9051 8.13235L20.4688 8.92843C20.7633 9.07839 20.8793 9.421 20.7329 9.70846L19.9555 11.2344C19.7077 11.7209 19.7077 12.279 19.9555 12.7655L20.7329 14.2915C20.8794 14.579 20.7634 14.9216 20.4688 15.0716Z" fill="black"/>
<path d="M16.3918 7.78562C16.1571 7.56039 15.7765 7.56039 15.5417 7.78562L7.60793 15.3984C7.3732 15.6237 7.3732 15.9888 7.60793 16.2141C7.7253 16.3267 7.87914 16.383 8.03294 16.383C8.18674 16.383 8.34062 16.3267 8.45794 16.2141L16.3917 8.60132C16.6265 8.37605 16.6265 8.01089 16.3918 7.78562Z" fill="black"/>
<path d="M9.59556 6.80908C8.38031 6.80908 7.3916 7.75778 7.3916 8.92386C7.3916 10.0899 8.38031 11.0386 9.59556 11.0386C10.8108 11.0386 11.7995 10.0899 11.7995 8.92386C11.7995 7.75778 10.8108 6.80908 9.59556 6.80908ZM9.59556 9.8851C9.04317 9.8851 8.59379 9.45389 8.59379 8.92382C8.59379 8.39379 9.04317 7.96258 9.59556 7.96258C10.1479 7.96258 10.5974 8.39379 10.5974 8.92382C10.5973 9.45389 10.1479 9.8851 9.59556 9.8851Z" fill="black"/>
<path d="M14.4042 12.9614C13.1889 12.9614 12.2002 13.9101 12.2002 15.0762C12.2002 16.2423 13.1889 17.191 14.4042 17.191C15.6194 17.191 16.6081 16.2423 16.6081 15.0762C16.6081 13.9101 15.6194 12.9614 14.4042 12.9614ZM14.4042 16.0374C13.8518 16.0374 13.4023 15.6062 13.4023 15.0762C13.4023 14.5462 13.8517 14.115 14.4042 14.115C14.9565 14.115 15.4059 14.5462 15.4059 15.0762C15.4059 15.6062 14.9565 16.0374 14.4042 16.0374Z" fill="black"/>
</svg>
