<svg width="24" height="24" viewBox="0 0 24 24" fill="none" xmlns="http://www.w3.org/2000/svg">
<path d="M21.0356 12.2591C20.9517 12.0944 20.9517 11.9056 21.0356 11.741L21.813 10.215C22.2458 9.36538 21.9029 8.3527 21.0323 7.90946L19.4686 7.11337C19.2999 7.02751 19.1843 6.8747 19.1512 6.69428L18.8454 5.02129C18.6751 4.08981 17.7772 3.46388 16.8015 3.59634L15.0489 3.83423C14.8597 3.85986 14.6726 3.8015 14.5354 3.67412L13.2632 2.49319C12.5548 1.83562 11.4451 1.83558 10.7367 2.49319L9.46448 3.67423C9.32721 3.80165 9.14015 3.8599 8.95102 3.83435L7.19836 3.59646C6.22236 3.46392 5.32472 4.08993 5.15444 5.02141L4.84863 6.69432C4.81561 6.87478 4.69996 7.02755 4.5313 7.11345L2.96766 7.90954C2.09705 8.35273 1.75412 9.3655 2.18694 10.2151L2.96428 11.7411C3.04814 11.9057 3.04814 12.0945 2.96428 12.2591L2.1869 13.7851C1.75408 14.6347 2.09701 15.6474 2.96762 16.0906L4.53126 16.8867C4.69996 16.9726 4.81561 17.1254 4.84863 17.3058L5.15444 18.9788C5.30946 19.8267 6.06722 20.4214 6.93811 20.4213C7.02388 20.4213 7.11092 20.4156 7.1984 20.4037L8.95106 20.1658C9.14007 20.1401 9.32725 20.1985 9.46452 20.3259L10.7367 21.5068C11.091 21.8357 11.5454 22 11.9999 22C12.4544 22 12.9091 21.8356 13.2631 21.5068L14.5354 20.3259C14.6727 20.1985 14.8598 20.1403 15.0489 20.1658L16.8015 20.4037C17.7776 20.5362 18.6751 19.9102 18.8454 18.9787L19.1513 17.3058C19.1843 17.1254 19.3 16.9726 19.4686 16.8867L21.0323 16.0906C21.9029 15.6474 22.2458 14.6347 21.813 13.785L21.0356 12.2591ZM9.59561 6.80924C10.8109 6.80924 11.7996 7.75794 11.7996 8.92402C11.7996 10.0901 10.8109 11.0388 9.59561 11.0388C8.38036 11.0388 7.39165 10.0901 7.39165 8.92402C7.39165 7.75794 8.38036 6.80924 9.59561 6.80924ZM8.45803 16.2142C8.34067 16.3268 8.18683 16.3831 8.03303 16.3831C7.87923 16.3831 7.72535 16.3269 7.60802 16.2142C7.37329 15.989 7.37329 15.6238 7.60802 15.3986L15.5418 7.78579C15.7765 7.56056 16.1571 7.56056 16.3918 7.78579C16.6266 8.01102 16.6266 8.37621 16.3918 8.60144L8.45803 16.2142ZM14.4042 17.1908C13.1889 17.1908 12.2002 16.2421 12.2002 15.0761C12.2002 13.91 13.1889 12.9613 14.4042 12.9613C15.6194 12.9613 16.6081 13.91 16.6081 15.0761C16.6081 16.2421 15.6194 17.1908 14.4042 17.1908Z" fill="black"/>
<path d="M14.4042 14.1147C13.8518 14.1147 13.4023 14.546 13.4023 15.076C13.4023 15.606 13.8517 16.0372 14.4042 16.0372C14.9565 16.0372 15.4059 15.606 15.4059 15.076C15.4059 14.546 14.9565 14.1147 14.4042 14.1147Z" fill="black"/>
<path d="M9.59564 7.96289C9.04326 7.96289 8.59387 8.3941 8.59387 8.92413C8.59387 9.45416 9.04326 9.88541 9.59564 9.88541C10.148 9.88541 10.5975 9.4542 10.5975 8.92413C10.5974 8.39414 10.148 7.96289 9.59564 7.96289Z" fill="black"/>
</svg>
