<svg width="346" height="244" viewBox="0 0 346 244" fill="none" xmlns="http://www.w3.org/2000/svg">
<path d="M345.002 212.715H0.603683V212.887H345.002V212.715Z" fill="#EBEBEB"/>
<path d="M310.494 223.797H287.681V223.97H310.494V223.797Z" fill="#EBEBEB"/>
<path d="M228.747 225.671H222.762V225.843H228.747V225.671Z" fill="#EBEBEB"/>
<path d="M286.992 217.405H273.774V217.577H286.992V217.405Z" fill="#EBEBEB"/>
<path d="M66.4872 218.562H36.738V218.735H66.4872V218.562Z" fill="#EBEBEB"/>
<path d="M76.9844 218.562H72.6243V218.735H76.9844V218.562Z" fill="#EBEBEB"/>
<path d="M155.686 221.47H91.1599V221.642H155.686V221.47Z" fill="#EBEBEB"/>
<path d="M231.619 80.0799C247.426 80.0799 260.239 67.2665 260.239 51.4603C260.239 35.6542 247.426 22.8408 231.619 22.8408C215.813 22.8408 203 35.6542 203 51.4603C203 67.2665 215.813 80.0799 231.619 80.0799Z" fill="#E8FCFC"/>
<path d="M282.701 45.8186C282.701 43.2425 280.614 41.1554 278.038 41.1554C277.569 41.1554 277.121 41.2243 276.701 41.3552C276.77 40.8868 276.805 40.4115 276.805 39.9225C276.805 34.4741 272.382 30.052 266.934 30.052C266.314 30.052 265.708 30.114 265.116 30.2242C263.6 27.7445 260.873 26.0776 257.746 26.0776C253.02 26.0776 249.184 29.8729 249.115 34.5843C249.067 34.5843 249.018 34.5774 248.97 34.5774C244.576 34.5774 241.022 38.1385 241.022 42.5261C241.022 46.9138 244.583 50.4748 248.97 50.4748H278.168L278.161 50.468C280.682 50.3991 282.701 48.3465 282.701 45.8186Z" fill="#E8FCFC"/>
<path d="M209.041 71.4695C209.041 68.8934 206.954 66.8063 204.377 66.8063C203.909 66.8063 203.461 66.8752 203.041 67.006C203.11 66.5377 203.145 66.0624 203.145 65.5733C203.145 60.125 198.722 55.7029 193.274 55.7029C192.654 55.7029 192.048 55.7649 191.456 55.8751C189.94 53.3954 187.213 51.7285 184.086 51.7285C179.36 51.7285 175.524 55.5238 175.455 60.2352C175.407 60.2352 175.358 60.2283 175.31 60.2283C170.916 60.2283 167.362 63.7894 167.362 68.177C167.362 72.5715 170.923 76.1257 175.31 76.1257H204.508L204.501 76.1188C207.029 76.0568 209.041 73.9973 209.041 71.4695Z" fill="#C1FFFF"/>
<path d="M80.4697 80.2932C80.4697 77.7171 78.3827 75.63 75.8066 75.63C75.3382 75.63 74.8905 75.6989 74.4703 75.8298C74.5392 75.3614 74.5736 74.8861 74.5736 74.3971C74.5736 68.9487 70.1515 64.5266 64.7032 64.5266C64.0832 64.5266 63.4771 64.5886 62.8847 64.6988C61.3694 62.2191 58.6417 60.5522 55.5146 60.5522C50.7895 60.5522 46.9529 64.3475 46.884 69.0589C46.8358 69.0589 46.7875 69.052 46.7393 69.052C42.3448 69.052 38.7906 72.6131 38.7906 77.0007C38.7906 81.3952 42.3517 84.9494 46.7393 84.9494H75.9375L75.9306 84.9426C78.4584 84.8737 80.4697 82.8211 80.4697 80.2932Z" fill="#C1FFFF"/>
<path d="M280.007 102.534C280.007 100.977 278.747 99.7168 277.19 99.7168C276.908 99.7168 276.639 99.7582 276.384 99.8339C276.426 99.5515 276.446 99.2622 276.446 98.9661C276.446 95.6736 273.774 93.0011 270.481 93.0011C270.103 93.0011 269.737 93.0355 269.379 93.1044C268.463 91.6028 266.817 90.5972 264.93 90.5972C262.071 90.5972 259.757 92.8909 259.715 95.7356C259.688 95.7356 259.66 95.7287 259.626 95.7287C256.974 95.7287 254.818 97.8778 254.818 100.537C254.818 103.195 256.967 105.344 259.626 105.344H277.273L277.266 105.337C278.788 105.303 280.007 104.063 280.007 102.534Z" fill="#C1FFFF"/>
<path d="M109.73 11.9369C109.73 10.3802 108.469 9.11968 106.913 9.11968C106.63 9.11968 106.362 9.161 106.107 9.23677C106.148 8.95436 106.169 8.66507 106.169 8.36889C106.169 5.07644 103.496 2.4039 100.204 2.4039C99.8249 2.4039 99.4599 2.43834 99.1017 2.50722C98.1856 1.00564 96.5394 0 94.6521 0C91.7935 0 89.4792 2.29369 89.4379 5.13843C89.4103 5.13843 89.3828 5.13154 89.3483 5.13154C86.6964 5.13154 84.5405 7.28059 84.5405 9.93935C84.5405 12.5912 86.6896 14.7471 89.3483 14.7471H106.995V14.754C108.511 14.7127 109.73 13.466 109.73 11.9369Z" fill="#C1FFFF"/>
<path d="M62.499 117.151L81.1516 201.88L84.5405 200.288L64.9511 116.675L62.499 117.151Z" fill="#C1FFFF"/>
<path d="M276.66 201.474C276.66 201.474 265.129 121.863 291.09 39.5237L287.019 36.3828C287.019 36.3828 256.602 98.6501 261.031 203.705L276.66 201.474Z" fill="#C1FFFF"/>
<path d="M298.15 17.9092C307.67 11.6756 321.755 21.6011 323.684 37.106C323.684 37.106 322.045 36.0934 319.317 35.0327C318.58 31.1341 317.871 27.6763 317.871 27.6763L318.373 34.6814C317.54 34.3852 316.624 34.089 315.632 33.8204L314.971 30.0527L314.661 33.5724C313.393 33.2625 312.016 33.0145 310.569 32.8492L308.792 21.8491L307.869 32.6563C306.505 32.6219 305.093 32.6701 303.647 32.8423L302.559 25.362L302.552 32.9939C301.381 33.1798 300.189 33.4553 298.984 33.8204L297.682 22.655C297.682 22.655 297.723 28.9299 297.648 34.2543C294.596 35.3495 291.49 37.0646 288.459 39.6614L288.363 38.2838C288.363 38.2769 289.465 23.5987 298.15 17.9092Z" fill="#C1FFFF"/>
<path d="M285.001 12.9221C277.445 4.41543 261.251 10.3115 255.335 24.7763C255.335 24.7763 257.188 24.2253 260.094 23.9153C261.823 20.3404 263.414 17.1926 263.414 17.1926L261.093 23.8189C261.982 23.75 262.939 23.7018 263.965 23.7018L265.584 20.2371L264.964 23.7155C266.273 23.75 267.664 23.8671 269.104 24.0875L273.691 13.9346L271.756 24.6041C273.078 24.9209 274.428 25.348 275.785 25.8921L278.795 18.9559L276.811 26.3261C277.893 26.8151 278.974 27.3868 280.042 28.055L284.216 17.6197C284.216 17.6197 282.535 23.6673 281.213 28.8195C283.872 30.6724 286.42 33.1452 288.673 36.4445L289.127 35.1427C289.127 35.1427 291.896 20.6917 285.001 12.9221Z" fill="#C1FFFF"/>
<path d="M277.721 33.0969C285.297 25.6992 290.987 32.1394 290.987 32.1394C288.142 32.8765 285.607 34.7018 283.389 37.023L282.363 35.6868L282.528 37.9667C281.998 38.5728 281.495 39.2065 281.006 39.8609L279.27 35.9141L280.007 41.2591C279.312 42.2854 278.664 43.3324 278.065 44.3794L277.3 40.4601L277.356 45.6537C276.722 46.8246 276.157 47.9749 275.654 49.0563L274.828 41.8721L274.717 51.1571C273.505 54.0225 272.878 56.0338 272.878 56.0338C272.878 56.0338 270.144 40.4946 277.721 33.0969Z" fill="#C1FFFF"/>
<path d="M298.171 50.565L296.607 51.4673C296.38 50.2619 296.118 49.0014 295.815 47.7202L296.883 45.7709L295.547 46.5975C295.436 46.1704 295.326 45.7503 295.216 45.3232L296.58 41.5073L294.541 43.0295C293.439 39.5924 292.034 36.5617 290.271 35.1152C290.271 35.1152 307.649 40.6669 297.827 59.3953C297.827 59.3953 297.51 56.4266 296.814 52.5349L298.171 50.565Z" fill="#C1FFFF"/>
<path d="M281.082 35.246L278.306 30.0112L279.449 35.4595C279.174 35.5078 278.892 35.556 278.609 35.6111L275.007 31.127L275.895 36.2861C274.738 36.6374 273.533 37.0713 272.279 37.6224C271.005 38.1803 269.751 38.8209 268.525 39.5166L266.769 34.9361L267.588 40.0607C266.397 40.7702 265.24 41.5279 264.124 42.3131L263.249 38.2767L263.332 42.8779C261.968 43.8629 260.68 44.8754 259.488 45.8535L259.598 38.5385L258.538 46.6594C257.318 47.6995 256.23 48.6913 255.3 49.5661L255.163 44.4897L253.881 50.9299C252.538 52.2593 251.774 53.1065 251.774 53.1065C252.469 35.3424 259.35 28.2892 270.743 26.3812C282.136 24.4801 290.346 36.3068 290.346 36.3068C290.346 36.3068 286.854 34.6674 281.082 35.246Z" fill="#C1FFFF"/>
<path d="M314.31 56.9569L313.269 62.2537C312.774 60.9381 312.085 59.2506 311.231 57.3702L312.16 49.6212L310.452 55.7308C309.199 53.1616 307.649 50.3582 305.824 47.7408L307.442 42.3682L304.811 46.3563C304.288 45.6675 303.743 44.9925 303.172 44.345L304.095 40.963L302.669 43.7871C302.283 43.3669 301.884 42.9605 301.477 42.5679L302.593 38.0563L300.816 41.9549C299.666 40.9217 298.447 40.0262 297.165 39.3237L298.977 33.8064C298.977 33.8064 297.703 36.0519 296.139 38.8071C294.355 37.9874 292.447 37.5466 290.429 37.6155C290.429 37.6155 293.852 32.112 300.203 30.2109C306.554 28.3098 320.178 39.7783 314.254 65.064C314.254 65.064 314.075 64.4854 313.724 63.5073L314.31 56.9569Z" fill="#C1FFFF"/>
<path d="M303.867 7.82511L304.949 11.0349C304.598 11.0556 304.198 11.1038 303.764 11.2002L302.462 7.0261L303.33 11.3173C302.628 11.524 301.835 11.8546 300.988 12.3849L299.19 6.7437L300.244 12.8947C299.962 13.1082 299.666 13.3424 299.376 13.5972L297.351 8.30038L298.88 14.0518C297.654 15.2366 296.366 16.869 295.085 19.1076L294.527 11.3449L293.632 21.9455C292.378 24.6524 291.159 28.0275 290.05 32.2154C290.05 32.2154 288.948 4.00228 295.746 0.806264C302.545 -2.38976 306.588 11.1933 306.588 11.1933C306.588 11.1933 306.251 11.0762 305.658 11.0418L303.867 7.82511Z" fill="#C1FFFF"/>
<path d="M294.155 39.2413L293.549 44.5933L291.51 39.4342L288.741 43.4774L287.66 39.7166L284.471 42.3891C284.471 42.3891 284.863 35.5631 286.895 32.4429C288.934 29.3157 295.016 31.5061 294.155 39.2413Z" fill="#C1FFFF"/>
<path d="M209.316 125.299V87.98C209.316 87.98 201.746 96.0182 196.725 94.9299C191.704 93.8416 185.167 97.6369 185.167 97.6369C185.167 97.6369 191.738 96.6795 194.176 99.3451C196.615 102.011 207.498 102.293 207.498 102.293V126.663L209.316 125.299Z" fill="#C1FFFF"/>
<path d="M242.716 113.858H240.994V116.207H235.318V113.858H229.739V116.207H224.063V113.858H218.491V116.207H212.808V113.858H207.236V116.207H201.56V113.858H195.981V116.207H190.305V113.858H184.726V116.207H179.05V113.858H177.142L171.611 158.079L248.433 157.755L242.716 113.858Z" fill="#C1FFFF"/>
<path d="M254.935 145.956H252.58V149.18H244.775V145.956H237.116V149.18H229.312V145.956H221.653V149.18H213.855V145.956H206.196V149.18H198.392V145.956H190.732V149.18H182.928V145.956H175.269V149.18H167.472V145.956H164.847L157.243 206.715L262.801 206.274L254.935 145.956Z" fill="#E8FCFC"/>
<path d="M293.928 199.558C292.302 197.719 290.76 195.839 289.058 194.069C288.907 193.917 288.838 193.828 288.81 193.779C288.252 193.407 287.66 193.104 287.054 192.808C286.944 192.774 286.592 192.629 286.22 192.491C285.538 192.243 284.857 191.968 284.182 191.699C279.897 189.977 276.054 187.98 272.83 184.584C271.06 182.724 269.648 180.548 267.816 178.75C267.774 178.812 267.409 178.619 267.237 178.474C266.693 178.412 265.956 178.302 265.853 178.302C265.116 178.288 264.372 178.316 263.635 178.35C262.581 178.399 261.527 178.481 260.473 178.578C256.368 184.584 251.181 192.788 248.888 193.869C245.34 195.55 212.65 204.18 210.239 203.671C207.828 203.161 195.21 204.18 192.041 204.063C188.873 203.946 183.135 202.541 174.828 198.718C166.521 194.902 161.982 194.875 151.974 191.685C141.966 188.496 135.257 187.284 129.402 192.188C123.547 197.093 107.464 186.74 102.449 185.266C97.4348 183.792 87.8399 175.299 81.2963 179.26C74.7527 183.22 69.3112 185.107 61.1352 192.188C52.9592 199.276 36.738 212.956 36.738 212.956H312.918L309.75 207.411C303.633 207.073 298.054 204.228 293.928 199.558Z" fill="#E8FCFC"/>
<path d="M30.3459 131.849C30.3459 131.849 38.3842 117.405 60.1709 104.903C60.1709 104.903 77.9005 103.395 97.9101 112.115C97.9101 112.115 101.967 118.858 97.359 121.51C92.751 124.169 88.9213 118.824 88.9213 118.824C88.9213 118.824 88.0672 126.966 82.054 127.2C76.0408 127.434 74.2706 121.51 74.2706 121.51C74.2706 121.51 73.6782 128.984 66.5009 130.871C60.2673 132.51 56.3894 127.2 56.3894 127.2C56.3894 127.2 55.1495 133.337 49.5634 135.114C45.0724 136.54 41.9935 132.676 41.9935 132.676C41.9935 132.676 40.7055 139.336 35.939 139.336C31.8406 139.343 30.3459 131.849 30.3459 131.849Z" fill="#C1FFFF"/>
<path d="M172.803 243.82C246.561 243.82 306.354 240.329 306.354 236.023C306.354 231.717 246.561 228.226 172.803 228.226C99.0449 228.226 39.2521 231.717 39.2521 236.023C39.2521 240.329 99.0449 243.82 172.803 243.82Z" fill="#E8FCFC"/>
<path d="M265.095 202.045C265.095 202.045 268.091 197.657 270.819 196.431C273.547 195.205 273.994 190.549 275.468 190.287C276.949 190.025 278.582 194.337 281.171 195.584C283.761 196.837 287.681 202.017 287.681 202.017L265.095 202.045Z" fill="#07AEAF"/>
<path opacity="0.8" d="M265.095 202.045C265.095 202.045 268.091 197.657 270.819 196.431C273.547 195.205 273.994 190.549 275.468 190.287C276.949 190.025 278.582 194.337 281.171 195.584C283.761 196.837 287.681 202.017 287.681 202.017L265.095 202.045Z" fill="white"/>
<path d="M286.882 233.633H265.088L262.333 202.017H289.637L286.882 233.633Z" fill="#07AEAF"/>
<path d="M290.952 200.377H261.01V203.704H290.952V200.377Z" fill="#07AEAF"/>
<path opacity="0.2" d="M290.952 200.377H261.01V203.704H290.952V200.377Z" fill="white"/>
<path d="M274.697 202.719C276.687 205.833 285.173 218.686 290.436 219.615L291.083 218.059C291.083 218.059 286.365 218.624 275.95 201.934C275.744 201.603 275.31 201.479 274.965 201.665C274.587 201.872 274.463 202.354 274.697 202.719Z" fill="#263238"/>
<path d="M243.687 192.746C244.631 192.45 245.63 192.987 245.898 193.938L249.625 206.949L254.467 205.014C254.467 205.014 257.381 215.862 251.877 217.577C246.498 219.251 242.337 209.236 242.337 209.236L247.255 207.872L242.558 195.019C242.22 194.082 242.73 193.042 243.687 192.746Z" fill="#07AEAF"/>
<path opacity="0.4" d="M251.877 217.577C246.498 219.251 242.344 209.236 242.344 209.236L247.262 207.879C247.262 207.879 248.109 209.326 249.06 208.967C250.017 208.602 249.625 206.949 249.625 206.949L254.467 205.014C254.467 205.014 257.38 215.862 251.877 217.577Z" fill="white"/>
<path d="M293.115 236.306C290.408 234.962 287.639 233.695 286.758 233.633C284.85 233.509 283.761 232.662 282.398 231.036C281.034 229.418 280.49 227.544 278.038 224.94C275.585 222.337 278.313 221.29 273.133 220.622C267.954 219.954 269.951 220.374 266.776 218.087C263.593 215.793 264.234 215.793 260.508 214.161C256.781 212.528 258.958 211.901 254.598 211.53C251.588 211.275 246.821 212.859 244.355 214.622C243.26 215.407 242.695 216.702 241.621 217.391C240.402 218.163 238.507 216.73 238.707 219.32C238.762 220.002 238.955 220.691 238.797 221.352C238.445 222.826 232.377 222.826 230.834 223.28C230.476 223.384 230.09 223.521 229.911 223.845C229.56 224.472 230.09 225.581 229.408 225.808C229.195 225.877 228.961 225.801 228.74 225.843C227.921 226.001 228.134 227.475 227.37 227.813C226.639 228.136 225.71 227.461 224.855 227.785C224.194 228.033 223.981 228.915 223.409 229.266C222.41 229.872 221.377 230.32 220.392 230.967C218.684 232.09 217.203 233.461 215.371 234.446L210.467 235.789L208.999 236.306H293.115Z" fill="#07AEAF"/>
<path opacity="0.8" d="M293.115 236.306C290.408 234.962 287.639 233.695 286.758 233.633C284.85 233.509 283.761 232.662 282.398 231.036C281.034 229.418 280.49 227.544 278.038 224.94C275.585 222.337 278.313 221.29 273.133 220.622C267.954 219.954 269.951 220.374 266.776 218.087C263.593 215.793 264.234 215.793 260.508 214.161C256.781 212.528 258.958 211.901 254.598 211.53C251.588 211.275 246.821 212.859 244.355 214.622C243.26 215.407 242.695 216.702 241.621 217.391C240.402 218.163 238.507 216.73 238.707 219.32C238.762 220.002 238.955 220.691 238.797 221.352C238.445 222.826 232.377 222.826 230.834 223.28C230.476 223.384 230.09 223.521 229.911 223.845C229.56 224.472 230.09 225.581 229.408 225.808C229.195 225.877 228.961 225.801 228.74 225.843C227.921 226.001 228.134 227.475 227.37 227.813C226.639 228.136 225.71 227.461 224.855 227.785C224.194 228.033 223.981 228.915 223.409 229.266C222.41 229.872 221.377 230.32 220.392 230.967C218.684 232.09 217.203 233.461 215.371 234.446L210.467 235.789L208.999 236.306H293.115Z" fill="white"/>
<path d="M235.311 223.77C235.311 223.825 235.311 223.866 235.305 223.921V223.928C235.277 226.346 234.568 228.605 233.348 230.506C233.245 230.664 233.142 230.823 233.025 230.981C232.301 232.008 231.427 232.924 230.435 233.688C230.207 233.867 229.973 234.04 229.732 234.191H229.725C229.67 234.232 229.608 234.274 229.553 234.301C229.477 234.356 229.402 234.398 229.326 234.446C229.209 234.529 229.085 234.597 228.961 234.666C228.768 234.777 228.568 234.887 228.368 234.983H228.361C226.681 235.83 224.787 236.306 222.775 236.306C219.207 236.306 215.984 234.811 213.711 232.421C212.87 231.553 212.161 230.561 211.61 229.48C210.728 227.765 210.232 225.822 210.232 223.77V223.728C210.232 223.377 210.246 223.026 210.281 222.681C210.418 221.021 210.887 219.458 211.61 218.053C211.796 217.687 211.996 217.336 212.216 216.999C212.939 215.876 213.835 214.877 214.861 214.037C215.192 213.768 215.529 213.52 215.887 213.293C216.011 213.203 216.142 213.121 216.273 213.045C217.251 212.446 218.312 211.984 219.442 211.674C219.538 211.647 219.634 211.619 219.731 211.599C220.702 211.357 221.721 211.227 222.775 211.227C223.099 211.227 223.416 211.24 223.726 211.268C223.809 211.268 223.884 211.275 223.967 211.282H223.974C225.4 211.419 226.75 211.791 227.996 212.37C228.045 212.391 228.1 212.418 228.155 212.446C229.229 212.955 230.214 213.61 231.096 214.388C233.286 216.337 234.795 219.051 235.201 222.11V222.13C235.277 222.667 235.311 223.212 235.311 223.77Z" fill="#07AEAF"/>
<path opacity="0.6" d="M235.311 223.769C235.311 228.68 232.487 232.937 228.368 234.983C228.361 234.99 228.361 234.983 228.361 234.983C227.866 234.569 227.673 234.136 227.673 234.136C229.987 227.385 227.673 223.769 227.673 223.769L227.68 223.7L227.845 222.619L227.879 222.419C228.237 220.415 229.14 216.661 231.096 214.388C233.679 216.681 235.311 220.036 235.311 223.769Z" fill="white"/>
<path opacity="0.6" d="M213.16 221.599C213.16 221.599 210.962 223.796 211.61 229.479C210.728 227.764 210.232 225.821 210.232 223.769C210.232 219.843 212.037 216.337 214.861 214.036C213.649 216.371 213.008 219.181 213.16 221.599Z" fill="white"/>
<path opacity="0.2" d="M231.096 214.388C228.341 217.584 227.673 223.769 227.673 223.769C220.11 225.622 213.16 221.599 213.16 221.599C213.008 219.182 213.656 216.371 214.861 214.036C217.024 212.28 219.772 211.226 222.775 211.226C225.971 211.226 228.878 212.425 231.096 214.388Z" fill="white"/>
<path opacity="0.2" d="M228.361 234.983C226.681 235.83 224.787 236.305 222.775 236.305C219.207 236.305 215.984 234.811 213.711 232.42C216.06 233.819 220.86 235.775 227.673 234.136C227.673 234.136 227.866 234.569 228.361 234.983Z" fill="white"/>
<g opacity="0.2">
<path opacity="0.2" d="M228.155 212.445C227.824 212.907 227.528 213.382 227.252 213.878C226.743 214.829 226.302 215.814 225.937 216.826C225.551 217.839 225.255 218.879 224.973 219.919C224.704 220.966 224.463 222.027 224.263 223.094C224.325 222.006 224.497 220.931 224.718 219.864C224.945 218.796 225.255 217.742 225.613 216.709C226.013 215.69 226.453 214.684 227.018 213.747C227.321 213.272 227.645 212.804 227.996 212.37C228.045 212.39 228.1 212.418 228.155 212.445Z" fill="black"/>
<path opacity="0.2" d="M223.967 211.281C223.795 211.591 223.636 211.908 223.485 212.225C222.975 213.285 222.569 214.401 222.238 215.538C221.873 216.667 221.597 217.824 221.336 218.982C221.081 220.139 220.854 221.31 220.654 222.481C220.716 221.289 220.874 220.104 221.081 218.927C221.281 217.749 221.57 216.585 221.907 215.441C222.272 214.298 222.679 213.161 223.251 212.101C223.402 211.818 223.561 211.536 223.726 211.267C223.808 211.267 223.884 211.274 223.967 211.281Z" fill="black"/>
<path opacity="0.2" d="M219.731 211.598C219.662 211.784 219.586 211.97 219.517 212.156C219.138 213.175 218.828 214.222 218.587 215.29C218.319 216.35 218.112 217.425 217.912 218.506C217.72 219.588 217.547 220.669 217.389 221.757C217.403 220.655 217.513 219.56 217.658 218.465C217.795 217.37 218.009 216.288 218.257 215.214C218.519 214.139 218.835 213.079 219.269 212.052C219.324 211.928 219.38 211.797 219.442 211.673C219.538 211.646 219.634 211.618 219.731 211.598Z" fill="black"/>
<path opacity="0.2" d="M216.273 213.044C216.039 213.816 215.818 214.587 215.66 215.373C215.46 216.247 215.316 217.136 215.178 218.024C215.047 218.913 214.944 219.808 214.861 220.711C214.806 219.808 214.84 218.899 214.916 217.997C214.999 217.095 215.143 216.192 215.323 215.304C215.481 214.622 215.66 213.954 215.887 213.292C216.011 213.203 216.142 213.12 216.273 213.044Z" fill="black"/>
<path opacity="0.2" d="M231.199 227.95C231.213 229.238 231.089 230.546 230.696 231.786C230.545 232.413 230.269 233.005 230.028 233.598C229.939 233.798 229.835 233.997 229.732 234.19H229.725C229.67 234.232 229.608 234.273 229.553 234.3C229.918 233.46 230.242 232.606 230.442 231.717C230.772 230.491 230.896 229.217 230.855 227.957C230.848 226.689 230.628 225.429 230.276 224.216C229.918 222.997 229.415 221.813 228.761 220.71C229.539 221.737 230.111 222.915 230.524 224.134C230.944 225.36 231.165 226.655 231.199 227.95Z" fill="black"/>
<path opacity="0.2" d="M233.672 227.598L233.638 228.639L233.493 229.672C233.465 229.954 233.41 230.23 233.348 230.505C233.245 230.664 233.142 230.822 233.025 230.98C233.114 230.533 233.211 230.092 233.231 229.637L233.335 228.618L233.355 227.598C233.376 227.254 233.355 226.917 233.328 226.572C233.293 226.235 233.293 225.897 233.231 225.56C233.094 224.203 232.715 222.88 232.219 221.613C231.716 220.345 231.048 219.133 230.194 218.059C231.158 219.044 231.895 220.242 232.46 221.509C233.018 222.784 233.403 224.134 233.576 225.518C233.631 225.863 233.624 226.207 233.651 226.558C233.679 226.903 233.693 227.254 233.672 227.598Z" fill="black"/>
<path opacity="0.2" d="M235.311 223.769C235.311 223.824 235.311 223.866 235.305 223.921C235.291 223.845 235.277 223.762 235.263 223.686C234.974 222.254 234.499 220.869 233.879 219.547C233.252 218.231 232.487 216.964 231.495 215.875C232.577 216.881 233.438 218.114 234.113 219.43C234.554 220.291 234.912 221.186 235.201 222.109V222.13C235.277 222.667 235.311 223.211 235.311 223.769Z" fill="black"/>
<path opacity="0.2" d="M212.547 219.616C211.982 220.236 211.527 220.931 211.135 221.655C210.776 222.323 210.473 223.011 210.232 223.728C210.232 223.377 210.246 223.025 210.281 222.681C210.466 222.281 210.673 221.896 210.907 221.524C211.355 220.807 211.885 220.132 212.547 219.616Z" fill="black"/>
<path opacity="0.2" d="M213.139 216.282C212.616 216.874 212.106 217.46 211.61 218.052C211.796 217.687 211.996 217.336 212.216 216.998C212.512 216.743 212.815 216.502 213.139 216.282Z" fill="black"/>
<path opacity="0.2" d="M213.139 224.258C214.282 224.698 215.447 225.084 216.617 225.429C217.788 225.759 218.966 226.083 220.172 226.276C222.555 226.717 225.028 226.841 227.404 226.186C226.261 226.648 225.028 226.854 223.795 226.909C222.555 226.958 221.329 226.806 220.11 226.613C218.897 226.386 217.706 226.069 216.542 225.676C215.371 225.277 214.227 224.829 213.139 224.258Z" fill="black"/>
<path opacity="0.2" d="M213.139 227.254C214.296 227.715 215.474 228.101 216.673 228.411C217.871 228.721 219.083 228.969 220.309 229.107C221.529 229.286 222.768 229.32 224.001 229.279L224.924 229.238L225.847 229.127C226.467 229.086 227.067 228.907 227.68 228.817C226.495 229.183 225.269 229.472 224.015 229.548C222.768 229.637 221.508 229.603 220.268 229.451C219.028 229.279 217.802 229.031 216.604 228.666C215.405 228.294 214.234 227.846 213.139 227.254Z" fill="black"/>
<path opacity="0.2" d="M213.435 229.844C214.524 230.361 215.646 230.774 216.797 231.098C217.94 231.429 219.111 231.677 220.296 231.801C220.881 231.897 221.48 231.911 222.073 231.952C222.665 231.945 223.264 231.966 223.857 231.918C225.048 231.883 226.226 231.642 227.404 231.408C226.268 231.787 225.09 232.09 223.877 232.186C222.672 232.317 221.453 232.283 220.254 232.145C219.056 231.987 217.864 231.739 216.721 231.353C215.57 230.96 214.455 230.478 213.435 229.844Z" fill="black"/>
<path opacity="0.2" d="M213.959 231.793C214.985 232.268 216.046 232.661 217.12 232.971C218.202 233.281 219.297 233.522 220.413 233.646C221.522 233.811 222.644 233.825 223.76 233.756L224.601 233.694L225.434 233.557C225.999 233.495 226.529 233.309 227.087 233.198C226.033 233.591 224.924 233.922 223.788 234.018C222.658 234.149 221.508 234.128 220.371 233.99C219.242 233.832 218.126 233.591 217.045 233.226C215.963 232.854 214.916 232.399 213.959 231.793Z" fill="black"/>
</g>
<path d="M78.9819 204.063C78.9819 204.063 81.434 200.385 85.7941 200.109C90.1542 199.834 93.8324 205.399 93.8324 205.399H92.4479C92.4479 205.399 88.9281 201.611 86.4071 201.611C83.8861 201.611 81.434 204.745 81.434 204.745L78.9819 204.063Z" fill="#263238"/>
<path d="M41.9866 233.143C43.4951 230.629 60.3913 232.262 64.2072 230.76L66.2529 234.308C66.2529 234.308 63.3393 235.926 58.504 235.355C53.6686 234.783 46.3605 234.631 44.4525 236.312L41.9866 233.143Z" fill="#263238"/>
<path opacity="0.3" d="M41.9866 233.143C43.4951 230.629 60.3913 232.262 64.2072 230.76L66.2529 234.308C66.2529 234.308 63.3393 235.926 58.504 235.355C53.6686 234.783 46.3605 234.631 44.4525 236.312L41.9866 233.143Z" fill="black"/>
<path d="M113.153 225.478C113.015 226.077 112.864 226.663 112.692 227.234C111.335 231.925 109.193 235.72 107.65 236.306H63.849C62.6092 236.306 61.4658 235.727 60.7288 234.777C60.7219 234.763 60.7081 234.749 60.6943 234.728C60.5359 234.522 60.3981 234.301 60.2879 234.06C57.2641 227.744 54.2127 215.111 58.5039 209.353C58.9517 208.754 59.4683 208.21 60.0468 207.727C60.0882 207.693 60.1295 207.659 60.1708 207.631C61.0456 206.901 62.0581 206.302 63.1602 205.806C63.1671 205.806 63.1671 205.799 63.174 205.799C63.1809 205.799 63.1878 205.792 63.1947 205.792C66.2116 204.428 69.9173 203.801 73.5542 203.533C74.608 203.45 75.655 203.402 76.6813 203.381C79.3676 203.305 81.8748 203.374 83.8723 203.429C90.9119 203.608 96.4498 205.702 100.224 205.337C101.719 205.193 103.083 205.31 104.385 205.668C104.77 205.778 105.149 205.902 105.528 206.054C107.105 206.674 108.628 207.652 110.267 208.967C114.524 212.384 114.586 219.403 113.153 225.478Z" fill="#263238"/>
<path opacity="0.1" d="M113.153 225.478C113.015 226.077 112.864 226.663 112.692 227.234C111.335 231.925 109.193 235.72 107.65 236.306H63.849C62.6092 236.306 61.4658 235.727 60.7288 234.777C60.7219 234.763 60.7081 234.749 60.6943 234.728C60.5359 234.522 60.3981 234.301 60.2879 234.06C57.2641 227.744 54.2127 215.111 58.5039 209.353C58.9517 208.754 59.4683 208.21 60.0468 207.727C60.0882 207.693 60.1295 207.659 60.1708 207.631C61.0456 206.901 62.0581 206.302 63.1602 205.806C63.1671 205.806 63.1671 205.799 63.174 205.799C63.1809 205.799 63.1878 205.792 63.1947 205.792C66.2116 204.428 69.9173 203.801 73.5542 203.533C74.608 203.45 75.655 203.402 76.6813 203.381C79.3676 203.305 81.8748 203.374 83.8723 203.429C90.9119 203.608 96.4498 205.702 100.224 205.337C101.719 205.193 103.083 205.31 104.385 205.668C104.77 205.778 105.149 205.902 105.528 206.054C107.105 206.674 108.628 207.652 110.267 208.967C114.524 212.384 114.586 219.403 113.153 225.478Z" fill="white"/>
<path opacity="0.2" d="M106.444 225.043C103.31 225.043 97.0422 226.537 87.7778 224.499C81.7578 223.169 77.1359 223.796 74.6287 224.402C74.5323 223.004 74.4152 221.488 74.2912 219.822C73.4715 208.629 67.0864 203.931 63.1947 205.791C63.1878 205.791 63.1809 205.798 63.174 205.798C63.1671 205.798 63.1671 205.805 63.1602 205.805C62.0237 206.356 61.0318 206.969 60.1708 207.63C60.1295 207.657 60.0882 207.692 60.0469 207.726C59.4683 208.208 58.9517 208.753 58.504 209.352C54.2127 215.11 57.2641 227.743 60.2879 234.059C60.3982 234.3 60.5359 234.521 60.6943 234.727C60.7081 234.748 60.7219 234.762 60.7288 234.775C61.4796 235.623 62.5541 236.119 63.7044 236.119H71.5636C74.7665 236.119 75.1453 233.184 74.7871 226.882C75.3313 226.572 75.9925 226.165 76.7433 225.683C78.6926 224.416 86.2763 225.043 89.5481 226.269C92.8198 227.495 101.402 228.039 105.556 227.364C108.442 226.896 111.245 227.075 112.692 227.233C112.864 226.661 113.015 226.076 113.153 225.477C111.72 225.325 108.738 225.043 106.444 225.043Z" fill="black"/>
<path opacity="0.2" d="M77.9694 209.235C79.8773 216.185 81.1861 218.637 81.6889 219.319C82.1917 220.001 96.0641 221.647 98.6677 221.64C101.264 221.633 105.721 221.241 107.65 220.759C109.42 220.311 109.992 211.398 105.528 206.053C105.149 205.901 104.77 205.777 104.385 205.667C106.816 211.122 106.871 217.804 106.582 218.734C106.169 220.056 102.084 219.863 100.176 219.822C98.2682 219.788 86.414 219.044 85.188 218.561C83.955 218.072 83.28 217.411 82.3295 216.185C81.372 214.959 81.2412 210.737 79.5123 207.093C78.8855 205.784 77.8041 204.496 76.6813 203.38C75.655 203.401 74.608 203.449 73.5542 203.532C75.3519 204.544 77.1566 206.273 77.9694 209.235Z" fill="black"/>
<path d="M64.2072 215.634L60.3913 216.592C60.3913 216.592 57.6843 224.354 59.303 227.626C60.9216 230.898 48.2547 235.403 41.9866 233.137L44.4525 236.298C44.4525 236.298 59.4407 235.355 62.2992 229.651C65.1577 223.948 61.0732 223.066 60.7977 221.461C60.529 219.863 64.2072 215.634 64.2072 215.634Z" fill="#263238"/>
<path opacity="0.1" d="M64.2072 215.634L60.3913 216.592C60.3913 216.592 57.6843 224.354 59.303 227.626C60.9216 230.898 48.2547 235.403 41.9866 233.137L44.4525 236.298C44.4525 236.298 59.4407 235.355 62.2992 229.651C65.1577 223.948 61.0732 223.066 60.7977 221.461C60.529 219.863 64.2072 215.634 64.2072 215.634Z" fill="white"/>
<path d="M97.9101 55.4064C97.9101 55.4064 83.1698 47.1615 80.1184 45.0193C77.0671 42.8841 60.7426 26.8695 59.8333 26.408C59.8333 26.408 60.4464 24.5758 59.0688 23.5082C57.6981 22.4405 52.3599 18.9346 51.5953 18.9346C50.8308 18.9346 48.847 26.408 49.157 28.2402C49.4601 30.0724 56.9335 30.527 56.9335 30.527C56.9335 30.527 72.4934 48.6424 74.9318 51.1772C77.3701 53.712 93.9977 64.5398 93.9977 64.5398L97.9101 55.4064Z" fill="#FFBE9D"/>
<path d="M103.958 56.915C103.958 56.915 107.188 63.4448 99.3428 73.7974L82.0471 61.0822L88.9488 48.5806L103.958 56.915Z" fill="#07AEAF"/>
<path opacity="0.6" d="M99.3428 73.7974L91.1736 67.7911L90.106 67.0059L85.4979 63.6239L82.0471 61.0822L84.5887 56.488L86.0283 53.8774L88.9557 48.5806L91.7798 50.151L94.2181 51.5011L103.958 56.915C103.958 56.915 104.371 57.7485 104.543 59.2914C104.853 62.0672 104.385 67.1368 99.3428 73.7974Z" fill="white"/>
<path opacity="0.2" d="M99.3428 73.7971L91.1736 67.7908C93.977 61.9911 101.23 59.9454 104.543 59.291C104.853 62.0669 104.385 67.1364 99.3428 73.7971Z" fill="black"/>
<g opacity="0.2">
<path opacity="0.2" d="M94.2181 51.5009L91.7798 52.9198V50.1509L94.2181 51.5009Z" fill="white"/>
<path opacity="0.2" d="M88.9144 54.7315L85.8561 59.0228L84.5887 56.488L86.0283 53.8774L88.9144 54.7315Z" fill="white"/>
<path opacity="0.2" d="M91.1736 61.1855L90.106 67.0059L85.4979 63.6239L91.1736 61.1855Z" fill="white"/>
<path opacity="0.2" d="M93.2882 57.8656L94.9896 62.2257L98.5231 57.4248L93.2882 57.8656Z" fill="white"/>
</g>
<path d="M136.104 53.8292C136.104 53.8292 150.844 45.5774 153.896 43.4422C156.947 41.3069 173.271 25.2924 174.181 24.8309C174.181 24.8309 173.568 22.9987 174.945 21.931C176.316 20.8634 181.654 17.3574 182.419 17.3574C183.183 17.3574 185.167 24.8309 184.857 26.6631C184.554 28.4953 177.08 28.9499 177.08 28.9499C177.08 28.9499 161.521 47.0653 159.082 49.6C156.644 52.1348 140.016 62.9627 140.016 62.9627L136.104 53.8292Z" fill="#FFBE9D"/>
<path d="M118.491 141.113C118.491 141.113 118.174 146.327 117.672 153.271C117.355 157.596 116.962 162.59 116.535 167.418C115.957 173.907 115.302 180.092 114.648 183.936C114.049 187.469 106.093 231.353 106.093 231.353H100.762C102.442 190.431 105.046 174.561 105.142 172.178C105.177 171.4 105.204 170.318 105.239 169.03C105.342 164.36 105.432 156.983 105.487 151.617C105.528 147.746 105.549 144.929 105.549 144.929L118.491 141.113Z" fill="#FFBE9D"/>
<path d="M139.066 174.224C138.88 177.799 136.751 231.174 136.751 231.174H130.89C127.893 188.661 129.03 173.9 128.493 170.952C128.493 170.939 128.486 170.932 128.486 170.918C127.57 165.903 126.709 159.312 126.116 154.421C125.641 150.488 125.345 147.657 125.345 147.657L137.295 142.491C137.295 142.491 138.019 148.663 138.563 156.116C138.832 159.835 139.066 163.878 139.135 167.639C139.183 169.995 139.169 172.24 139.066 174.224Z" fill="#FFBE9D"/>
<path opacity="0.2" d="M105.487 151.618L117.672 153.271C117.355 157.596 116.962 162.59 116.535 167.419L105.239 169.03C105.342 164.36 105.432 156.983 105.487 151.618Z" fill="black"/>
<path opacity="0.2" d="M139.135 167.639L128.486 170.918C127.57 165.904 126.709 159.312 126.116 154.421L138.563 156.116C138.831 159.835 139.066 163.879 139.135 167.639Z" fill="black"/>
<path d="M107.353 229.714H100.321C100.087 229.714 99.88 229.879 99.8249 230.113L98.6815 235.265C98.5851 235.727 98.8813 236.181 99.3428 236.278C99.4048 236.292 99.4667 236.299 99.5287 236.299C101.802 236.264 103.462 236.119 106.32 236.119C108.077 236.119 113.387 236.305 115.819 236.305C118.25 236.305 118.567 233.908 117.568 233.681C113.105 232.71 109.751 231.36 108.318 230.079C108.063 229.838 107.712 229.707 107.353 229.714Z" fill="#07AEAF"/>
<path d="M137.178 229.534H130.146C129.912 229.534 129.705 229.7 129.65 229.934L128.506 235.086C128.41 235.548 128.706 236.002 129.168 236.099C129.23 236.112 129.292 236.119 129.354 236.119C131.627 236.085 133.287 235.94 136.145 235.94C137.902 235.94 143.212 236.126 145.644 236.126C148.075 236.126 148.392 233.729 147.393 233.502C142.93 232.531 139.575 231.181 138.143 229.9C137.881 229.658 137.537 229.528 137.178 229.534Z" fill="#07AEAF"/>
<path d="M118.974 164.409C119.029 163.94 119.084 163.444 119.139 162.9C119.855 155.847 120.585 147.382 121.233 139.219C123.616 145.618 124.635 154.607 125.875 164.409H140.347C139.155 139.033 136.014 118.404 134.347 109.601H103.627C103.593 112.756 103.241 143.352 102.449 164.409H118.974Z" fill="#263238"/>
<path opacity="0.2" d="M118.974 164.409C119.029 163.94 119.084 163.444 119.139 162.9C119.855 155.847 120.585 147.382 121.233 139.219C123.616 145.618 124.635 154.607 125.875 164.409H140.347C139.155 139.033 136.014 118.404 134.347 109.601H103.627C103.593 112.756 103.241 143.352 102.449 164.409H118.974Z" fill="white"/>
<path d="M123.189 46.7757C123.12 47.0581 123.037 47.3336 122.941 47.5954C122.376 49.1865 121.35 50.4952 120.076 51.4113C119.745 51.6524 119.394 51.8728 119.029 52.0588C117.107 53.0507 114.82 53.2366 112.761 52.3343C111.913 51.9761 111.101 51.4251 110.364 50.6812C107.464 47.7538 107.539 44.3718 107.216 38.6479C107.126 37.415 107.319 36.182 107.801 35.0455C109.461 31.0436 114.055 29.1563 118.051 30.8163C123.657 33.1031 124.429 41.6235 123.189 46.7757Z" fill="#E4897B"/>
<path opacity="0.2" d="M120.076 51.4116C119.745 51.6527 119.394 51.8731 119.029 52.0591C117.107 53.0509 114.82 53.2369 112.761 52.3346C113.16 51.2256 113.787 50.3922 113.787 50.3922C113.787 50.3922 117.196 49.8687 120.076 51.4116Z" fill="black"/>
<path d="M108.552 58.8365C111.369 61.3989 118.285 60.4483 118.285 60.4483C118.285 60.4483 122.597 59.2705 121.694 57.9204C119.153 57.5003 117.927 56.3155 117.417 54.8002C117.121 53.9185 117.079 52.9197 117.162 51.9003C117.196 51.3631 117.279 50.8189 117.375 50.2817L108.834 43.9585C109.943 48.1326 111.314 55.8127 108.552 58.8365Z" fill="#E4897B"/>
<path d="M120.076 41.5687L121.309 42.0371L120.689 39.5092C120.689 39.5092 122.5 36.7885 120.689 34.3639C120.689 34.3639 125.675 32.8485 122.858 30.2173C121.811 29.2392 120.51 30.2173 117.066 28.7158C115.199 27.903 109.358 27.841 109.069 30.2173C109.069 30.2173 104.86 30.1898 104.405 37.3739C103.951 44.5581 108.862 48.6978 108.862 48.6978C108.862 48.6978 113.938 49.9032 116.411 47.8643C118.884 45.8186 120.076 41.5687 120.076 41.5687Z" fill="#263238"/>
<path d="M116.824 41.9747C117.169 43.2215 117.851 44.1376 118.732 44.5164C119.896 45.0123 120.661 43.3661 120.496 41.6441C120.337 40.1219 119.545 37.9728 118.298 38.2552C117.045 38.5445 116.418 40.4318 116.824 41.9747Z" fill="#E4897B"/>
<path opacity="0.2" d="M121.233 139.192C120.585 147.347 119.855 155.833 119.139 162.886C118.092 152.706 116.811 145.439 116.811 145.439C116.811 145.439 115.612 144.454 112.313 139.185C109.013 133.916 112.313 124.093 112.313 124.093C112.209 133.227 121.233 139.192 121.233 139.192Z" fill="black"/>
<path d="M141.38 163.217L140.746 165.607H125.345V163.396L141.38 163.217Z" fill="#07AEAF"/>
<path d="M119.717 163.547L119.263 165.758H101.816L100.762 163.547H119.717Z" fill="#07AEAF"/>
<path d="M121.866 57.1766C121.866 57.1766 119.359 53.2161 113.043 52.9268C106.727 52.6444 106.245 56.9907 106.245 56.9907L121.866 57.1766Z" fill="#07AEAF"/>
<path opacity="0.5" d="M121.866 57.1766C121.866 57.1766 119.359 53.2161 113.043 52.9268C106.727 52.6444 106.245 56.9907 106.245 56.9907L121.866 57.1766Z" fill="white"/>
<path d="M99.1843 54.731C99.1843 54.731 102.442 84.1495 98.5231 119.154L135.532 116.895C135.112 79.1213 130.056 55.3371 130.056 55.3371C130.056 55.3371 120.51 57.3346 112.754 57.0453C105.452 56.7767 99.1843 54.731 99.1843 54.731Z" fill="#07AEAF"/>
<path d="M130.056 55.3376C130.056 55.3376 135.002 66.8957 135.532 78.5914C136.069 90.2941 115.44 106.329 115.44 106.329C115.44 106.329 99.5494 95.3912 87.2888 96.3831C75.0282 97.3749 71.2123 101.735 71.2123 101.735C71.2123 101.735 80.7521 81.3397 97.3521 74.2314C97.3521 74.2314 93.9081 62.4874 99.1843 54.7246C99.1843 54.7315 110.66 58.4648 130.056 55.3376Z" fill="#07AEAF"/>
<path opacity="0.6" d="M135.533 78.5914C135.546 78.9151 135.546 79.2457 135.526 79.5833C135.498 80.0861 135.436 80.5958 135.34 81.1055C135.14 82.242 134.775 83.4061 134.286 84.577V84.5839C133.018 87.6078 130.925 90.6867 128.583 93.5452C127.412 94.9779 126.172 96.3555 124.946 97.6366C120.117 102.706 115.447 106.336 115.447 106.336C115.447 106.336 109.565 102.286 102.202 99.3449C100.79 98.78 99.3225 98.2497 97.8278 97.802H97.8209C94.3081 96.7481 90.6643 96.1144 87.2961 96.3899C82.9911 96.7412 79.7262 97.4989 77.3017 98.3461C76.7437 98.539 76.2271 98.7456 75.7519 98.9454C75.6072 99.0073 75.4626 99.0693 75.3248 99.1313C73.9954 99.7237 73.0311 100.309 72.3768 100.778C72.2734 100.846 72.177 100.922 72.0875 100.991C71.9084 101.122 71.7637 101.239 71.6397 101.349C71.5778 101.397 71.5227 101.446 71.4744 101.494C71.4262 101.528 71.3918 101.57 71.3573 101.604C71.3229 101.639 71.2954 101.666 71.2747 101.687L71.2265 101.735C71.2402 101.701 71.3091 101.556 71.4331 101.308C71.4882 101.205 71.5502 101.074 71.626 100.929C71.8188 100.543 72.0875 100.027 72.4388 99.4C72.487 99.3104 72.5352 99.2209 72.5903 99.1244C72.6729 98.9729 72.7625 98.8145 72.8589 98.6492C72.9485 98.4839 73.0449 98.3117 73.1482 98.1395C73.5477 97.4369 74.0161 96.6517 74.5465 95.8044C76.7988 92.1951 80.1671 87.47 84.534 83.1719L84.5409 83.165C85.8841 81.8356 87.3099 80.5614 88.839 79.3697C91.422 77.3447 94.2668 75.5607 97.3526 74.2382C97.3526 74.2382 96.1265 70.0572 96.2643 65.029C96.2849 64.0715 96.3607 63.0797 96.5053 62.0878C96.8635 59.553 97.6625 56.9769 99.1848 54.7314C99.1848 54.7314 100.983 55.3169 104.351 55.8266C106.197 56.109 108.511 56.3639 111.259 56.4948C115.082 56.6808 119.745 56.6119 125.159 56.0057C126.73 55.8335 128.362 55.6131 130.057 55.3376C130.057 55.3376 130.112 55.4685 130.215 55.7233C130.642 56.7772 131.875 59.9319 133.046 64.1335C133.349 65.2287 133.652 66.3997 133.941 67.6257C134.203 68.7622 134.451 69.947 134.672 71.1662V71.173C135.099 73.5632 135.416 76.0704 135.533 78.5914Z" fill="white"/>
<g opacity="0.2">
<path opacity="0.2" d="M130.759 87.98L128.582 93.5455C127.411 94.9782 126.171 96.3558 124.945 97.6369L120.516 89.3438L130.759 87.98Z" fill="white"/>
<path opacity="0.2" d="M93.2882 82.6626L84.5405 83.1654C85.8837 81.836 87.3095 80.5617 88.8386 79.3701L93.2882 82.6626Z" fill="white"/>
<path opacity="0.2" d="M103.379 60.6284L102.442 69.7205L96.2638 65.0298C96.2845 64.0724 96.3603 63.0805 96.5049 62.0887L103.379 60.6284Z" fill="white"/>
<path opacity="0.2" d="M106.245 84.584L103.379 75.8501L112.092 74.2383L106.245 84.584Z" fill="white"/>
<path opacity="0.2" d="M121.233 76.2637V82.8004L127.487 80.5549L121.233 76.2637Z" fill="white"/>
<path opacity="0.2" d="M105.142 95.1987L102.201 99.3453C100.789 98.7804 99.3221 98.2501 97.8274 97.8024H97.8205L95.6026 92.7466L105.142 95.1987Z" fill="white"/>
<path opacity="0.2" d="M82.7979 88.9307L87.2957 90.8386L82.7979 93.9038V88.9307Z" fill="white"/>
<path opacity="0.2" d="M77.3012 98.3464C72.8241 99.9099 71.2192 101.742 71.2192 101.742C71.2192 101.742 72.3626 99.2969 74.5461 95.8047L77.3012 98.3464Z" fill="white"/>
<path opacity="0.2" d="M114.055 89.8877L110.184 93.9034L116.039 94.9297L114.055 89.8877Z" fill="white"/>
<path opacity="0.2" d="M114.055 64.6775L118.608 70.8078L121.866 63.8647L114.055 64.6775Z" fill="white"/>
<path opacity="0.2" d="M134.671 71.1669L128.851 67.3372L133.046 64.1343C133.638 66.2558 134.217 68.6459 134.671 71.1669Z" fill="white"/>
<path opacity="0.2" d="M135.525 79.5838C135.443 81.1955 134.995 82.8762 134.285 84.5775L131.847 78.5781L135.525 79.5838Z" fill="white"/>
<path opacity="0.2" d="M130.215 55.7236L126.53 59.5051L125.159 56.006C126.729 55.8338 128.362 55.6134 130.056 55.3379C130.056 55.3379 130.111 55.4688 130.215 55.7236Z" fill="white"/>
<path opacity="0.2" d="M111.259 56.4948L108.552 62.2256L104.35 55.8267C106.196 56.1091 108.511 56.3639 111.259 56.4948Z" fill="white"/>
</g>
<path opacity="0.2" d="M135.532 78.5915C135.546 78.9152 135.546 79.2459 135.525 79.5834C135.498 80.0862 135.436 80.5959 135.339 81.1056C130.532 73.46 131.661 66.5444 131.661 66.5444L133.941 67.6258C134.203 68.7624 134.451 69.9471 134.671 71.1663V71.1732C135.098 73.5633 135.415 76.0705 135.532 78.5915Z" fill="black"/>
<path d="M115.998 24.8999C124.174 22.0827 126.227 32.9726 118.106 40.3358C109.985 47.6991 100.658 48.5807 99.6045 44.8681C98.5438 41.1555 103.517 29.1911 115.998 24.8999Z" fill="#07AEAF"/>
<path d="M107.801 24.3487C111.996 24.3349 117.954 28.6192 117.954 28.6192C117.954 28.6192 118.808 33.1584 114.627 37.1603C110.446 41.1553 106.685 41.7959 104.343 40.2461C102.002 38.7032 101.368 32.6831 101.368 32.6831C101.368 32.6831 101.967 30.3412 104.343 29.618C104.35 29.618 105.039 24.3624 107.801 24.3487Z" fill="#07AEAF"/>
<path opacity="0.2" d="M114.634 37.1602C110.453 41.1552 106.692 41.7889 104.35 40.246C103.965 39.9911 103.627 39.6192 103.331 39.1715C101.816 36.8915 101.375 32.683 101.375 32.683C105.37 37.477 109.998 32.5246 110.639 29.1632C110.997 27.2553 110.508 25.5539 109.571 24.5552C112.32 25.1475 115.344 26.9109 116.9 27.9096C117.561 28.3298 117.961 28.6191 117.961 28.6191C117.961 28.6191 118.815 33.1651 114.634 37.1602Z" fill="black"/>
<path opacity="0.6" d="M114.634 37.1602C110.453 41.1552 106.692 41.7889 104.35 40.246C103.965 39.9912 103.627 39.6192 103.331 39.1715C107.519 40.4182 112.506 38.3449 115.185 34.6186C116.942 32.1733 117.134 29.7281 116.9 27.9097C117.561 28.3298 117.961 28.6191 117.961 28.6191C117.961 28.6191 118.815 33.1652 114.634 37.1602Z" fill="white"/>
<path d="M130.056 55.3379C130.056 55.3379 126.826 61.8677 134.671 72.2203L151.967 59.5051L145.065 47.0034L130.056 55.3379Z" fill="#07AEAF"/>
<path opacity="0.6" d="M151.967 59.5051L147.455 62.8182L140.781 67.7293L134.671 72.2203C134.272 71.6968 133.907 71.1802 133.562 70.6774C132.805 69.5615 132.178 68.4939 131.661 67.4814C129.898 64.0374 129.409 61.2133 129.395 59.1607C129.381 56.6948 130.056 55.3379 130.056 55.3379L133.9 53.2026L140.519 49.5313L143.426 47.9126L145.065 47.0034L151.967 59.5051Z" fill="white"/>
<g opacity="0.2">
<path opacity="0.2" d="M147.455 62.818L140.781 67.7291L137.84 61.1855L147.455 62.818Z" fill="white"/>
<path opacity="0.2" d="M146.835 52.2929L140.677 54.7312L140.519 49.5308L143.426 47.9121L146.835 52.2929Z" fill="white"/>
<path opacity="0.2" d="M136.104 57.4176L129.395 59.1602C129.381 56.6943 130.056 55.3374 130.056 55.3374L133.9 53.2021L136.104 57.4176Z" fill="white"/>
<path opacity="0.2" d="M134.671 65.7725L133.562 70.6767C132.805 69.5608 132.178 68.4932 131.661 67.4807L134.671 65.7725Z" fill="white"/>
</g>
<path d="M167.689 171.126L176.293 171.8L179.645 129.014L171.041 128.34L167.689 171.126Z" stroke="#263238" stroke-width="3" stroke-miterlimit="10"/>
<path d="M169.889 230.72C170.124 230.741 171.019 230.81 171.26 230.83C172.796 230.947 173.953 232.242 173.829 233.785C173.712 235.321 172.369 236.423 170.833 236.299C170.599 236.279 169.703 236.21 169.462 236.189C167.926 236.072 166.769 234.777 166.893 233.234C167.01 231.698 168.353 230.603 169.889 230.72Z" fill="#263238"/>
<path opacity="0.1" d="M166.894 233.185C166.776 234.721 167.92 236.064 169.463 236.188C170.999 236.306 172.342 235.162 172.466 233.619C172.59 232.083 171.44 230.74 169.897 230.616C168.361 230.499 167.017 231.649 166.894 233.185Z" fill="white"/>
<path d="M162.368 230.133C162.602 230.154 163.497 230.223 163.738 230.243C165.274 230.361 166.432 231.656 166.308 233.198C166.191 234.734 164.847 235.837 163.311 235.713C163.077 235.692 162.182 235.623 161.941 235.602C160.405 235.485 159.247 234.19 159.371 232.647C159.489 231.111 160.832 230.009 162.368 230.133Z" fill="#263238"/>
<path opacity="0.2" d="M159.372 232.6C159.255 234.136 160.398 235.479 161.941 235.603C163.477 235.72 164.82 234.577 164.944 233.034C165.061 231.498 163.918 230.155 162.375 230.031C160.839 229.914 159.496 231.057 159.372 232.6Z" fill="white"/>
<path d="M161.114 230.96L171.77 231.794C172.789 231.877 173.685 231.112 173.767 230.086L178.844 165.318C178.926 164.299 178.162 163.403 177.136 163.321L166.48 162.487C165.46 162.404 164.565 163.169 164.482 164.195L159.406 228.963C159.33 229.982 160.095 230.878 161.114 230.96Z" fill="#263238"/>
<path opacity="0.2" d="M166.432 231.374L171.77 231.794C172.789 231.876 173.685 231.112 173.767 230.085L178.844 165.318C178.926 164.298 178.162 163.403 177.136 163.32L171.797 162.9C170.778 162.818 169.883 163.582 169.8 164.608L164.723 229.376C164.648 230.402 165.405 231.291 166.432 231.374Z" fill="white"/>
<path d="M170.826 129.604L179.787 130.307C180.545 130.369 181.206 129.797 181.268 129.039L181.337 128.199C181.399 127.441 180.828 126.78 180.07 126.718L171.109 126.015C170.351 125.953 169.69 126.525 169.628 127.283L169.559 128.123C169.504 128.881 170.069 129.549 170.826 129.604Z" fill="#263238"/>
<path opacity="0.2" d="M170.826 129.604L179.787 130.307C180.545 130.369 181.206 129.797 181.268 129.039L181.337 128.199C181.399 127.441 180.828 126.78 180.07 126.718L171.109 126.015C170.351 125.953 169.69 126.525 169.628 127.283L169.559 128.123C169.504 128.881 170.069 129.549 170.826 129.604Z" fill="white"/>
<path opacity="0.2" d="M170.826 129.604L171.577 129.666C172.335 129.728 172.996 129.156 173.058 128.399L173.127 127.558C173.189 126.801 172.617 126.139 171.859 126.077L171.109 126.015C170.351 125.953 169.69 126.525 169.628 127.283L169.559 128.123C169.504 128.881 170.069 129.549 170.826 129.604Z" fill="black"/>
<path d="M198.66 170.174L194.073 228.695C193.908 230.844 192.02 232.455 189.871 232.29L168.491 230.616C166.983 230.499 165.853 229.17 165.977 227.661L170.744 166.827C170.861 165.311 172.183 164.182 173.692 164.299L195.072 165.973C197.214 166.138 198.826 168.025 198.66 170.174Z" fill="#07AEAF"/>
<path opacity="0.2" d="M198.66 170.174L194.073 228.695C193.908 230.844 192.02 232.455 189.871 232.29L168.491 230.616C166.983 230.499 165.853 229.17 165.977 227.661L170.744 166.827C170.861 165.311 172.183 164.182 173.692 164.299L195.072 165.973C197.214 166.138 198.826 168.025 198.66 170.174Z" fill="white"/>
<path opacity="0.2" d="M183.975 165.105L183.968 165.187L183.204 165.125C181.695 165.008 180.38 166.138 180.256 167.653L175.489 228.502C175.393 229.783 176.199 230.926 177.37 231.312L168.491 230.616C166.99 230.499 165.853 229.17 165.97 227.668L170.737 166.827C170.861 165.305 172.176 164.182 173.685 164.299L183.975 165.105Z" fill="black"/>
<path opacity="0.2" d="M179.009 228.391L178.692 228.364C178.279 228.329 177.969 227.971 178.003 227.558L182.673 167.901C182.708 167.488 183.066 167.178 183.479 167.212L183.796 167.24C184.21 167.274 184.519 167.632 184.485 168.046L179.815 227.702C179.781 228.116 179.422 228.419 179.009 228.391Z" fill="black"/>
<path opacity="0.2" d="M183.28 229.025L182.963 228.997C182.549 228.963 182.24 228.605 182.274 228.191L186.944 168.535C186.978 168.121 187.337 167.811 187.75 167.846L188.067 167.873C188.48 167.908 188.79 168.266 188.756 168.679L184.086 228.336C184.051 228.749 183.693 229.052 183.28 229.025Z" fill="black"/>
<path opacity="0.2" d="M187.55 229.273L187.233 229.245C186.82 229.211 186.51 228.853 186.545 228.439L191.215 168.783C191.249 168.369 191.607 168.059 192.021 168.094L192.337 168.121C192.751 168.156 193.061 168.514 193.026 168.927L188.356 228.584C188.329 228.997 187.963 229.307 187.55 229.273Z" fill="black"/>
<path opacity="0.2" d="M191.828 229.521L191.511 229.493C191.097 229.459 190.788 229.101 190.822 228.687L195.492 169.031C195.526 168.617 195.885 168.308 196.298 168.342L196.615 168.37C197.028 168.404 197.338 168.762 197.304 169.175L192.634 228.832C192.599 229.245 192.241 229.555 191.828 229.521Z" fill="black"/>
</svg>
