<svg width="364" height="259" viewBox="0 0 364 259" fill="none" xmlns="http://www.w3.org/2000/svg">
<path d="M364 225.387H0V225.569H364V225.387Z" fill="#D1E3FF"/>
<path d="M277.419 230.92H264.424V231.102H277.419V230.92Z" fill="#D1E3FF"/>
<path d="M317.015 230.833H285.296V231.015H317.015V230.833Z" fill="#D1E3FF"/>
<path d="M225.44 234.021H178.142V234.203H225.44V234.021Z" fill="#D1E3FF"/>
<path d="M173.948 234.021H165.78V234.203H173.948V234.021Z" fill="#D1E3FF"/>
<path d="M99.5759 230.65H68.9999V230.832H99.5759V230.65Z" fill="#D1E3FF"/>
<path d="M125.325 230.65H103.616V230.832H125.325V230.65Z" fill="#D1E3FF"/>
<path d="M74.62 233.934H48.6959V234.116H74.62V233.934Z" fill="#D1E3FF"/>
<path d="M207.793 14.267C204.138 6.36821 207.036 0.748047 215.968 0.748047C221.567 0.748047 228.512 2.96117 235.282 6.56477C236.047 4.51181 238.202 3.28148 241.66 3.28148C247.753 3.28148 256.154 7.08165 262.742 12.447C264.337 11.2531 266.645 10.5178 269.608 10.4013C275.439 10.1611 282.5 12.3451 288.645 15.8977C289.176 15.3008 290.086 14.9295 291.346 14.8713C294.709 14.7329 299.252 16.9388 301.516 19.7925C301.654 19.9745 301.778 20.142 301.909 20.3167H294.927H289.373H270.081H260.588H253.206H241.842H239.781H211.579H203.258C200.142 17.5212 203.585 14.4053 207.793 14.267Z" fill="#C1FFFF"/>
<path d="M51.506 48.5921C51.8628 48.5557 52.2268 48.5338 52.598 48.5338C52.2559 44.7482 54.2215 42.3313 58.4148 42.3313C61.436 42.3313 65.1488 43.5907 68.9271 45.731C67.8424 38.3782 71.3076 33.6025 79.1555 33.6025C85.4818 33.6025 93.4971 36.7111 101.41 41.778C102.102 38.8951 104.439 37.1697 108.356 37.1697C115.242 37.1697 125.019 42.506 132.86 50.0408C132.86 50.0408 132.86 50.0481 132.867 50.0408C134.564 48.3591 137.104 47.3253 140.453 47.1579C147.005 46.8157 155.144 49.8879 162.359 54.8893C162.905 54.0448 163.909 53.5206 165.336 53.4551C168.918 53.2731 173.861 56.0249 176.729 59.7159H168.365H162.693H140.897H130.691H121.598H108.683H84.2879H74.7802H71.4168H57.8833H45.7403C42.6608 54.1176 45.1142 49.2254 51.506 48.5921Z" fill="#C1FFFF"/>
<path d="M235.409 172.164H303.477V135.043H235.409V172.164Z" fill="#E8FCFC"/>
<path d="M235.413 135.035H211.935V172.155H235.413V135.035Z" fill="#E8FCFC"/>
<path d="M234.493 225.387H236.328L236.328 104.029H234.493L234.493 225.387Z" fill="#E8FCFC"/>
<path d="M211.019 225.387H212.854L212.854 104.029H211.019L211.019 225.387Z" fill="#E8FCFC"/>
<path d="M302.558 225.387H304.393V104.029H302.558V225.387Z" fill="#E8FCFC"/>
<path d="M304.399 104.022H234.496L257.69 88.3701L304.399 104.022Z" fill="#C7FFFF"/>
<path d="M211.018 104.022H234.496L257.69 88.3701L211.018 104.022Z" fill="#E8FCFC"/>
<path d="M54.5054 225.387H67.0051C73.5207 214.001 77.1462 183.505 67.9806 150.359C66.4591 144.848 64.5809 139.264 62.3022 133.681C58.837 180.229 43.8984 211.577 54.5054 225.387Z" fill="#E8FCFC"/>
<path d="M77.5829 225.387H65.0832C59.281 216.971 57.5775 194.432 68.8178 169.935C70.6888 165.858 72.9164 161.73 75.5445 157.61C76.0905 192.008 89.0635 215.18 77.5829 225.387Z" fill="#E8FCFC"/>
<path d="M83.9384 189.511C93.6499 174.456 92.5506 218.813 110.387 199.106C132.307 174.893 163.749 166.783 150.012 185.311C136.267 203.846 144.442 210.259 179.139 189.511C204.299 174.464 157.903 219.578 170.607 217.867C183.318 216.156 202.522 212.64 186.084 225.387H79.4758C79.4758 225.387 74.2269 204.566 83.9384 189.511Z" fill="#E8FCFC"/>
<path d="M298.633 225.387C298.633 225.387 300.642 207.595 286.184 198.444C290.312 211.337 286.089 225.387 286.089 225.387H298.633Z" fill="#E8FCFC"/>
<path d="M290.596 225.387C290.596 225.387 294.68 210.856 309.436 203.372C301.916 213.906 300.846 225.387 300.846 225.387H290.596Z" fill="#E8FCFC"/>
<path d="M189.455 225.387C189.455 225.387 190.183 216.724 198.103 212.269C194.857 218.551 195.563 225.387 195.563 225.387H189.455Z" fill="#EEF9FF"/>
<path d="M184.905 225.387C184.905 225.387 185.436 210.841 195.075 205.563C190.765 213.025 191.013 225.387 191.013 225.387H184.905Z" fill="#EEF9FF"/>
<path d="M39.2101 225.387C39.2101 225.387 39.5959 221.798 43.7746 219.949C42.0638 222.555 42.4351 225.387 42.4351 225.387H39.2101Z" fill="#E8FCFC"/>
<path d="M323.283 225.387C322.803 222.642 323.429 216.112 328.816 211.912C326.588 215.508 325.897 223.276 326.938 225.387H323.283Z" fill="#E8FCFC"/>
<path d="M79.534 225.387C80.99 217.139 79.0899 197.541 62.921 184.932C69.5968 195.736 71.6789 219.046 68.5703 225.387H79.534Z" fill="white"/>
<path d="M41.6125 225.387C41.6125 225.387 41.3359 219.352 36.2399 217.168C38.5112 220.262 38.3875 225.387 38.3875 225.387H41.6125Z" fill="#E8FCFC"/>
<path d="M182 258.263C259.956 258.263 323.152 254.574 323.152 250.022C323.152 245.471 259.956 241.781 182 241.781C104.044 241.781 40.8481 245.471 40.8481 250.022C40.8481 254.574 104.044 258.263 182 258.263Z" fill="#E8FCFC"/>
<path d="M208.339 62.1841C208.339 62.1841 152.713 125.709 180.144 245.8H207.116C209.256 245.8 210.756 243.696 210.064 241.673C202.959 220.997 174.283 127.311 215.175 67.0617C211.207 64.4773 208.339 62.1841 208.339 62.1841Z" fill="#29D8D9"/>
<path d="M204.495 87.0233C204.175 87.795 203.855 88.5666 203.563 89.3456C199.559 88.9306 195.57 89.1054 191.595 89.8625C192.025 88.9452 192.447 88.0498 192.869 87.1834C196.735 86.6156 200.615 86.5646 204.495 87.0233Z" fill="#07AEAF"/>
<path d="M199.916 100.12C199.69 100.892 199.472 101.656 199.268 102.435C195.548 100.63 191.348 100.273 187.147 100.229C187.46 99.4211 187.78 98.6275 188.101 97.8413C192.228 97.9651 196.247 98.4528 199.916 100.12Z" fill="#07AEAF"/>
<path d="M196.538 114.52C196.385 115.314 196.247 116.107 196.116 116.901C191.449 115.343 186.608 114.375 181.913 115.336C182.175 114.469 182.437 113.61 182.713 112.766C187.307 112.14 191.988 113.035 196.538 114.52Z" fill="#07AEAF"/>
<path d="M194.296 131.73C194.23 132.538 194.165 133.353 194.121 134.169C188.734 132.56 183.121 132.065 177.465 132.727C177.632 131.897 177.814 131.075 178.003 130.259C183.58 129.742 189.011 130.237 194.296 131.73Z" fill="#07AEAF"/>
<path d="M193.677 150.658C187.242 149.507 180.719 149.755 174.349 151.386C174.451 150.512 174.567 149.646 174.691 148.787C180.923 147.309 187.351 147.105 193.663 148.175C193.663 148.998 193.67 149.835 193.677 150.658Z" fill="#07AEAF"/>
<path d="M195.14 174.522C187.453 174.711 179.845 176.087 172.558 178.642C172.565 177.783 172.572 176.939 172.602 176.094C179.823 173.663 187.314 172.338 194.893 172.134C194.973 172.935 195.053 173.728 195.14 174.522Z" fill="#07AEAF"/>
<path d="M199.239 201.116C190.598 200.388 181.927 200.759 173.38 202.2C173.315 201.392 173.249 200.577 173.191 199.776C181.651 198.378 190.212 198.014 198.759 198.677C198.926 199.5 199.079 200.308 199.239 201.116Z" fill="#70BDFC"/>
<path d="M160.939 224.062C160.997 217.634 160.728 210.106 159.811 201.953C159.731 201.145 159.636 200.329 159.519 199.499C158.58 192.059 157.088 184.153 154.787 176.116C154.569 175.33 154.336 174.536 154.089 173.75C152.603 168.851 150.805 163.908 148.665 159.008C148.33 158.266 148.002 157.53 147.653 156.788C145.804 152.769 143.693 148.78 141.305 144.878C140.883 144.201 140.468 143.516 140.031 142.839C137.621 139.068 134.935 135.377 131.95 131.81C131.44 131.206 130.931 130.609 130.407 130.005C127.844 127.071 125.078 124.232 122.086 121.502C121.445 120.919 120.79 120.337 120.127 119.762C114.398 114.797 107.882 110.218 100.493 106.199C103.944 103.695 109.047 101.096 109.047 101.096C110.649 101.533 120.651 105.748 133.26 115.641C134.134 116.325 135.015 117.032 135.91 117.774C138.167 119.645 140.497 121.676 142.855 123.904C143.518 124.537 144.188 125.171 144.85 125.833C148.243 129.153 151.701 132.873 155.122 137.001C155.785 137.801 156.447 138.624 157.117 139.461C159.585 142.577 162.031 145.911 164.419 149.486C164.899 150.199 165.365 150.92 165.838 151.655C169.151 156.795 172.339 162.408 175.302 168.523C175.688 169.324 176.081 170.132 176.453 170.947C179.918 178.387 183.041 186.548 185.662 195.466C185.902 196.274 186.142 197.083 186.368 197.898C188.181 204.37 189.724 211.22 190.954 218.5C191.085 219.294 191.224 220.095 191.34 220.903C192.571 228.729 193.437 237.021 193.852 245.8H162.919C161.055 245.8 159.607 244.177 159.825 242.32C160.218 239.03 160.728 233.563 160.881 226.603C160.91 225.78 160.932 224.936 160.939 224.062Z" fill="#29D8D9"/>
<path d="M135.918 117.781C131.091 118.218 126.483 119.455 122.086 121.501C121.445 120.919 120.79 120.336 120.127 119.761C124.306 117.701 128.696 116.325 133.268 115.648C134.141 116.332 135.022 117.038 135.918 117.781Z" fill="#07AEAF"/>
<path d="M144.865 125.84C140.249 127.187 135.532 128.679 131.95 131.809C131.44 131.205 130.931 130.608 130.407 130.004C133.916 126.976 138.306 125.301 142.87 123.911C143.525 124.544 144.202 125.177 144.865 125.84Z" fill="#07AEAF"/>
<path d="M157.132 139.468C151.308 139.024 146.073 141.572 141.305 144.877C140.883 144.2 140.468 143.516 140.031 142.839C144.646 139.672 149.648 137.211 155.137 137.007C155.792 137.808 156.455 138.631 157.132 139.468Z" fill="#07AEAF"/>
<path d="M165.853 151.662C159.578 152.783 153.775 155.273 148.665 159.015C148.33 158.272 148.002 157.537 147.653 156.795C152.713 153.198 158.318 150.774 164.433 149.5C164.907 150.206 165.372 150.927 165.853 151.662Z" fill="#07AEAF"/>
<path d="M176.46 170.954C168.838 170.874 161.485 172.628 154.78 176.123C154.562 175.337 154.329 174.543 154.081 173.757C160.662 170.394 167.884 168.603 175.31 168.537C175.703 169.331 176.089 170.139 176.46 170.954Z" fill="#07AEAF"/>
<path d="M186.375 197.905C177.334 197.614 168.343 198.982 159.803 201.952C159.723 201.144 159.629 200.329 159.512 199.499C167.935 196.645 176.766 195.277 185.669 195.466C185.917 196.281 186.15 197.089 186.375 197.905Z" fill="#70BDFC"/>
<path d="M191.348 220.909C180.952 221.28 170.723 223.188 160.895 226.609C160.91 225.787 160.924 224.935 160.939 224.061C170.65 220.771 180.711 218.9 190.962 218.507C191.085 219.3 191.224 220.101 191.348 220.909Z" fill="#07AEAF"/>
<path d="M249.893 59.0681C267.365 50.4631 282.806 47.3618 292.823 45.2579C273.976 29.8389 248.925 36.3763 237.11 40.8535C244.717 29.0818 252.594 20.637 258.061 14.6601C234.416 13.1313 218.094 31.9282 210.785 42.6298C201.758 36.2016 176.7 21.1975 153.055 33.0202C162.366 37.279 176.744 43.7 191.894 55.9304C181.046 57.037 151.992 62.3077 142.047 87.0014C154.285 83.2814 174.698 76.8458 201.707 78.593C202.158 78.6222 202.624 78.6658 203.083 78.695C228.162 81.0901 242.096 92.4396 250.25 98.4529C249.922 90.7652 246.224 84.7301 241.791 80.1946C265.065 85.0067 281.474 94.5362 291.68 100.331C287.422 74.0576 260.224 62.5334 249.893 59.0681Z" fill="#07AEAF"/>
<path d="M149.67 104.197C140.293 92.6144 123.884 94.5655 117.892 95.7521C123.993 86.7176 130.632 80.9227 134.913 77.1153C120.324 74.6692 109.375 86.8122 105.596 91.7335C99.9253 87.2054 88.1099 79.8235 75.7048 84.5263C79.6141 86.8268 85.2124 90.0519 91.2184 95.1042C84.1568 94.6455 69.6842 95.2643 62.1276 106.607C67.8351 106.09 76.6075 105.216 87.3673 106.949C82.4096 110.501 69.7424 121.13 71.7736 135.894C76.2799 131.118 83.5016 123.321 95.1642 116.93C93.5335 120.082 92.5507 123.918 93.6354 128.09C97.0206 123.533 102.619 115.161 115.672 109.759C115.898 109.671 116.131 109.577 116.356 109.489C130.53 104.124 142.506 104.219 149.67 104.197Z" fill="#07AEAF"/>
<path d="M82.4824 245.429C82.315 245.429 82.1402 245.399 81.9728 245.341C81.1502 245.057 80.7134 244.162 80.9973 243.339L84.4917 233.154C84.9358 231.655 92.4706 207.005 111.508 197.009C120.637 192.219 130.88 191.644 141.953 195.313C177.625 207.136 213.704 213.04 235.959 176.545C236.411 175.803 237.379 175.57 238.122 176.021C238.864 176.472 239.097 177.441 238.646 178.183C228.155 195.393 214.127 204.813 195.774 206.997C181.214 208.73 164.31 206.044 140.955 198.305C130.727 194.913 121.307 195.415 112.964 199.797C94.9094 209.276 87.5638 233.824 87.4983 234.072C87.491 234.094 87.4838 234.115 87.4765 234.145L83.9675 244.358C83.7491 245.021 83.1376 245.429 82.4824 245.429Z" fill="#07AEAF"/>
<path d="M240.102 178.183C238.464 177.71 236.716 178.358 235.777 179.777C213.668 213.316 179.168 209.312 141.458 196.813C108.479 185.885 92.5579 216.723 87.6803 228.917C86.7339 231.291 88.2773 233.919 90.818 234.224L134.695 239.59C134.695 239.59 152.116 200.795 188.814 218.296C225.513 235.797 266.47 228.342 288.499 192.212L240.102 178.183Z" fill="#29D8D9"/>
<path d="M131.135 251.565C130.967 251.565 130.792 251.536 130.625 251.478C129.802 251.194 129.366 250.299 129.642 249.476L131.404 244.336C134.047 236.612 138.313 229.638 143.736 224.163C152.669 215.144 167.862 206.56 189.491 216.869C227.544 235.011 266.79 224.775 287.152 191.389C287.604 190.646 288.572 190.413 289.314 190.865C290.057 191.316 290.29 192.284 289.839 193.027C268.596 227.869 227.726 238.592 188.13 219.708C168.168 210.193 154.183 218.077 145.964 226.377C140.875 231.516 136.871 238.076 134.374 245.356L132.612 250.495C132.401 251.158 131.79 251.565 131.135 251.565Z" fill="#07AEAF"/>
<path d="M276.757 251.565C276.261 251.565 275.774 251.333 275.468 250.903L255.12 222.118C254.618 221.404 254.785 220.422 255.499 219.919C256.212 219.417 257.188 219.584 257.698 220.298L278.045 249.083C278.547 249.796 278.38 250.779 277.667 251.282C277.39 251.471 277.07 251.565 276.757 251.565Z" fill="#07AEAF"/>
<path d="M285.114 197.526C284.641 194.949 283.782 192.612 282.799 190.37C281.794 188.142 280.644 186.031 279.414 183.978C278.147 181.94 276.844 179.989 275.337 178.074L272.84 179.8C273.932 181.743 275.002 183.796 275.956 185.842C276.931 187.888 277.805 189.97 278.511 192.066C279.232 194.148 279.799 196.267 280.032 198.298C280.222 199.827 280.156 201.312 279.807 202.477C278.3 202.914 276.771 203.263 275.206 203.489C273.262 203.773 271.296 203.918 269.316 203.962C267.336 203.991 265.349 203.875 263.376 203.663C262.386 203.561 261.403 203.423 260.435 203.256C259.947 203.176 259.466 203.074 258.986 202.979C258.527 202.892 257.996 202.768 257.646 202.681L255.958 208.57C256.627 208.759 257.13 208.876 257.705 209.007C258.265 209.131 258.819 209.233 259.379 209.335C260.493 209.531 261.607 209.684 262.728 209.8C264.963 210.033 267.22 210.084 269.476 210.012C270.605 209.968 271.733 209.888 272.854 209.764C273.975 209.618 275.104 209.458 276.218 209.225C278.445 208.789 280.651 208.148 282.784 207.325L283.84 206.925L284.299 206C285.019 204.544 285.332 203.015 285.398 201.596C285.485 200.169 285.354 198.815 285.114 197.526Z" fill="#FFBE9D"/>
<path d="M274.609 182.398L268.166 178.685L274.405 174.463C274.405 174.463 276.756 177.732 276.443 180.709L274.609 182.398Z" fill="#FF8B7B"/>
<path d="M265.167 174.798L270.387 172.534L274.405 174.463L268.166 178.685L265.167 174.798Z" fill="#FF8B7B"/>
<path d="M229.386 185.376C229.145 185.041 229.007 184.837 228.84 184.575L228.374 183.833C228.075 183.337 227.799 182.835 227.529 182.333C226.998 181.321 226.517 180.294 226.088 179.239C225.229 177.135 224.61 174.929 224.188 172.672C223.984 171.544 223.845 170.401 223.765 169.251C223.7 168.1 223.707 166.943 223.773 165.785C223.86 164.628 223.976 163.478 224.202 162.342C224.29 161.767 224.45 161.214 224.573 160.646L224.806 159.809L224.923 159.394L224.952 159.284L225.003 159.124L225.112 158.811C225.425 157.967 226.008 157.086 226.765 156.452C227.522 155.797 228.388 155.419 229.167 155.215C230.747 154.807 232.072 154.909 233.295 155.062C235.719 155.419 237.809 156.183 239.832 157.013C243.851 158.738 247.52 160.813 251.058 163.23L249.515 165.844C247.687 164.992 245.802 164.147 243.924 163.39C242.045 162.611 240.153 161.898 238.253 161.323C236.374 160.74 234.452 160.267 232.742 160.143C231.904 160.085 231.104 160.151 230.674 160.325C230.456 160.405 230.368 160.493 230.339 160.529C230.317 160.573 230.303 160.587 230.266 160.719L229.997 161.891C229.924 162.349 229.822 162.793 229.771 163.259C229.633 164.169 229.597 165.094 229.568 166.011C229.56 167.853 229.757 169.702 230.114 171.529C230.492 173.357 231.067 175.155 231.788 176.895C232.145 177.768 232.545 178.627 232.982 179.457C233.2 179.872 233.426 180.28 233.659 180.68L234.008 181.263L234.329 181.758L229.386 185.376Z" fill="#FFBE9D"/>
<path d="M248.321 165.014L253.803 169.491L255.237 162.094C255.237 162.094 251.116 160.638 248.496 162.094L248.321 165.014Z" fill="#FFBE9D"/>
<path d="M260.136 169.309L260.18 163.623L255.237 162.102L253.803 169.498L260.136 169.309Z" fill="#FF8B7B"/>
<path d="M262.473 159.255C259.088 159.517 250.687 159.83 247.454 169.891C244.215 179.945 229.961 178.482 234.285 186.541C241.281 199.587 251.488 202.135 261.541 199.157C271.595 196.18 284.153 184.896 275.883 170.547C267.613 156.19 262.473 159.255 262.473 159.255Z" fill="#0F264C"/>
<path d="M236.804 190.676C239.046 182.253 232.989 174.449 232.989 174.449L219.871 180.782C219.871 180.782 224.202 189.882 227.689 191.826C231.322 193.85 235.654 195 236.804 190.676Z" fill="#46F4F5"/>
<path d="M187.03 204.027C186.193 203.62 185.174 203.154 184.228 202.724L181.308 201.414C179.357 200.555 177.384 199.71 175.404 198.91C171.451 197.286 167.454 195.786 163.436 194.447C159.417 193.122 155.384 191.928 151.344 191.062C149.327 190.603 147.318 190.246 145.323 189.97L144.573 189.868C144.384 189.839 144.472 189.86 144.479 189.853C144.493 189.853 144.53 189.831 144.508 189.839C144.515 189.817 144.34 189.831 144.129 189.868C143.678 189.948 142.965 190.21 142.222 190.559C140.708 191.251 139.033 192.299 137.388 193.45C135.736 194.607 134.098 195.903 132.46 197.235C129.184 199.907 126.002 202.841 122.843 205.826C116.553 211.817 110.401 218.172 104.381 224.521L99.1899 220.4C104.315 212.945 109.804 205.891 115.767 199.048C118.737 195.619 121.867 192.314 125.209 189.082C126.89 187.473 128.652 185.915 130.53 184.393C132.43 182.879 134.418 181.401 136.857 180.062C138.094 179.406 139.419 178.773 141.123 178.293C141.989 178.067 142.914 177.863 144.027 177.805C144.282 177.783 144.603 177.79 144.887 177.79C145.17 177.798 145.534 177.812 145.622 177.819L146.532 177.885C148.949 178.06 151.329 178.336 153.673 178.715C158.347 179.508 162.912 180.557 167.36 181.882C171.815 183.177 176.161 184.706 180.442 186.388C182.575 187.247 184.694 188.121 186.797 189.06C187.846 189.533 188.894 190.013 189.935 190.508C190.991 191.018 191.981 191.506 193.124 192.095L187.03 204.027Z" fill="#FFBE9D"/>
<path d="M99.3647 218.092L107.162 221.609C107.446 221.74 107.613 222.045 107.562 222.358L106.477 229.289C106.368 230.01 105.626 230.381 104.97 230.097C102.211 228.881 100.915 228.284 97.4865 226.741C95.3753 225.787 89.9225 223.334 87.0105 222.016C84.1641 220.735 84.8629 217.583 86.1588 217.852C91.9682 219.068 95.7466 218.828 98.0689 218.02C98.4911 217.874 98.9498 217.903 99.3647 218.092Z" fill="#14365B"/>
<path d="M205.442 210.616C205.012 210.368 191.202 202.382 174.451 197.606C175.04 191.775 175.783 186.606 174.887 183.017C188.37 185.303 197.557 190.69 197.557 190.69L205.442 210.616Z" fill="#0A1B35"/>
<path d="M173.65 181.583C173.65 181.583 174.647 189.132 172.973 200.351C174.618 201.195 177.501 201.909 177.501 201.909C177.581 201.923 181.134 194.01 178.884 183.003C176.919 182.078 173.65 181.583 173.65 181.583Z" fill="#46F4F5"/>
<path d="M97.6176 218.485C97.6103 218.485 97.5957 218.485 97.5884 218.485L97.4283 218.456C96.3436 218.231 94.8584 217.925 94.5745 217.204C94.4726 216.949 94.5308 216.665 94.742 216.367C94.873 216.185 95.0477 216.09 95.2588 216.09C96.1907 216.098 97.5812 218.049 97.734 218.274C97.7704 218.325 97.7704 218.384 97.734 218.434C97.7122 218.464 97.6685 218.485 97.6176 218.485ZM95.2588 216.36C95.1424 216.36 95.0477 216.411 94.9749 216.52C94.822 216.738 94.7784 216.928 94.8439 217.088C95.055 217.626 96.3436 217.925 97.2972 218.121C96.7804 217.459 95.834 216.367 95.2588 216.36Z" fill="white"/>
<path d="M97.6175 218.486C97.5811 218.486 97.5447 218.471 97.5155 218.442C96.8239 217.714 95.681 215.472 96.096 214.809C96.1833 214.664 96.3799 214.525 96.7803 214.649C98.3819 215.151 97.7776 218.238 97.7558 218.376C97.7485 218.427 97.7048 218.471 97.6539 218.486C97.6466 218.486 97.632 218.486 97.6175 218.486ZM96.5036 214.882C96.3872 214.882 96.358 214.933 96.3435 214.955C96.0741 215.384 96.824 217.117 97.5301 218.02C97.6393 217.255 97.8068 215.268 96.7002 214.918C96.6128 214.889 96.5546 214.882 96.5036 214.882Z" fill="white"/>
<path d="M193.291 212.945L191.901 212.341L190.423 211.722C189.433 211.307 188.436 210.9 187.431 210.506C185.429 209.713 183.405 208.934 181.374 208.213C177.312 206.743 173.213 205.432 169.1 204.326C164.979 203.226 160.859 202.317 156.768 201.785C154.729 201.523 152.698 201.341 150.711 201.283L149.968 201.268L149.662 201.261C149.684 201.261 149.706 201.261 149.728 201.246C149.75 201.246 149.662 201.217 149.444 201.297C149.036 201.414 148.359 201.741 147.66 202.178C146.233 203.052 144.668 204.326 143.161 205.687C141.64 207.063 140.155 208.577 138.669 210.128C135.699 213.244 132.867 216.6 130.057 220.007C124.473 226.85 119.072 234.028 113.808 241.192L108.144 237.741C112.381 229.595 117.033 221.79 122.18 214.154C124.743 210.332 127.487 206.597 130.45 202.928C131.943 201.093 133.522 199.303 135.226 197.534C136.959 195.772 138.764 194.032 141.079 192.379C142.251 191.564 143.54 190.763 145.243 190.086C146.066 189.744 147.085 189.453 148.221 189.285C148.519 189.249 148.825 189.22 149.124 189.198L149.662 189.169L150.609 189.132C153.12 189.045 155.603 189.103 158.049 189.278C162.919 189.693 167.673 190.45 172.296 191.549C176.926 192.62 181.447 193.959 185.888 195.495C188.101 196.274 190.299 197.089 192.476 197.97C193.568 198.407 194.645 198.866 195.73 199.339L197.354 200.067L199.042 200.86L193.291 212.945Z" fill="#FFBE9D"/>
<path d="M109.455 234.975L117.259 237.137C117.543 237.217 117.718 237.479 117.681 237.763L116.859 244.184C116.771 244.846 116.058 245.305 115.403 245.108C112.694 244.308 111.428 243.783 107.999 242.83C105.888 242.247 98.5493 240.486 95.6373 239.677C92.7835 238.884 93.3659 235.943 94.6545 236.016C100.42 236.358 105.924 236.096 108.181 235.069C108.581 234.895 109.04 234.858 109.455 234.975Z" fill="#14365B"/>
<path d="M261.061 205.105C251.91 214.824 235.188 213.411 218.458 215.843C215.059 216.323 211.673 216.979 208.332 217.918C206.25 212.662 201.831 201.494 197.565 190.69C200.819 191.863 204.786 191.681 208.849 190.778C220.053 188.303 232.043 180.411 232.043 180.411C232.043 180.411 238.027 183.694 242.679 187.036C246.21 189.569 249.165 192.329 252.725 195.736C257.304 200.082 261.061 205.105 261.061 205.105Z" fill="#46F4F5"/>
<path d="M218.465 215.842C215.066 216.323 211.681 216.978 208.339 217.917C206.257 212.661 201.838 201.493 197.572 190.69C200.826 191.862 204.794 191.68 208.856 190.777C214.52 197.125 220.751 210.943 218.465 215.842Z" fill="#FFBE9D"/>
<path d="M261.541 183.548C258.105 186.235 252.347 191.615 252.74 195.728C252.74 195.728 243.822 196.085 236.178 193.799C235.028 186.3 242.686 187.028 242.686 187.028C247.04 189.285 249.26 186.533 250.811 183.476L261.541 183.548Z" fill="#FFBE9D"/>
<path d="M257.166 183.519L250.818 183.476C250.454 184.204 250.046 184.902 249.58 185.529C251.131 186.519 254.276 187.086 255.666 185.769C256.365 185.114 256.991 183.956 257.166 183.519Z" fill="#EB996E"/>
<path d="M268.727 176.814C264.228 182.376 262.444 184.83 257.377 185.718C249.762 187.065 243.916 180.316 246.661 173.524C249.136 167.409 256.074 159.342 263.419 161.082C270.656 162.8 273.226 171.252 268.727 176.814Z" fill="#FFBE9D"/>
<path d="M266.368 180.338C266.295 180.338 266.222 180.309 266.171 180.258L260.311 174.536C260.202 174.427 260.194 174.245 260.304 174.135C260.413 174.026 260.595 174.019 260.704 174.128L266.564 179.85C266.674 179.959 266.681 180.141 266.572 180.251C266.514 180.309 266.441 180.338 266.368 180.338Z" fill="#0F264C"/>
<path d="M260.318 161.832C260.559 163.405 263.951 169.957 267.373 171.675C266.164 172.934 258.68 178.118 264.555 181.627C270.43 185.136 277.594 177.863 275.359 172.825C279.821 167.62 275.548 162.735 271.573 160.107C267.606 157.479 259.43 156.081 260.318 161.832Z" fill="#0F264C"/>
<path d="M254.421 162.764C254.421 162.764 260.842 161.913 262.648 163.849C263.041 162.342 262.648 159.976 260.58 160.173C258.513 160.369 254.421 162.764 254.421 162.764Z" fill="#0F264C"/>
<path d="M276.261 172.279C276.203 172.279 276.145 172.265 276.094 172.228C275.963 172.133 275.927 171.951 276.021 171.813C277.565 169.636 277.965 167.423 277.179 165.414C276.269 163.084 273.794 161.235 270.729 160.587C270.569 160.551 270.467 160.398 270.503 160.238C270.539 160.078 270.685 159.976 270.852 160.012C274.114 160.704 276.749 162.691 277.732 165.196C278.336 166.732 278.613 169.185 276.509 172.148C276.451 172.235 276.356 172.279 276.261 172.279Z" fill="#0F264C"/>
<path d="M266.543 182.442C265.48 183.476 264.038 183.92 262.823 183.884C260.988 183.825 260.617 182.056 261.585 180.615C262.451 179.312 264.453 177.776 266.077 178.533C267.664 179.283 267.758 181.263 266.543 182.442Z" fill="#FFBE9D"/>
<path d="M199.836 196.66C199.836 196.66 191.26 193.77 179.11 190.821L177.77 209.152C189.506 215.1 199.843 223.232 208.332 217.917L199.836 196.66Z" fill="#0F264C"/>
<path d="M177.486 189.642C177.486 189.642 178.542 198.742 176.169 209.837C177.756 210.783 180.588 211.671 180.588 211.671C180.588 211.671 183.42 201.428 182.786 190.771C180.777 189.955 177.486 189.642 177.486 189.642Z" fill="#46F4F5"/>
<path d="M210.093 217.692L207.902 219.293C207.72 219.366 207.473 219.315 207.342 219.002L195.876 190.042C195.781 189.795 195.832 189.496 196.13 189.504L199.028 190.013C199.399 190.093 199.479 190.246 199.588 190.515L210.123 217.168C210.203 217.364 210.188 217.583 210.093 217.692Z" fill="#07AEAF"/>
<path d="M205.543 215.202L205.835 215.937C205.893 216.083 206.009 216.163 206.104 216.119L209.133 214.518C209.22 214.474 209.249 214.314 209.191 214.168L208.9 213.433C208.841 213.288 208.725 213.207 208.63 213.251L205.602 214.853C205.514 214.896 205.485 215.057 205.543 215.202Z" fill="#0F264C"/>
<path d="M196.567 192.736L196.844 193.442C196.895 193.58 197.026 193.682 197.135 193.66L200.695 192.961C200.797 192.94 200.841 192.808 200.782 192.67L200.506 191.964C200.455 191.826 200.324 191.724 200.214 191.746L196.655 192.445C196.553 192.459 196.509 192.59 196.567 192.736Z" fill="#0F264C"/>
<path d="M201.081 203.969L201.372 204.704C201.43 204.85 201.554 204.945 201.649 204.908L204.881 203.758C204.976 203.722 205.005 203.576 204.947 203.43L204.655 202.695C204.597 202.549 204.473 202.455 204.379 202.491L201.146 203.641C201.059 203.678 201.03 203.823 201.081 203.969Z" fill="#0F264C"/>
<path d="M261.177 174.15C260.195 175.395 258.666 175.97 257.297 175.606C256.882 175.497 256.496 175.3 256.154 175.031C254.662 173.852 254.516 171.609 255.841 169.935L261.177 174.15Z" fill="#0F264C"/>
<path d="M255.739 170.751C255.674 170.751 255.615 170.729 255.557 170.685L254.691 169.972C254.567 169.87 254.552 169.695 254.654 169.571C254.749 169.447 254.931 169.433 255.055 169.535L255.921 170.248C256.045 170.35 256.06 170.525 255.958 170.649C255.899 170.714 255.819 170.751 255.739 170.751Z" fill="#0F264C"/>
<path d="M258.746 172.162C258.411 172.636 257.887 172.84 257.574 172.621C257.261 172.403 257.29 171.835 257.625 171.362C257.959 170.888 258.484 170.685 258.797 170.903C259.11 171.121 259.088 171.689 258.746 172.162Z" fill="#0F264C"/>
<path d="M255.426 169.607C254.436 170.859 252.914 171.427 251.546 171.063C251.131 170.954 250.745 170.757 250.396 170.495C248.903 169.316 248.758 167.074 250.083 165.399L255.426 169.607Z" fill="#0F264C"/>
<path d="M253.395 168.348C253.06 168.821 252.536 169.025 252.223 168.807C251.91 168.588 251.939 168.02 252.274 167.547C252.609 167.074 253.133 166.87 253.446 167.089C253.759 167.314 253.73 167.875 253.395 168.348Z" fill="#0F264C"/>
<path d="M253.562 167.212L252.66 166.077C252.66 166.077 252.609 167.38 253.562 167.212Z" fill="#0F264C"/>
<path d="M254.873 170.19C254.873 170.19 252.652 171.165 250.592 171.347C250.563 172.396 251.677 173.153 251.677 173.153L254.873 170.19Z" fill="#EB996E"/>
<path d="M255.171 177.514C254.363 177.514 253.3 177.31 252.208 176.538C252.143 176.495 252.128 176.407 252.172 176.342C252.216 176.276 252.303 176.262 252.368 176.305C254.458 177.798 256.482 177.026 256.496 177.019C256.569 176.99 256.649 177.026 256.678 177.099C256.707 177.172 256.671 177.252 256.598 177.281C256.562 177.303 256.001 177.514 255.171 177.514Z" fill="#0F264C"/>
<path d="M263.223 170.241C263.085 170.241 262.961 170.132 262.939 169.993C262.757 168.45 261.607 167.868 261.592 167.86C261.454 167.787 261.396 167.62 261.461 167.482C261.534 167.343 261.701 167.285 261.84 167.351C261.898 167.38 263.274 168.079 263.5 169.928C263.521 170.081 263.405 170.226 263.252 170.241C263.245 170.241 263.23 170.241 263.223 170.241Z" fill="#0F264C"/>
<path d="M255.222 165.298C255.135 165.298 255.055 165.261 254.997 165.188C254.96 165.145 254.167 164.162 252.638 164.3C252.47 164.315 252.347 164.198 252.332 164.038C252.317 163.885 252.434 163.747 252.594 163.732C254.458 163.587 255.412 164.788 255.448 164.839C255.543 164.963 255.521 165.137 255.397 165.232C255.346 165.276 255.28 165.298 255.222 165.298Z" fill="#0F264C"/>
<path d="M249.915 197.89C252.907 195.83 265.283 199.39 265.283 199.39L263.405 214.43C263.405 214.43 250.41 211.475 245.744 211.795C241.791 212.072 246.108 200.511 249.915 197.89Z" fill="#46F4F5"/>
<path d="M108.647 235.761C107.686 235.724 106.019 235.55 105.538 234.785C105.371 234.516 105.363 234.21 105.509 233.861C105.618 233.606 105.807 233.526 105.946 233.504C106.841 233.38 108.559 235.302 108.756 235.521C108.792 235.564 108.8 235.622 108.778 235.673C108.756 235.724 108.705 235.761 108.647 235.761ZM106.055 233.781C106.033 233.781 106.011 233.781 105.989 233.788C105.924 233.795 105.837 233.824 105.771 233.977C105.662 234.232 105.662 234.45 105.778 234.632C106.048 235.069 106.987 235.368 108.312 235.455C107.722 234.822 106.623 233.781 106.055 233.781Z" fill="white"/>
<path d="M108.647 235.761C108.61 235.761 108.574 235.746 108.545 235.717C107.992 235.164 107.147 233.329 107.518 232.601C107.584 232.47 107.759 232.244 108.166 232.31C108.428 232.346 108.632 232.485 108.785 232.71C109.346 233.577 108.807 235.571 108.785 235.652C108.771 235.702 108.734 235.739 108.683 235.753C108.676 235.753 108.661 235.761 108.647 235.761ZM108.035 232.587C107.875 232.587 107.81 232.659 107.78 232.732C107.533 233.227 108.079 234.64 108.581 235.317C108.705 234.756 108.938 233.46 108.552 232.871C108.45 232.71 108.312 232.623 108.13 232.594C108.093 232.587 108.064 232.587 108.035 232.587Z" fill="white"/>
<path d="M258.921 171.027L258.018 169.892C258.011 169.892 257.967 171.195 258.921 171.027Z" fill="#0F264C"/>
<path d="M283.702 237.625H295.837L289.766 243.696L283.702 237.625Z" fill="#46F4F5"/>
<path d="M286.126 250.386H293.413L289.766 249.607L286.126 250.386Z" fill="#46F4F5"/>
<path d="M290.159 242.691H289.373V250H290.159V242.691Z" fill="#46F4F5"/>
<path d="M289.766 242.582L292.117 240.238H287.414L289.766 242.582Z" fill="#23E3E4"/>
<path d="M290.814 241.075C290.785 241.075 290.749 241.068 290.72 241.053C290.625 241.002 290.589 240.879 290.64 240.784L293.086 236.321C293.137 236.227 293.26 236.19 293.355 236.241C293.45 236.292 293.486 236.416 293.435 236.511L290.989 240.973C290.953 241.039 290.887 241.075 290.814 241.075Z" fill="#07AEAF"/>
</svg>
