<svg width="35" height="42" viewBox="0 0 35 42" fill="none" xmlns="http://www.w3.org/2000/svg">
<path d="M17.25 0C7.72305 0 0 7.72305 0 17.25C0 31.625 17.25 41.6875 17.25 41.6875C17.25 41.6875 34.5 31.625 34.5 17.25C34.5 7.72305 26.7769 0 17.25 0ZM17.25 23C14.0744 23 11.5 20.4256 11.5 17.25C11.5 14.0742 14.0744 11.5 17.25 11.5C20.4256 11.5 23 14.0742 23 17.25C23 20.4256 20.4256 23 17.25 23Z" fill="#07AEAF"/>
<circle cx="17.25" cy="17.4482" r="14.2759" fill="white"/>
<path d="M17 13.7801L11.4967 18.0147V23.6881H15.9188V19.5305H18.268V23.6881H22.5034V18.0147L17 13.7801Z" fill="#07AEAF"/>
<path d="M22.7338 14.7229V11.8221H20.4161V12.9399L17 10.3119L9 16.4662L10.1043 17.9017L17 12.5957L23.8957 17.9017L25 16.4662L22.7338 14.7229Z" fill="#07AEAF"/>
</svg>
