<svg width="22" height="22" viewBox="0 0 22 22" fill="none" xmlns="http://www.w3.org/2000/svg">
<path fill-rule="evenodd" clip-rule="evenodd" d="M15.6836 4.59837C17.591 5.04099 18.3206 6.15633 19.2354 7.69145H15.6836V4.59837ZM4.53656 7.82036C4.91002 7.82036 5.18109 8.00063 5.18109 8.42192C5.18109 8.77725 4.89357 9.06544 4.53841 9.06645H0.644531C0.288528 9.06645 0 9.35515 0 9.71098C0 10.067 0.288528 10.3555 0.644531 10.3555H6.44531C6.80467 10.3555 7.09236 10.6439 7.09236 11C7.09236 11.356 6.80383 11.6446 6.44783 11.6446H0.644531C0.288528 11.6446 0 11.9331 0 12.2891C0 12.6451 0.288528 12.9336 0.644531 12.9336H2.0625V14.8672C2.0625 15.2232 2.35103 15.5118 2.70703 15.5118H4.00264C4.2336 16.6494 5.23883 17.4883 6.42383 17.4883C7.60883 17.4883 8.61406 16.6494 8.84502 15.5118H15.3894C15.6203 16.6494 16.6255 17.4883 17.8105 17.4883C18.9955 17.4883 20.0008 16.6494 20.2317 15.5118H21.3555C21.7115 15.5118 22 15.2232 22 14.8672V11C22 9.10892 20.0053 8.98337 20.0035 8.98051H15.0391C14.6831 8.98051 14.3945 8.69199 14.3945 8.33598V4.4688H2.70703C2.35103 4.4688 2.0625 4.75732 2.0625 5.11333V6.5313H1.28906C0.93306 6.5313 0.644531 6.81982 0.644531 7.17583C0.644531 7.53183 0.93306 7.82036 1.28906 7.82036H4.53656ZM18.6461 14.1821C19.1075 14.6435 19.1075 15.3919 18.6461 15.8533C17.9039 16.5956 16.6289 16.0675 16.6289 15.0176C16.6289 13.9679 17.9039 13.4399 18.6461 14.1821ZM7.25937 14.1821C7.72078 14.6435 7.72078 15.3919 7.25937 15.8533C6.51715 16.5956 5.24219 16.0675 5.24219 15.0176C5.24219 13.9679 6.51715 13.4399 7.25937 14.1821Z" fill="#9818D6"/>
</svg>
