<svg width="20" height="20" viewBox="0 0 20 20" fill="none" xmlns="http://www.w3.org/2000/svg">
<path d="M12.3459 4.48431C13.5842 4.48431 14.588 3.48046 14.588 2.24215C14.588 1.00385 13.5842 0 12.3459 0C11.1076 0 10.1037 1.00385 10.1037 2.24215C10.1037 3.48046 11.1076 4.48431 12.3459 4.48431Z" fill="#878CFF"/>
<path d="M17.9427 7.71134C15.939 7.50526 13.9964 5.33708 13.5075 5.03681C13.2075 4.82026 12.8528 4.67845 12.5135 4.62553C12.5135 4.62553 12.2723 4.57547 12.023 4.60298C11.7844 4.62949 11.4217 4.64181 10.8905 5.03774C10.8521 5.06166 10.5807 5.29789 10.4952 5.40083C9.83407 6.08608 8.00219 8.11249 7.09033 10.4048C6.96145 10.7305 7.04322 11.0842 7.26769 11.3227L6.19681 13.2309L4.68827 12.3834C4.5082 12.2821 4.27965 12.3454 4.17848 12.5257L1.3232 17.571C1.22211 17.7511 1.28607 17.9807 1.46658 18.081L2.60861 18.7232C2.4268 19.0468 2.47056 19.4654 2.74521 19.7437C3.07638 20.0818 3.62046 20.0859 3.95793 19.7537C4.27161 19.4443 4.29722 18.953 4.03142 18.6142L5.59051 15.8789L6.68276 13.9326L8.03661 11.5856C8.32936 11.539 8.59173 11.3439 8.70962 11.0479C9.09553 10.0762 9.69315 9.14002 10.2703 8.36423L10.5423 11.4899C10.5738 11.857 10.7267 12.1651 10.9535 12.4082C10.2523 13.6798 8.3652 17.157 7.68391 18.3384C7.37872 18.8686 7.56012 19.546 8.08998 19.8516C8.28892 19.9656 8.50907 20.0126 8.72226 19.9972C9.07687 19.9715 9.4124 19.7756 9.60305 19.4449C10.2378 18.3445 11.8933 15.005 12.6195 13.7496C13.2016 14.7171 14.1935 16.4973 15.4518 19.3402C15.6347 19.7545 16.0401 20 16.4657 20C16.6162 20 16.7678 19.9697 16.9139 19.9049C17.4731 19.6575 17.7261 19.0034 17.4781 18.4443C15.9942 15.0894 14.9017 13.2271 14.2963 12.2462C14.5356 11.9459 14.6797 11.5725 14.642 11.1344L14.3846 8.17386C15.1302 8.76925 16.1033 9.27083 17.7647 9.44262C17.7955 9.44593 17.8254 9.44743 17.8556 9.44743C18.2957 9.44743 18.674 9.11444 18.7203 8.66683C18.7687 8.18824 18.4212 7.76055 17.9427 7.71134ZM3.33907 19.4824C3.16655 19.4824 3.02664 19.3425 3.02664 19.1701C3.02664 18.9977 3.16655 18.8579 3.33907 18.8579C3.51138 18.8579 3.65133 18.9977 3.65133 19.1701C3.65125 19.3426 3.51142 19.4824 3.33907 19.4824Z" fill="#878CFF"/>
</svg>
