<svg width="24" height="24" viewBox="0 0 24 24" fill="none" xmlns="http://www.w3.org/2000/svg">
<path fill-rule="evenodd" clip-rule="evenodd" d="M21.2729 14.7351C21.6859 14.7661 21.9949 15.1271 21.9639 15.5401L21.7739 18.0491C21.6169 20.1191 19.8699 21.7401 17.7949 21.7401H6.19494C4.11994 21.7401 2.37294 20.1191 2.21594 18.0491L2.02594 15.5401C1.99494 15.1271 2.30494 14.7661 2.71794 14.7351C3.13294 14.7201 3.49094 15.0131 3.52294 15.4271L3.71194 17.9351C3.80994 19.2271 4.89994 20.2401 6.19494 20.2401H17.7949C19.0899 20.2401 20.1809 19.2271 20.2779 17.9351L20.4679 15.4271C20.4999 15.0131 20.8669 14.7191 21.2729 14.7351ZM13.2851 2C14.7881 2 16.0332 3.12626 16.2207 4.57903L18.1902 4.5799C20.2862 4.5799 21.9902 6.2889 21.9902 8.3909V11.8299C21.9902 12.0969 21.8482 12.3429 21.6192 12.4769C19.1509 13.9224 16.0242 14.7655 12.7448 14.878L12.7451 16.6766C12.7451 17.0906 12.4091 17.4266 11.9951 17.4266C11.5811 17.4266 11.2451 17.0906 11.2451 16.6766L11.2445 14.8782C7.96843 14.7668 4.8414 13.9235 2.37124 12.4769C2.14124 12.3429 2.00024 12.0969 2.00024 11.8299V8.3809C2.00024 6.2849 3.70924 4.5799 5.81024 4.5799L7.76955 4.57903C7.95709 3.12626 9.20221 2 10.7051 2H13.2851ZM18.1902 6.0799H5.81024C4.53624 6.0799 3.50024 7.1119 3.50024 8.3809V11.3929C5.87396 12.6827 8.86648 13.3895 11.9812 13.3909L11.9951 13.3896L12.0062 13.39L12.4824 13.385C15.4282 13.3149 18.2383 12.616 20.4902 11.3929V8.3909C20.4902 7.1159 19.4592 6.0799 18.1902 6.0799ZM13.2851 3.5H10.7051C10.0318 3.5 9.4634 3.95827 9.29549 4.57928H14.6948C14.5269 3.95827 13.9585 3.5 13.2851 3.5Z" fill="black"/>
</svg>
