<svg width="24" height="24" viewBox="0 0 24 24" fill="none" xmlns="http://www.w3.org/2000/svg">
<path d="M9 18C8.95075 18 8.90198 17.9903 8.85648 17.9715C8.81098 17.9526 8.76963 17.925 8.73481 17.8902C8.69998 17.8554 8.67236 17.814 8.65352 17.7685C8.63468 17.723 8.62499 17.6742 8.625 17.625V15.375C8.625 15.2755 8.66451 15.1802 8.73483 15.1098C8.80516 15.0395 8.90054 15 9 15C9.09946 15 9.19484 15.0395 9.26517 15.1098C9.33549 15.1802 9.375 15.2755 9.375 15.375V17.625C9.37501 17.6742 9.36532 17.723 9.34648 17.7685C9.32764 17.814 9.30002 17.8554 9.26519 17.8902C9.23037 17.925 9.18902 17.9526 9.14352 17.9715C9.09802 17.9903 9.04925 18 9 18ZM12.375 19.125V15.375C12.375 15.2755 12.3355 15.1802 12.2652 15.1098C12.1948 15.0395 12.0995 15 12 15C11.9005 15 11.8052 15.0395 11.7348 15.1098C11.6645 15.1802 11.625 15.2755 11.625 15.375V19.125C11.625 19.2245 11.6645 19.3198 11.7348 19.3902C11.8052 19.4605 11.9005 19.5 12 19.5C12.0995 19.5 12.1948 19.4605 12.2652 19.3902C12.3355 19.3198 12.375 19.2245 12.375 19.125ZM6.375 16.875V15.375C6.375 15.2755 6.33549 15.1802 6.26517 15.1098C6.19484 15.0395 6.09946 15 6 15C5.90054 15 5.80516 15.0395 5.73484 15.1098C5.66451 15.1802 5.625 15.2755 5.625 15.375V16.875C5.62442 17.3721 5.42668 17.8487 5.07518 18.2002C4.72368 18.5517 4.2471 18.7494 3.75 18.75C3.65054 18.75 3.55516 18.7895 3.48484 18.8598C3.41451 18.9302 3.375 19.0255 3.375 19.125C3.375 19.2245 3.41451 19.3198 3.48484 19.3902C3.55516 19.4605 3.65054 19.5 3.75 19.5C4.44594 19.4992 5.11315 19.2224 5.60526 18.7303C6.09737 18.2382 6.37419 17.5709 6.375 16.875ZM15.375 17.625V15.375C15.375 15.2755 15.3355 15.1802 15.2652 15.1098C15.1948 15.0395 15.0995 15 15 15C14.9005 15 14.8052 15.0395 14.7348 15.1098C14.6645 15.1802 14.625 15.2755 14.625 15.375V17.625C14.625 17.7245 14.6645 17.8198 14.7348 17.8902C14.8052 17.9605 14.9005 18 15 18C15.0995 18 15.1948 17.9605 15.2652 17.8902C15.3355 17.8198 15.375 17.7245 15.375 17.625ZM20.625 19.125C20.625 19.0758 20.6153 19.027 20.5965 18.9815C20.5776 18.936 20.55 18.8946 20.5152 18.8598C20.4804 18.825 20.439 18.7974 20.3935 18.7785C20.348 18.7597 20.2992 18.75 20.25 18.75C19.7529 18.7494 19.2763 18.5517 18.9248 18.2002C18.5733 17.8487 18.3756 17.3721 18.375 16.875V15.375C18.375 15.2755 18.3355 15.1802 18.2652 15.1098C18.1948 15.0395 18.0995 15 18 15C17.9005 15 17.8052 15.0395 17.7348 15.1098C17.6645 15.1802 17.625 15.2755 17.625 15.375V16.875C17.6258 17.5709 17.9026 18.2382 18.3947 18.7303C18.8868 19.2224 19.5541 19.4992 20.25 19.5C20.2992 19.5 20.348 19.4903 20.3935 19.4715C20.439 19.4526 20.4804 19.425 20.5152 19.3902C20.55 19.3554 20.5776 19.314 20.5965 19.2685C20.6153 19.223 20.625 19.1742 20.625 19.125ZM10.5 14.25H13.5V12.75H10.5V14.25ZM6.75 14.25H9.75V12.75H6.75V14.25ZM0.75 9V6.375C0.750584 5.8779 0.948315 5.40132 1.29982 5.04982C1.65132 4.69831 2.1279 4.50058 2.625 4.5H21.375C21.8721 4.50058 22.3487 4.69831 22.7002 5.04982C23.0517 5.40132 23.2494 5.8779 23.25 6.375V9H0.75ZM9 7.125C8.99999 7.17425 9.00968 7.22302 9.02852 7.26852C9.04736 7.31402 9.07498 7.35537 9.10981 7.39019C9.14463 7.42502 9.18598 7.45264 9.23148 7.47148C9.27698 7.49032 9.32575 7.50001 9.375 7.5H14.625C14.7245 7.5 14.8198 7.46049 14.8902 7.39017C14.9605 7.31984 15 7.22446 15 7.125C15 7.02554 14.9605 6.93016 14.8902 6.85983C14.8198 6.78951 14.7245 6.75 14.625 6.75H9.375C9.32575 6.74999 9.27698 6.75968 9.23148 6.77852C9.18598 6.79736 9.14463 6.82498 9.10981 6.85981C9.07498 6.89463 9.04736 6.93598 9.02852 6.98148C9.00968 7.02698 8.99999 7.07575 9 7.125ZM14.25 14.25H17.25V12.75H14.25V14.25ZM0.75 9.75V12C0.750902 12.5312 0.939589 13.045 1.2827 13.4505C1.62582 13.8561 2.10127 14.1273 2.625 14.2161V11.625C2.62533 11.3267 2.74396 11.0408 2.95486 10.8299C3.16577 10.619 3.45173 10.5003 3.75 10.5H20.25C20.5483 10.5003 20.8342 10.619 21.0451 10.8299C21.256 11.0408 21.3747 11.3267 21.375 11.625V14.2161C21.8987 14.1273 22.3742 13.8561 22.7173 13.4505C23.0604 13.045 23.2491 12.5312 23.25 12V9.75H0.75ZM18 12.75V14.25H20.625V12.75H18ZM3.375 14.25H6V12.75H3.375V14.25ZM20.25 11.25H3.75C3.65057 11.2501 3.55525 11.2896 3.48494 11.3599C3.41464 11.4302 3.3751 11.5256 3.375 11.625V12H20.625V11.625C20.6249 11.5256 20.5854 11.4302 20.5151 11.3599C20.4447 11.2896 20.3494 11.2501 20.25 11.25Z" fill="#78D5E6"/>
</svg>
