<svg width="24" height="24" viewBox="0 0 24 24" fill="none" xmlns="http://www.w3.org/2000/svg">
<path d="M19.5 7.5H10.5V18H7.50003V7.5H4.5V19.5C4.5 20.3284 5.17165 21 6.00001 21H18C18.8284 21 19.5001 20.3284 19.5001 19.5V7.5H19.5ZM15.75 18C14.5074 18 13.5 16.9926 13.5 15.75C13.5 14.5073 14.5074 13.5 15.75 13.5C16.9926 13.5 18 14.5073 18 15.75C18 16.9926 16.9927 18 15.75 18Z" fill="#C698ED"/>
<path d="M23.25 2.99976H0.749984C0.335437 2.99976 0 3.33524 0 3.74979V12.7498C0 13.1643 0.335437 13.4998 0.749984 13.4998H2.99998V5.99978H21V13.4998H23.25C23.6645 13.4998 24 13.1644 24 12.7498V3.74979C24 3.33524 23.6646 2.99976 23.25 2.99976Z" fill="#C698ED"/>
</svg>
