<svg width="20" height="12" viewBox="0 0 20 12" fill="none" xmlns="http://www.w3.org/2000/svg">
<path d="M16.017 7.90424C17.0434 7.90424 17.8753 8.73579 17.8753 9.76235C17.8753 10.7889 17.0434 11.6205 16.017 11.6205C14.9902 11.6205 14.1586 10.789 14.1586 9.76235C14.1586 8.73573 14.9902 7.90424 16.017 7.90424ZM16.017 10.5701C16.4632 10.5701 16.8247 10.2086 16.8247 9.76235C16.8247 9.31595 16.4632 8.95459 16.017 8.95459C15.5708 8.95459 15.2089 9.31595 15.2089 9.76235C15.2089 10.2086 15.5708 10.5701 16.017 10.5701Z" fill="#C6CFD6"/>
<path d="M5.10771 7.90424C6.13416 7.90424 6.96594 8.73579 6.96594 9.76235C6.96594 10.7889 6.13421 11.6205 5.10771 11.6205C4.08092 11.6205 3.2493 10.789 3.2493 9.76235C3.2493 8.73573 4.08092 7.90424 5.10771 7.90424ZM5.10771 10.5701C5.55388 10.5701 5.91547 10.2086 5.91547 9.76235C5.91547 9.31595 5.55388 8.95459 5.10771 8.95459C4.66143 8.95459 4.29961 9.31595 4.29961 9.76235C4.29961 10.2086 4.66143 10.5701 5.10771 10.5701Z" fill="#C6CFD6"/>
<path d="M1.56116 0.379578H18.2301C18.8408 0.379578 19.4404 0.869175 19.5626 1.46755L20.2289 3.89972C20.3511 4.49809 20.451 5.48733 20.451 6.09809V8.65199C20.451 9.26263 19.9513 9.76233 19.3406 9.76233H18.2084C18.2084 8.55417 17.2253 7.57116 16.017 7.57116C14.8087 7.57116 13.8255 8.55406 13.8255 9.76233H7.29919C7.29919 8.55417 6.31606 7.57116 5.10784 7.57116C3.89934 7.57116 2.91627 8.55406 2.91627 9.76233H1.56144C0.950628 9.76233 0.451044 9.26275 0.451044 8.65199V1.48992C0.450758 0.879219 0.950459 0.379578 1.56116 0.379578ZM15.8366 5.06468H18.4243L18.0142 4.09342C17.9427 3.92392 18.0221 3.72851 18.1915 3.65695C18.3611 3.58539 18.5565 3.66483 18.6279 3.83426L19.1364 5.0386C19.4797 4.94837 19.6886 4.6269 19.6179 4.2459L19.0209 1.86383C18.9373 1.4135 18.4942 1.04501 18.0362 1.04501H15.8365L15.8366 5.06468ZM10.8954 5.06468H15.1704V1.04501H10.8954V5.06468ZM5.95418 5.06468H10.2291V1.04501H5.95418V5.06468ZM1.13171 4.23192C1.13171 4.68996 1.50643 5.06473 1.96458 5.06473H5.28795V1.04506H1.96458C1.50648 1.04506 1.13171 1.41984 1.13171 1.87787V4.23192Z" fill="#C6CFD6"/>
</svg>
