<svg width="24" height="24" viewBox="0 0 24 24" fill="none" xmlns="http://www.w3.org/2000/svg">
<path d="M15.506 3.85219L15.131 2.35181C15.0703 2.10836 14.9299 1.89223 14.7321 1.73786C14.5342 1.58349 14.2905 1.49976 14.0396 1.5H9.96068C9.70971 1.49977 9.46589 1.58355 9.26807 1.73799C9.07026 1.89244 8.92984 2.10866 8.8692 2.35219L8.4942 3.85219C8.45274 4.01805 8.44963 4.19118 8.4851 4.35842C8.52057 4.52567 8.5937 4.68263 8.69892 4.81738C8.80414 4.95213 8.93868 5.06112 9.09234 5.13609C9.24599 5.21105 9.41471 5.25001 9.58567 5.25H14.4146C14.5855 5.25001 14.7542 5.21105 14.9079 5.13609C15.0616 5.06112 15.1961 4.95213 15.3013 4.81738C15.4065 4.68263 15.4797 4.52567 15.5151 4.35842C15.5506 4.19118 15.5475 4.01805 15.506 3.85219Z" fill="#D6E1EF"/>
<path d="M19.7055 19.4616C19.5718 19.2434 19.3842 19.0633 19.1608 18.9387C18.9373 18.814 18.6855 18.7491 18.4296 18.75H5.57014C5.31447 18.7501 5.06305 18.8155 4.83975 18.94C4.61645 19.0645 4.42869 19.244 4.29428 19.4615C4.15987 19.679 4.08328 19.9273 4.07177 20.1827C4.06027 20.4381 4.11423 20.6922 4.22854 20.9209L4.39624 21.2564C4.58197 21.631 4.86895 21.9461 5.22465 22.1659C5.58034 22.3857 5.99051 22.5014 6.40864 22.5H17.5911C18.0093 22.5015 18.4195 22.3857 18.7752 22.1659C19.1309 21.9461 19.4179 21.631 19.6037 21.2564L19.7714 20.9209C19.8866 20.6925 19.9411 20.4382 19.9295 20.1826C19.918 19.927 19.8408 19.6787 19.7055 19.4616Z" fill="#D6E1EF"/>
<path d="M10.5 6.75C10.4005 6.75 10.3052 6.71049 10.2348 6.64017C10.1645 6.56984 10.125 6.47446 10.125 6.375V4.875C10.125 4.77554 10.1645 4.68016 10.2348 4.60984C10.3052 4.53951 10.4005 4.5 10.5 4.5C10.5995 4.5 10.6948 4.53951 10.7652 4.60984C10.8355 4.68016 10.875 4.77554 10.875 4.875V6.375C10.875 6.47446 10.8355 6.56984 10.7652 6.64017C10.6948 6.71049 10.5995 6.75 10.5 6.75Z" fill="#D6E1EF"/>
<path d="M13.5 6.75C13.4005 6.75 13.3052 6.71049 13.2348 6.64017C13.1645 6.56984 13.125 6.47446 13.125 6.375V4.875C13.125 4.77554 13.1645 4.68016 13.2348 4.60984C13.3052 4.53951 13.4005 4.5 13.5 4.5C13.5995 4.5 13.6948 4.53951 13.7652 4.60984C13.8355 4.68016 13.875 4.77554 13.875 4.875V6.375C13.875 6.47446 13.8355 6.56984 13.7652 6.64017C13.6948 6.71049 13.5995 6.75 13.5 6.75Z" fill="#D6E1EF"/>
<path d="M15 9H9C8.90057 9.00009 8.80524 9.03963 8.73493 9.10993C8.66463 9.18024 8.62509 9.27557 8.625 9.375V12H15.375V9.375C15.3749 9.27557 15.3354 9.18024 15.2651 9.10993C15.1948 9.03963 15.0994 9.00009 15 9Z" fill="#D6E1EF"/>
<path d="M7.875 18V9.375C7.87533 9.07673 7.99396 8.79077 8.20487 8.57987C8.41577 8.36896 8.70173 8.25033 9 8.25H15C15.2983 8.25033 15.5842 8.36896 15.7951 8.57987C16.006 8.79077 16.1247 9.07673 16.125 9.375V18H18.375V9.375C18.374 8.4802 18.0181 7.62233 17.3854 6.98961C16.7527 6.35689 15.8948 6.00099 15 6H9C8.1052 6.00099 7.24733 6.35689 6.61461 6.98961C5.98189 7.62233 5.62599 8.4802 5.625 9.375V18H7.875Z" fill="#D6E1EF"/>
<path d="M8.625 12.75H15.375V18H8.625V12.75Z" fill="#D6E1EF"/>
</svg>
