<svg width="24" height="24" viewBox="0 0 24 24" fill="none" xmlns="http://www.w3.org/2000/svg">
<path d="M22 20.5H2C1.60218 20.5 1.22064 20.342 0.93934 20.0607C0.658035 19.7794 0.5 19.3978 0.5 19V5C0.5 4.60218 0.658035 4.22064 0.93934 3.93934C1.22064 3.65804 1.60218 3.5 2 3.5H22C22.3978 3.5 22.7794 3.65804 23.0607 3.93934C23.342 4.22064 23.5 4.60218 23.5 5V19C23.5 19.3978 23.342 19.7794 23.0607 20.0607C22.7794 20.342 22.3978 20.5 22 20.5Z" fill="white"/>
<path d="M0.5 6.5H23.5V10.5H0.5V6.5Z" fill="#9FA8DA"/>
<path d="M3.5 13.5H14.5V15.5H3.5V13.5Z" fill="#9FA8DA"/>
</svg>
