<svg width="16" height="16" viewBox="0 0 16 16" fill="none" xmlns="http://www.w3.org/2000/svg">
<path d="M11.3301 5.39245L11.1589 4.82898C10.9414 4.18891 10.2463 3.84635 9.6062 4.06381C9.24613 4.18615 8.96336 4.46891 8.84103 4.82898L8.66983 5.39245C8.52576 5.86765 8.49553 6.37008 8.58156 6.85911C8.66003 7.27085 8.92143 7.62458 9.29196 7.82045L9.10023 12.1066C9.07456 12.3458 9.15216 12.5846 9.31356 12.7631C9.66067 13.1428 10.2499 13.1692 10.6295 12.8221C10.6501 12.8033 10.6697 12.7836 10.6885 12.7631C10.8463 12.5897 10.9238 12.3579 10.9018 12.1244L10.709 7.81991C11.0791 7.62395 11.34 7.27045 11.4184 6.85911C11.5044 6.37008 11.4742 5.86765 11.3301 5.39245ZM10.893 6.76631C10.8353 7.06211 10.6245 7.30481 10.3397 7.40338C10.2316 7.44401 10.162 7.54961 10.1672 7.66498L10.3698 12.1666C10.3792 12.2549 10.35 12.3429 10.2898 12.4082C10.1293 12.5671 9.87067 12.5671 9.7101 12.4082C9.6469 12.3376 9.6182 12.2427 9.6317 12.149L9.83277 7.66498C9.83797 7.54961 9.76833 7.44401 9.66023 7.40338C9.37543 7.30481 9.16463 7.06211 9.1069 6.76631C9.03556 6.36031 9.0607 5.94321 9.18023 5.54871L9.35143 4.98498C9.4839 4.62681 9.88163 4.44385 10.2398 4.57631C10.4292 4.64635 10.5785 4.79565 10.6485 4.98498L10.8197 5.54871C10.9391 5.94325 10.9642 6.36031 10.893 6.76631Z" fill="#D6E1EF"/>
<path d="M7.19998 4C7.05271 4 6.93331 4.1194 6.93331 4.26667V6.55627L6.21144 7.27813C6.15804 7.33133 6.12964 7.4047 6.13331 7.48L6.36664 12.1467C6.37221 12.2473 6.33568 12.3457 6.26584 12.4184C6.11988 12.5657 5.88214 12.5667 5.73484 12.4207C5.73404 12.42 5.73328 12.4192 5.73251 12.4184C5.66264 12.3457 5.62614 12.2473 5.63171 12.1467L5.86664 7.48C5.87038 7.40473 5.84208 7.3314 5.78878 7.27813L5.06664 6.55627V4.26667C5.06664 4.1194 4.94724 4 4.79998 4C4.65271 4 4.53331 4.1194 4.53331 4.26667V6.66667C4.53331 6.7374 4.56144 6.8052 4.61144 6.8552L5.32771 7.57173L5.10024 12.1208C5.07604 12.6177 5.45924 13.0402 5.95614 13.0644C6.45304 13.0886 6.87551 12.7054 6.89971 12.2085C6.90114 12.1793 6.90114 12.15 6.89971 12.1208L6.67224 7.57177L7.38851 6.85523C7.43851 6.80523 7.46664 6.73743 7.46664 6.6667V4.2667C7.46664 4.1194 7.34724 4 7.19998 4Z" fill="#D6E1EF"/>
<path d="M5.59999 4C5.45273 4 5.33333 4.1194 5.33333 4.26667V6.4C5.33333 6.54727 5.45273 6.66667 5.59999 6.66667C5.74726 6.66667 5.86666 6.54727 5.86666 6.4V4.26667C5.86666 4.1194 5.74726 4 5.59999 4Z" fill="#D6E1EF"/>
<path d="M6.40001 4C6.25275 4 6.13335 4.1194 6.13335 4.26667V6.4C6.13335 6.54727 6.25275 6.66667 6.40001 6.66667C6.54728 6.66667 6.66668 6.54727 6.66668 6.4V4.26667C6.66668 4.1194 6.54728 4 6.40001 4Z" fill="#D6E1EF"/>
<path d="M8 0C3.58173 0 0 3.58173 0 8C0 12.4183 3.58173 16 8 16C12.4183 16 16 12.4183 16 8C15.995 3.5838 12.4162 0.005 8 0ZM8 15.4667C3.87627 15.4667 0.533333 12.1237 0.533333 8C0.533333 3.87627 3.87627 0.533333 8 0.533333C12.1237 0.533333 15.4667 3.87627 15.4667 8C15.462 12.1218 12.1218 15.462 8 15.4667Z" fill="#D6E1EF"/>
<path d="M8.86558 13.0057C8.85128 12.8591 8.72085 12.7519 8.57425 12.7662C8.57081 12.7665 8.56738 12.7669 8.56395 12.7674L8.56501 12.7671C8.18958 12.8107 7.81031 12.8107 7.43488 12.7671C7.28855 12.7499 7.15605 12.8546 7.13888 13.001C7.12172 13.1473 7.22642 13.2798 7.37275 13.297C7.78911 13.3456 8.20971 13.3456 8.62608 13.297C8.77265 13.2827 8.87988 13.1523 8.86558 13.0057Z" fill="#D6E1EF"/>
<path d="M12.08 4.56381C11.9854 4.45098 11.8172 4.43621 11.7043 4.53088C11.704 4.53118 11.7036 4.53151 11.7032 4.53181C11.5906 4.62674 11.5763 4.79494 11.6712 4.90754C13.279 6.81621 13.156 9.63851 11.3883 11.4001C11.2839 11.504 11.2836 11.6729 11.3876 11.7773C11.4916 11.8816 11.6605 11.8819 11.7648 11.7779C13.7294 9.82084 13.8664 6.68478 12.08 4.56381Z" fill="#D6E1EF"/>
<path d="M9.25787 2.81577C8.2157 2.56601 7.1227 2.63314 6.11893 3.00857C5.98106 3.06041 5.91136 3.21421 5.9632 3.35204C6.00226 3.45594 6.1016 3.52471 6.21256 3.52481C6.24447 3.52464 6.27606 3.51881 6.30586 3.50751C7.2098 3.16947 8.19407 3.10911 9.13254 3.33417C9.2757 3.36877 9.4198 3.28081 9.4544 3.13764C9.489 2.99447 9.40104 2.85037 9.25787 2.81577Z" fill="#D6E1EF"/>
<path d="M4.59967 11.3867C3.7007 10.4893 3.19687 9.27029 3.19994 8.00003C3.1973 6.98516 3.51877 5.99596 4.11754 5.17656C4.20604 5.05883 4.18234 4.89166 4.0646 4.80316C3.94687 4.71466 3.7797 4.73836 3.6912 4.85609C3.68964 4.85819 3.6881 4.86029 3.6866 4.86243C2.14484 6.98203 2.37171 9.90773 4.2218 11.7643C4.32607 11.8686 4.4952 11.8687 4.59954 11.7644C4.70387 11.6602 4.70394 11.491 4.59967 11.3867Z" fill="#D6E1EF"/>
</svg>
