<svg width="24" height="24" viewBox="0 0 24 24" fill="none" xmlns="http://www.w3.org/2000/svg">
<path d="M7.875 2.25H7.125V3H7.875V2.25Z" fill="#C698ED"/>
<path d="M16.875 2.25H16.125V3H16.875V2.25Z" fill="#C698ED"/>
<path d="M23.415 21.0413L19.5675 19.1138C19.6288 19.1036 19.6864 19.0779 19.735 19.0392C19.7836 19.0005 19.8214 18.95 19.845 18.8925L21 16.125V17.25C21 17.3495 21.0395 17.4448 21.1098 17.5152C21.1802 17.5855 21.2755 17.625 21.375 17.625H22.875C22.9745 17.625 23.0698 17.5855 23.1402 17.5152C23.2105 17.4448 23.25 17.3495 23.25 17.25V6.75C23.25 6.65054 23.2105 6.55516 23.1402 6.48483C23.0698 6.41451 22.9745 6.375 22.875 6.375H21.375C21.2755 6.375 21.1802 6.41451 21.1098 6.48483C21.0395 6.55516 21 6.65054 21 6.75V7.875L19.845 5.1075C19.8174 5.03864 19.7698 4.97965 19.7083 4.93819C19.6467 4.89673 19.5742 4.87472 19.5 4.875H18.7125L18.3713 1.83375C18.3639 1.7487 18.3267 1.66898 18.2663 1.60875L17.5163 0.85875C17.4447 0.789677 17.3494 0.75074 17.25 0.75H6.75C6.65058 0.75074 6.55526 0.789677 6.48375 0.85875L5.73375 1.60875C5.67326 1.66898 5.63606 1.7487 5.62875 1.83375L5.2875 4.875H4.5C4.42582 4.87472 4.35326 4.89673 4.29174 4.93819C4.23022 4.97965 4.18258 5.03864 4.155 5.1075L3 7.875V6.75C3 6.65054 2.96049 6.55516 2.89016 6.48483C2.81984 6.41451 2.72446 6.375 2.625 6.375H1.125C1.02554 6.375 0.930161 6.41451 0.859835 6.48483C0.789509 6.55516 0.75 6.65054 0.75 6.75V17.25C0.75 17.3495 0.789509 17.4448 0.859835 17.5152C0.930161 17.5855 1.02554 17.625 1.125 17.625H2.625C2.72446 17.625 2.81984 17.5855 2.89016 17.5152C2.96049 17.4448 3 17.3495 3 17.25V16.125L4.155 18.8925C4.18258 18.9614 4.23022 19.0204 4.29174 19.0618C4.35326 19.1033 4.42582 19.1253 4.5 19.125H4.785L0.96 21.0413C0.897456 21.0719 0.844682 21.1193 0.807591 21.1783C0.7705 21.2372 0.750558 21.3054 0.75 21.375V22.875C0.75 22.9745 0.789509 23.0698 0.859835 23.1402C0.930161 23.2105 1.02554 23.25 1.125 23.25H23.25C23.3495 23.25 23.4448 23.2105 23.5152 23.1402C23.5855 23.0698 23.625 22.9745 23.625 22.875V21.375C23.6244 21.3054 23.6045 21.2372 23.5674 21.1783C23.5303 21.1193 23.4775 21.0719 23.415 21.0413ZM19.875 10.125H21.375C21.4368 10.1247 21.4975 10.1091 21.5518 10.0797C21.6061 10.0502 21.6523 10.0078 21.6863 9.95625C21.7263 9.895 21.7472 9.82319 21.7463 9.75H21.75V7.125H22.5V16.875H21.75V14.25H21.7463C21.7472 14.1768 21.7263 14.105 21.6863 14.0438C21.6523 13.9922 21.6061 13.9498 21.5518 13.9203C21.4975 13.8909 21.4368 13.8753 21.375 13.875H19.875V10.125ZM4.125 13.875H2.625C2.56323 13.8753 2.5025 13.8909 2.44821 13.9203C2.39391 13.9498 2.34772 13.9922 2.31375 14.0438C2.27368 14.105 2.25279 14.1768 2.25375 14.25H2.25V16.875H1.5V7.125H2.25V9.75H2.25375C2.25279 9.82319 2.27368 9.895 2.31375 9.95625C2.34772 10.0078 2.39391 10.0502 2.44821 10.0797C2.5025 10.1091 2.56323 10.1247 2.625 10.125H4.125V13.875ZM18.375 7.125V16.875H17.625V7.125H18.375ZM6.36 2.0475L6.90375 1.5H17.0963L17.64 2.0475L17.955 4.875H6.045L6.36 2.0475ZM10.5 12.75C10.4361 12.7498 10.3733 12.7333 10.3175 12.702C10.2618 12.6707 10.215 12.6256 10.1815 12.5712C10.1481 12.5167 10.1291 12.4546 10.1265 12.3907C10.1238 12.3268 10.1375 12.2633 10.1663 12.2062L11.6663 9.20625C11.7045 9.13151 11.7668 9.07179 11.8431 9.03665C11.9193 9.0015 12.0052 8.99297 12.0869 9.01242C12.1686 9.03187 12.2413 9.07817 12.2936 9.14392C12.3458 9.20966 12.3745 9.29103 12.375 9.375V10.875H13.5C13.5625 10.8751 13.6241 10.8909 13.679 10.9209C13.7339 10.9509 13.7804 10.9941 13.8143 11.0467C13.8482 11.0992 13.8684 11.1594 13.8732 11.2218C13.8779 11.2841 13.8669 11.3467 13.8412 11.4037L12.3412 14.7787C12.3117 14.8445 12.2638 14.9004 12.2032 14.9397C12.1427 14.9789 12.0721 14.9998 12 15C11.9736 14.9994 11.9473 14.9969 11.9213 14.9925C11.8372 14.9745 11.762 14.9281 11.708 14.8612C11.6541 14.7943 11.6248 14.7109 11.625 14.625V12.75H10.5ZM5.625 7.125H6.375V16.875H5.625V7.125ZM2.715 21L6.465 19.125H17.91L21.66 21H2.715Z" fill="#C698ED"/>
</svg>
