<svg width="24" height="24" viewBox="0 0 24 24" fill="none" xmlns="http://www.w3.org/2000/svg">
<path d="M21.1198 9.75385L12 3.08936L2.88025 9.75385L3.75344 10.4087L11.7794 4.57164C11.8435 4.52501 11.9207 4.49989 12 4.49989C12.0793 4.49989 12.1565 4.52501 12.2206 4.57164L20.2466 10.4087L21.1198 9.75385Z" fill="#F5A623"/>
<path d="M19.875 11.0659L12 5.33862L4.125 11.0659V21.7499H12.375V13.1249C12.375 13.0255 12.4145 12.9301 12.4848 12.8598C12.5552 12.7894 12.6505 12.7499 12.75 12.7499H18C18.0995 12.7499 18.1948 12.7894 18.2652 12.8598C18.3355 12.9301 18.375 13.0255 18.375 13.1249V21.7499H19.875V11.0659ZM10.875 18.3749C10.875 18.4744 10.8355 18.5698 10.7652 18.6401C10.6948 18.7104 10.5995 18.7499 10.5 18.7499H6C5.90054 18.7499 5.80516 18.7104 5.73484 18.6401C5.66451 18.5698 5.625 18.4744 5.625 18.3749V13.1249C5.625 13.0255 5.66451 12.9301 5.73484 12.8598C5.80516 12.7894 5.90054 12.7499 6 12.7499H10.5C10.5995 12.7499 10.6948 12.7894 10.7652 12.8598C10.8355 12.9301 10.875 13.0255 10.875 13.1249V18.3749Z" fill="#F5A623"/>
<path d="M8.625 13.5H10.125V15.375H8.625V13.5Z" fill="#F5A623"/>
<path d="M21.7612 20.25H21.7604C21.7412 20.2527 21.722 20.255 21.7025 20.2562C21.6403 20.2602 21.5782 20.2485 21.5216 20.2224C21.4651 20.1963 21.416 20.1566 21.3787 20.1067C21.3413 20.0569 21.317 19.9985 21.3079 19.9369C21.2988 19.8753 21.3051 19.8124 21.3264 19.7539C21.3574 19.6728 21.3739 19.5868 21.375 19.5C21.3748 19.3012 21.2957 19.1105 21.1551 18.9699C21.0145 18.8293 20.8238 18.7502 20.625 18.75V21.75H21.75C21.9489 21.7515 22.1403 21.6739 22.282 21.5343C22.4237 21.3947 22.5041 21.2045 22.5056 21.0056C22.5071 20.8067 22.4295 20.6154 22.2899 20.4736C22.1503 20.3319 21.9602 20.2515 21.7612 20.25Z" fill="#F5A623"/>
<path d="M15.7145 4.875L18 6.54516V3H15.75V4.875H15.7145Z" fill="#F5A623"/>
<path d="M17.625 13.5H13.125V21.75H17.625V13.5ZM14.25 17.625C14.1758 17.625 14.1033 17.603 14.0417 17.5618C13.98 17.5206 13.9319 17.462 13.9035 17.3935C13.8752 17.325 13.8677 17.2496 13.8822 17.1768C13.8967 17.1041 13.9324 17.0373 13.9848 16.9848C14.0373 16.9324 14.1041 16.8967 14.1768 16.8822C14.2496 16.8677 14.325 16.8752 14.3935 16.9035C14.462 16.9319 14.5206 16.98 14.5618 17.0417C14.603 17.1033 14.625 17.1758 14.625 17.25C14.625 17.3495 14.5855 17.4448 14.5152 17.5152C14.4448 17.5855 14.3495 17.625 14.25 17.625Z" fill="#F5A623"/>
<path d="M15.375 1.5H18.375V2.25H15.375V1.5Z" fill="#F5A623"/>
<path d="M6.375 16.125H7.875V18H6.375V16.125Z" fill="#F5A623"/>
<path d="M8.625 16.125H10.125V18H8.625V16.125Z" fill="#F5A623"/>
<path d="M6.375 13.5H7.875V15.375H6.375V13.5Z" fill="#F5A623"/>
<path d="M2.29754 20.2564C2.27799 20.2552 2.25882 20.2529 2.23965 20.2502H2.23876C2.0417 20.2544 1.85422 20.336 1.71688 20.4774C1.57953 20.6188 1.50336 20.8085 1.50484 21.0056C1.50632 21.2027 1.58533 21.3913 1.72478 21.5306C1.86423 21.6699 2.05291 21.7487 2.25001 21.75H3.37501V18.75C3.17617 18.7502 2.98554 18.8293 2.84494 18.9699C2.70434 19.1105 2.62524 19.3012 2.62501 19.5C2.6261 19.5869 2.64256 19.6729 2.67362 19.7541C2.69488 19.8126 2.70123 19.8755 2.69211 19.9371C2.68298 19.9987 2.65866 20.0571 2.62135 20.1069C2.58403 20.1568 2.53489 20.1965 2.47835 20.2226C2.42182 20.2487 2.35968 20.2603 2.29754 20.2564Z" fill="#F5A623"/>
</svg>
