<svg width="16" height="16" viewBox="0 0 16 16" fill="none" xmlns="http://www.w3.org/2000/svg">
<path d="M15.427 10.25H15V9.12378C15.0067 8.23511 14.2928 7.50879 13.4043 7.5H4V3.91675H5.25C5.32703 3.91675 5.39966 3.88123 5.44714 3.82056C5.49451 3.75989 5.51123 3.68066 5.49255 3.60596L4.82495 0.939209C4.79724 0.828247 4.69763 0.750366 4.58325 0.75H2.91675C2.802 0.749878 2.7019 0.827881 2.67395 0.939209L2.00745 3.60596C1.98877 3.68066 2.00549 3.75989 2.05286 3.82056C2.10034 3.88123 2.17297 3.91675 2.25 3.91675H3.5V7.5H2.3457C1.45715 7.50879 0.743286 8.23511 0.75 9.12378V10.25H0.572998C0.256714 10.2502 0.000244141 10.5067 0 10.823V14C0 14.1381 0.111938 14.25 0.25 14.25H0.75V14.6403C0.750366 14.9768 1.02319 15.2496 1.35974 15.25H14.6403C14.9768 15.2496 15.2496 14.9768 15.25 14.6403V14.25H15.75C15.8881 14.25 16 14.1381 16 14V10.823C15.9998 10.5067 15.7433 10.2502 15.427 10.25ZM2.57019 3.41675L3.11169 1.25H4.38831L4.92981 3.41675H2.57019ZM1.24146 9.12378C1.23694 8.50879 1.73083 8.00623 2.3457 8H13.4043C14.0192 8.00623 14.5131 8.50879 14.5085 9.12378V10.25H14.323C14.0067 10.2502 13.7502 10.5067 13.75 10.823V11.5H2.25V10.823C2.24976 10.5067 1.99329 10.2502 1.677 10.25H1.24146V9.12378ZM13.75 12V13.75H2.25V12H13.75ZM0.5 13.75V10.823C0.5 10.7827 0.532715 10.75 0.572998 10.75H1.677C1.71729 10.75 1.75 10.7827 1.75 10.823V13.75H0.5ZM14.75 14.6403C14.7499 14.7008 14.7008 14.7499 14.6403 14.75H1.35974C1.29919 14.7499 1.25012 14.7008 1.25 14.6403V14.25H14.75V14.6403ZM15.5 13.75H14.25V10.823C14.25 10.7827 14.2827 10.75 14.323 10.75H15.427C15.4673 10.75 15.5 10.7827 15.5 10.823V13.75Z" fill="#D6E1EF"/>
<path d="M3.5 8.5H4V9H3.5V8.5Z" fill="#D6E1EF"/>
<path d="M3.5 10H4V10.5H3.5V10Z" fill="#D6E1EF"/>
<path d="M12 8.5H12.5V9H12V8.5Z" fill="#D6E1EF"/>
<path d="M12 10H12.5V10.5H12V10Z" fill="#D6E1EF"/>
<path d="M7.75 8.5H8.25V9H7.75V8.5Z" fill="#D6E1EF"/>
<path d="M7.75 10H8.25V10.5H7.75V10Z" fill="#D6E1EF"/>
<path d="M6.5 6.75H14.75C14.8881 6.75 15 6.63806 15 6.5V1.25C15 1.11194 14.8881 1 14.75 1H6.5C6.36194 1 6.25 1.11194 6.25 1.25V6.5C6.25 6.63806 6.36194 6.75 6.5 6.75ZM6.75 1.5H14.5V6.25H6.75V1.5Z" fill="#D6E1EF"/>
<path d="M14 1.75H7.25C7.11194 1.75 7 1.86194 7 2V5.75C7 5.88806 7.11194 6 7.25 6H14C14.1381 6 14.25 5.88806 14.25 5.75V2C14.25 1.86194 14.1381 1.75 14 1.75ZM13.75 5.5H7.5V2.25H13.75V5.5Z" fill="#D6E1EF"/>
</svg>
