<svg width="24" height="24" viewBox="0 0 24 24" fill="none" xmlns="http://www.w3.org/2000/svg">
<path d="M12 0C4.4086 0 0.452817 9.18516 5.3386 14.857L12 22.5938L18.6614 14.857C23.5472 9.18516 19.5914 0 12 0ZM12 16.253C8.08252 16.253 4.80563 12.981 4.80563 9.05859C4.80563 5.14261 8.08102 1.86422 12 1.86422C15.9731 1.86422 19.1944 5.08547 19.1944 9.05859C19.1944 13.0317 15.9731 16.253 12 16.253Z" fill="#B5E480"/>
<path d="M5.20221 22.5938H18.7978V24H5.20221V22.5938Z" fill="#B5E480"/>
<path d="M12 3.43555C8.94316 3.43555 6.37689 5.99989 6.37689 9.05867C6.37689 12.1155 8.94452 14.6818 12 14.6818C15.1055 14.6818 17.6232 12.1641 17.6232 9.05867C17.6232 5.9532 15.1055 3.43555 12 3.43555ZM12 10.7626H11.011V12.6699H9.60471V5.97195H12C13.321 5.97195 14.3953 7.04633 14.3953 8.36727C14.3953 9.68773 13.321 10.7626 12 10.7626Z" fill="#B5E480"/>
<path d="M12.9891 8.36724C12.9891 8.91286 12.5456 9.3563 12 9.3563H11.0109V7.37817H12C12.5456 7.37817 12.9891 7.82161 12.9891 8.36724Z" fill="#B5E480"/>
</svg>
