<svg width="16" height="16" viewBox="0 0 16 16" fill="none" xmlns="http://www.w3.org/2000/svg">
<g clip-path="url(#clip0_383:8845)">
<path d="M15.3023 4.12259H8.77622L11.9362 0.619116C12.0884 0.505897 12.12 0.290751 12.0068 0.138505C11.8936 -0.0137414 11.6784 -0.0452984 11.5262 0.0679204C11.4927 0.0928225 11.464 0.12365 11.4416 0.158856L8.00679 3.93711L4.57201 0.158856C4.45326 0.0109461 4.23704 -0.012668 4.08913 0.106089C3.94122 0.224847 3.9176 0.441066 4.03636 0.588976C4.04486 0.599538 4.05396 0.609627 4.06362 0.619116L7.22362 4.12259H0.697545C0.318131 4.12259 0.0105896 4.43013 0.0105896 4.80954V15.3131C0.0105896 15.6925 0.318131 16 0.697545 16H15.3022C15.6816 16 15.9892 15.6925 15.9892 15.3131V4.79924C15.9836 4.4239 15.6777 4.12259 15.3023 4.12259ZM15.3023 15.3028H0.735413V4.79924H7.99996H8.03088H8.06179H15.316L15.3023 15.3028Z" fill="#D6E1EF"/>
<path d="M13.5746 5.52405H2.43907C2.06369 5.52967 1.76238 5.83558 1.76242 6.211V13.9015C1.76242 14.2809 2.06996 14.5884 2.44938 14.5884H13.5746C13.954 14.5884 14.2616 14.2809 14.2616 13.9015V6.211C14.2616 5.83159 13.954 5.52405 13.5746 5.52405ZM13.5643 13.8877H2.44594V6.21096H13.5746L13.5643 13.8877Z" fill="#D6E1EF"/>
</g>
<defs>
<clipPath id="clip0_383:8845">
<rect width="16" height="16" fill="white"/>
</clipPath>
</defs>
</svg>
