<svg width="24" height="24" viewBox="0 0 24 24" fill="none" xmlns="http://www.w3.org/2000/svg">
<path d="M22 3.5H2C1.17157 3.5 0.5 4.17157 0.5 5V19C0.5 19.8284 1.17157 20.5 2 20.5H22C22.8284 20.5 23.5 19.8284 23.5 19V5C23.5 4.17157 22.8284 3.5 22 3.5Z" fill="#1A1876"/>
<path d="M9.6189 14.4001H10.9234L11.7399 9.61206H10.4349L9.6189 14.4001Z" fill="white"/>
<path d="M14.3714 11.5344C13.9154 11.3129 13.6359 11.1649 13.6389 10.9409C13.6389 10.7409 13.8754 10.5289 14.3889 10.5289C14.7673 10.5194 15.1424 10.6012 15.4824 10.7674L15.6594 9.72988C15.2843 9.59457 14.8882 9.52685 14.4894 9.52988C13.1999 9.52988 12.2894 10.1799 12.2839 11.1099C12.2769 11.7979 12.9339 12.1819 13.4274 12.4099C13.9354 12.6444 14.1064 12.7939 14.1039 13.0034C14.1004 13.3244 13.6984 13.4714 13.3229 13.4714C12.8371 13.4827 12.3565 13.37 11.9264 13.1439L11.7434 14.2154C12.2086 14.3873 12.701 14.4738 13.1969 14.4709C14.5689 14.4709 15.4594 13.8289 15.4694 12.8354C15.4719 12.2904 15.1244 11.8759 14.3714 11.5344Z" fill="white"/>
<path d="M19.0035 9.61659H17.995C17.8533 9.59845 17.7096 9.6275 17.586 9.69926C17.4625 9.77102 17.366 9.8815 17.3115 10.0136L15.3735 14.4001H16.744C16.744 14.4001 16.968 13.8101 17.0185 13.6806H18.69C18.729 13.8486 18.849 14.3981 18.849 14.3981H20.06L19.0035 9.61659ZM17.3945 12.7031C17.4485 12.5646 17.981 11.1971 18.0875 10.9076C18.2635 11.7326 18.092 10.9321 18.4775 12.7031H17.3945Z" fill="white"/>
<path d="M8.52444 9.61557L7.24644 12.8806L7.11044 12.2171L6.65294 10.0171C6.6196 9.88961 6.54133 9.77849 6.43255 9.70416C6.32377 9.62984 6.1918 9.59731 6.06094 9.61257H3.95644L3.93994 9.71257C4.41844 9.82546 4.87957 10.0022 5.31094 10.2381L6.47094 14.3966H7.85194L9.90644 9.61757L8.52444 9.61557Z" fill="white"/>
</svg>
