<svg width="16" height="16" viewBox="0 0 16 16" fill="none" xmlns="http://www.w3.org/2000/svg">
<g clip-path="url(#clip0_383:8813)">
<path d="M0.160803 6.26071C-0.0421345 6.07343 -0.0548533 5.75712 0.132428 5.55418C1.12487 4.47868 2.30246 3.63149 3.63252 3.03615C5.0099 2.41965 6.47927 2.10706 7.9999 2.10706C9.52052 2.10706 10.9899 2.41965 12.3672 3.03615C13.6973 3.63149 14.8749 4.47868 15.8673 5.55418C16.0546 5.75712 16.0419 6.07346 15.839 6.26071C15.7428 6.3494 15.6212 6.39324 15.5 6.39324C15.3653 6.39324 15.231 6.33915 15.1324 6.23234C13.2997 4.24618 10.7 3.10706 7.9999 3.10706C5.29983 3.10706 2.70012 4.24618 0.867366 6.23234C0.680084 6.43527 0.363741 6.44796 0.160803 6.26071ZM12.8561 8.49568C13.0396 8.70206 13.3556 8.72059 13.562 8.53709C13.7683 8.35359 13.7869 8.03756 13.6034 7.83121C12.1809 6.2314 10.1385 5.3139 7.9999 5.3139C5.8613 5.3139 3.81893 6.23143 2.39643 7.83121C2.21293 8.03759 2.23146 8.35362 2.43783 8.53712C2.53312 8.62181 2.65171 8.66346 2.7699 8.66346C2.90771 8.66346 3.04496 8.60681 3.14374 8.49571C4.37665 7.10915 6.14665 6.31393 7.9999 6.31393C9.85315 6.3139 11.6231 7.10912 12.8561 8.49568ZM10.5653 10.7514C10.6641 10.8743 10.8091 10.9381 10.9553 10.9381C11.0653 10.9381 11.1759 10.9021 11.2683 10.8278C11.4835 10.6548 11.5177 10.3401 11.3447 10.1249C10.5253 9.1054 9.30618 8.52071 7.9999 8.52071C6.69362 8.52071 5.47449 9.1054 4.65502 10.1249C4.48202 10.3401 4.51624 10.6548 4.73149 10.8278C4.94674 11.0009 5.26146 10.9666 5.43446 10.7514C6.06312 9.96927 6.99818 9.52074 7.9999 9.52074C9.00165 9.52071 9.93671 9.96927 10.5653 10.7514ZM7.9999 11.7276C8.59696 11.7276 9.08274 12.2133 9.08274 12.8104C9.08274 13.4075 8.59699 13.8932 7.9999 13.8932C7.4028 13.8932 6.91705 13.4075 6.91705 12.8104C6.91705 12.2133 7.4028 11.7276 7.9999 11.7276ZM7.9999 12.7276C7.95499 12.7276 7.91705 12.7655 7.91705 12.8104C7.91705 12.8553 7.95499 12.8932 7.9999 12.8932C8.0448 12.8932 8.08274 12.8553 8.08274 12.8104C8.08271 12.7655 8.0448 12.7276 7.9999 12.7276Z" fill="#D6E1EF"/>
</g>
<defs>
<clipPath id="clip0_383:8813">
<rect width="16" height="16" fill="white"/>
</clipPath>
</defs>
</svg>
