<svg width="24" height="24" viewBox="0 0 24 24" fill="none" xmlns="http://www.w3.org/2000/svg">
<g clip-path="url(#clip0_383:6684)">
<path d="M7.92144 15.32C7.44513 15.7963 7.44513 16.5686 7.92144 17.0448C8.39791 17.5211 9.17001 17.5211 9.64632 17.0448C10.944 15.7471 13.0559 15.7471 14.3536 17.0448C14.5918 17.2828 14.9041 17.402 15.2161 17.402C15.5282 17.402 15.8404 17.283 16.0786 17.0448C16.5549 16.5685 16.5549 15.7962 16.0786 15.32C13.8296 13.0711 10.1704 13.0711 7.92144 15.32Z" fill="#78D5E6"/>
<path d="M4.34673 11.7453C3.87043 12.2216 3.87043 12.9938 4.34673 13.47C4.82304 13.9461 5.59514 13.9464 6.07161 13.47C9.34054 10.201 14.6596 10.201 17.9283 13.47C18.1666 13.708 18.4788 13.8272 18.7909 13.8272C19.1029 13.8272 19.4151 13.7082 19.6534 13.47C20.1297 12.9937 20.1297 12.2214 19.6534 11.7453C15.4333 7.52534 8.5668 7.52534 4.34673 11.7453Z" fill="#78D5E6"/>
<path d="M23.6429 7.75564C17.223 1.33568 6.77709 1.33568 0.35729 7.75564C-0.119015 8.23195 -0.119015 9.00422 0.35729 9.48036C0.833758 9.95666 1.60586 9.95666 2.08217 9.48036C4.7312 6.83116 8.25349 5.37233 12 5.37233C15.7466 5.37233 19.2689 6.83133 21.9179 9.48036C22.1561 9.71843 22.4683 9.83763 22.7804 9.83763C23.0925 9.83763 23.4047 9.71859 23.6429 9.48036C24.1192 9.00422 24.1192 8.23195 23.6429 7.75564Z" fill="#78D5E6"/>
<path d="M12 21.0596C12.7392 21.0596 13.3385 20.4603 13.3385 19.7211C13.3385 18.9818 12.7392 18.3826 12 18.3826C11.2608 18.3826 10.6615 18.9818 10.6615 19.7211C10.6615 20.4603 11.2608 21.0596 12 21.0596Z" fill="#78D5E6"/>
</g>
<defs>
<clipPath id="clip0_383:6684">
<rect width="24" height="24" fill="white"/>
</clipPath>
</defs>
</svg>
